<svg xmlns="http://www.w3.org/2000/svg" xmlns:xlink="http://www.w3.org/1999/xlink" viewBox="0 0 135.27 135.27"><defs><style>.cls-1{fill:url(#linear-gradient);}</style><linearGradient id="linear-gradient" x1="178.01" y1="-47.16" x2="-21.99" y2="160.84" gradientUnits="userSpaceOnUse"><stop offset="0" stop-color="#ffecd2"/><stop offset="1" stop-color="#ffecd2" stop-opacity="0"/></linearGradient></defs><title>instagram</title><g id="Layer_2" data-name="Layer 2"><g id="Layer_1-2" data-name="Layer 1"><path class="cls-1" d="M67.65,103.51A34.86,34.86,0,1,1,102.49,68.6,35,35,0,0,1,67.65,103.51ZM90.46,68.68a22.83,22.83,0,1,0-22.85,22.8A22.85,22.85,0,0,0,90.46,68.68Zm4.68-36.29a8.81,8.81,0,1,0,8.78-8.72A8.86,8.86,0,0,0,95.14,32.39ZM115.71,13a6.56,6.56,0,0,1,6.56,6.55v96.16a6.56,6.56,0,0,1-6.56,6.56H19.55A6.56,6.56,0,0,1,13,115.71V19.55A6.56,6.56,0,0,1,19.55,13h96.16m0-13H19.55A19.55,19.55,0,0,0,0,19.55v96.16a19.55,19.55,0,0,0,19.55,19.56h96.16a19.56,19.56,0,0,0,19.56-19.56V19.55A19.55,19.55,0,0,0,115.71,0Z"/></g></g></svg>