<svg xmlns="http://www.w3.org/2000/svg" xmlns:xlink="http://www.w3.org/1999/xlink" viewBox="0 0 178.69 140.32"><defs><style>.cls-1{fill:url(#linear-gradient);}</style><linearGradient id="linear-gradient" x1="245.99" y1="-54.14" x2="-1.01" y2="141.86" gradientUnits="userSpaceOnUse"><stop offset="0" stop-color="#ffecd2"/><stop offset="1" stop-color="#ffecd2" stop-opacity="0"/></linearGradient></defs><title>mail</title><g id="Layer_2" data-name="Layer 2"><g id="Layer_1-2" data-name="Layer 1"><path class="cls-1" d="M167.8.16H156.25a20.32,20.32,0,0,0-2.1-.12c-21.51,0-43.3,0-64.76,0S46,0,24.48,0a20.48,20.48,0,0,0-2.1.12H10.89A11.19,11.19,0,0,0,0,11.59V128.73a11.19,11.19,0,0,0,10.89,11.43H23.22c.74.06,1.38.09,2,.09,24.88,0,49.24,0,71.86,0h40.72l4.57,0h4.67c2.84,0,5.18,0,7.36-.08.4,0,.78,0,1.23-.08H167.8a11.18,11.18,0,0,0,10.89-11.43V11.59A11.18,11.18,0,0,0,167.8.16ZM57.11,70.07,12.39,118.21V23.07l13.35,14Q41.42,53.6,57.11,70.07ZM166.3,23v95.13L122,70.47c-.14-.15-.29-.3-.44-.44q17-17.87,34-35.73ZM155,16.3,105.35,68.51a12.82,12.82,0,0,0-2.35,2l-.81.87c-1.55,1.7-3,3.3-4.47,4.78a10.94,10.94,0,0,1-7.91,3.57,11.37,11.37,0,0,1-9.27-4l-3.87-4.11L74,68.82a10.67,10.67,0,0,0-1.94-1.63l-46.58-49L21.1,13.64a15.85,15.85,0,0,1,3.4-.51q64.82-.09,129.63,0a16.2,16.2,0,0,1,3.43.51ZM66,79.36l5.31,5.58c5.06,5.31,11.47,8.23,18.07,8.23s13-2.93,18.08-8.24l5.28-5.55a.67.67,0,0,1,.32.2l43.81,47.2a15.17,15.17,0,0,1-2.73.37c-2.06.06-4.3.08-7,.08h-4.62l-4.62,0H97.09q-35.93,0-71.84,0a19.08,19.08,0,0,1-3.35-.37Z"/></g></g></svg>