<svg xmlns="http://www.w3.org/2000/svg" xmlns:xlink="http://www.w3.org/1999/xlink" viewBox="0 0 140.74 141.34"><defs><style>.cls-1{fill:url(#linear-gradient);}</style><linearGradient id="linear-gradient" x1="154.46" y1="-25.66" x2="12.27" y2="137.31" gradientUnits="userSpaceOnUse"><stop offset="0" stop-color="#ffecd2"/><stop offset="1" stop-color="#ffecd2" stop-opacity="0"/></linearGradient></defs><title>phone</title><g id="Layer_2" data-name="Layer 2"><g id="Layer_1-2" data-name="Layer 1"><path class="cls-1" d="M135.85,100.08c-5.68-6-11.85-12.22-18.36-18.4s-14.77-6.19-21.4-.33c-3.24,2.86-6.3,6-9.25,9l-.42.43a2.26,2.26,0,0,1-.38.33,1.62,1.62,0,0,1-.28-.15c-1.17-.76-2.37-1.49-3.53-2.2a63.42,63.42,0,0,1-6.12-4c-11.64-9-20.24-18.68-26.25-29.65L52,53c2.28-2.26,4.44-4.39,6.53-6.65C66,38.28,65.89,29.87,58.3,22,53.15,16.65,47.81,11.3,42,5.65c-7.83-7.58-16.8-7.53-24.63.15C16,7.07,14.77,8.38,13.49,9.68c-1.67,1.72-3.41,3.49-5.17,5.15C1.87,20.93-.79,28.67.2,38.49A70.43,70.43,0,0,0,6.61,60.87C19,88,38.34,109.9,64.12,126c12.48,7.8,23.36,12.39,34.25,14.46a45,45,0,0,0,8.32.87,24.76,24.76,0,0,0,17.45-6.51c3.88-3.6,7.76-7.56,11.86-12.12C142.37,115.61,142.31,106.94,135.85,100.08ZM38,58.6c5.68,12.19,14.53,22.9,27.85,33.72a112.51,112.51,0,0,0,13.53,9l2.35,1.42c4.41,2.66,7.78,2.2,11.61-1.58q2.31-2.28,4.6-4.59t4.86-4.85c3.07-3,4.38-3,7.37-.07,5.12,5.1,10.57,10.52,15.87,15.88,3.16,3.2,3.16,4.68,0,7.92-1.09,1.13-2.2,2.24-3.31,3.35-1.81,1.82-3.68,3.71-5.46,5.64-3,3.22-6.64,4.87-10.33,4.62h0c-7.65-.35-14.76-2.29-23-6.32-31.71-15.41-54.5-39.36-67.73-71.18-2.77-6.66-4-12.36-3.75-17.94a12.89,12.89,0,0,1,3.58-9l.5-.51c3.22-3.28,6.56-6.67,9.92-9.91C27.67,13,28.74,12.4,29.8,12.4S32,13,33.27,14.32c5.94,5.87,11.32,11.26,16.45,16.49,2.73,2.79,2.71,4.16-.06,7-2.33,2.38-4.77,4.75-7.12,7l-2.37,2.31C36.42,50.82,35.83,53.92,38,58.6Z"/></g></g></svg>