<svg xmlns="http://www.w3.org/2000/svg" xmlns:xlink="http://www.w3.org/1999/xlink" viewBox="0 0 151.53 135.4"><defs><style>.cls-1{fill:url(#linear-gradient);}</style><linearGradient id="linear-gradient" x1="214.58" y1="-41.58" x2="37.58" y2="119.42" gradientUnits="userSpaceOnUse"><stop offset="0" stop-color="#ffecd2"/><stop offset="1" stop-color="#ffecd2" stop-opacity="0"/></linearGradient></defs><title>telegram</title><g id="Layer_2" data-name="Layer 2"><g id="Layer_1-2" data-name="Layer 1"><path class="cls-1" d="M151.53,7.23c-.68,3.32-1.41,6.62-2.05,10q-6.19,32.36-12.35,64.74-4.5,23.65-9,47.33c-.49,2.57-1.44,4.72-4,5.75-2.3.9-4.34.19-6.26-1.12-11.83-8-23.68-16-35.46-24.12a2.7,2.7,0,0,0-3.79.07c-5.85,4.35-11.81,8.56-17.74,12.82-4.55,3.27-8.93,1.69-10.37-3.76q-4.86-18.27-9.65-36.57a2.34,2.34,0,0,0-1.62-1.82Q22,74,4.73,67.33C1,65.91-.59,63.28.2,60c.55-2.34,2.2-3.62,4.32-4.46l34-13.55Q90.24,21.38,141.92.85a10.63,10.63,0,0,1,4.7-.82c2.63.22,4,2.22,4.91,4.54ZM70,86.88l47.83,32.44L136,23.74l-.28-.15Zm-15.68-.71a37.4,37.4,0,0,1,2.95-3.66q30.14-29.07,60.33-58.07c.43-.41.91-.78,1.36-1.17l-.24-.29L22.53,61.24c.64.26.95.4,1.27.52,7.68,2.94,15.34,5.91,23,8.81a6.93,6.93,0,0,1,4.69,5.22C52.38,79.32,53.38,82.81,54.28,86.17Zm5.85,22.24,9.78-7L55.72,91.7C57.2,97.29,58.63,102.71,60.13,108.41Z"/></g></g></svg>