<svg xmlns="http://www.w3.org/2000/svg" xmlns:xlink="http://www.w3.org/1999/xlink" viewBox="0 0 145.19 95.27"><defs><style>.cls-1{fill:url(#linear-gradient);}</style><linearGradient id="linear-gradient" x1="-10.21" y1="31.78" x2="148.52" y2="60.55" gradientUnits="userSpaceOnUse"><stop offset="0" stop-color="#fcaf21"/><stop offset="0.47" stop-color="#e49035"/><stop offset="1" stop-color="#7a2c00"/></linearGradient></defs><title>moteghayer-logo</title><g id="Layer_2" data-name="Layer 2"><g id="Layer_1-2" data-name="Layer 1"><path class="cls-1" d="M117.57,19.81H44.26A44.32,44.32,0,0,0,0,64.08V75.27H21V64.08A23.26,23.26,0,0,1,44.26,40.85H54.73L25.21,75H87.09l0-8.14c0-5,0-10.1,0-15.06,0-3.64,0-7.31,0-11H91a27.54,27.54,0,0,0,26.71,34.21h0a27.63,27.63,0,0,0-.1-55.25ZM60.89,58.69l9.88-11.44c0,1.54,0,3.08,0,4.61q0,3.39,0,6.83ZM117.67,54a6.49,6.49,0,1,1,6.49-6.49A6.5,6.5,0,0,1,117.67,54ZM111,15.38H87.24V0H111ZM43.49,79.57H67.25v15.7H43.49Zm28.33,0h15.5a15.62,15.62,0,0,1-15.5,15.7Z"/></g></g></svg>