<svg xmlns="http://www.w3.org/2000/svg" viewBox="0 0 294.75 343.87"><defs><style>.cls-1,.cls-10,.cls-12,.cls-14,.cls-17,.cls-20,.cls-21,.cls-3,.cls-7{isolation:isolate;}.cls-2{fill:#7b3166;}.cls-3{fill:#4c1840;opacity:0.28;}.cls-4{fill:#db8686;}.cls-5{fill:#ba8e2d;}.cls-6{fill:#f89a98;}.cls-7{fill:#bc5e5e;opacity:0.25;}.cls-8{fill:#ba6060;}.cls-9{fill:#76829b;}.cls-10,.cls-13{fill:#fff;}.cls-10{opacity:0.51;}.cls-11{fill:#3c465f;}.cls-12,.cls-14{fill:#222a3a;}.cls-12{opacity:0.46;}.cls-14{opacity:0.72;}.cls-15{fill:#f0c052;}.cls-16{fill:#ffcd54;}.cls-17,.cls-18{fill:#fff983;}.cls-17{opacity:0.64;}.cls-19{fill:#a64588;}.cls-20{fill:#ff8ac2;opacity:0.71;}.cls-21{fill:#a23e00;opacity:0.9;mix-blend-mode:color;}</style></defs><title>hand</title><g class="cls-1"><g id="Layer_2" data-name="Layer 2"><g id="Layer_1-2" data-name="Layer 1"><path class="cls-2" d="M256.43,298.22c-18,9.5-54,15.5-54,15.5s7.5-27.5-48-35.5-82.87-23.77-89.5-44c-9.5-29,66.48-34.5,66.48-34.5a15.25,15.25,0,0,0,2.82,8.17c7.84,11.16,32.42,16.89,79.25,26.33,36.19,7.29,49.8,19.42,54.92,27.31,3,4.55,3.08,7.7,3.08,7.7S274.43,288.72,256.43,298.22Z"/><path class="cls-3" d="M256.43,298.22c-18,9.5-54,15.5-54,15.5s7.5-27.5-48-35.5-82.87-23.77-89.5-44c-9.5-29,66.48-34.5,66.48-34.5a15.25,15.25,0,0,0,2.82,8.17c-14.9.18-37.46,3.38-49.3,19.6-18.67,25.56,59.14,43.23,88.57,40.43s32,17.91,64.1,11.56c15.52-3.07,25.07-10.79,30.8-18,3,4.55,3.08,7.7,3.08,7.7S274.43,288.72,256.43,298.22Z"/><path class="cls-4" d="M151.68,75s4.25-12,9.75-15,11.75-5,17.25-1.27,18,20,32.12,14.77-2.31-23.36-7.12-28.5S176,28.47,164,31s-21.8,12.61-25.55,21.79S151.68,75,151.68,75Z"/><path class="cls-5" d="M113.59,217c8-5,90.41-1.67,97.21.66s3.79,16-46.54,18S105.59,222,113.59,217Z"/><path class="cls-6" d="M208,70.72c-2-18.5-6-28-10.5-41-.18-.54-.37-1.06-.56-1.56-.1-.25-.19-.5-.29-.74l-.36-.89-.16-.39a18.58,18.58,0,0,0-1-2.05l-.3-.59-.26-.48a17.29,17.29,0,0,0,6.76-4.12c3.33-3.54,3.06-8,1.12-12.18-3-6.5-24.5-4-34.5-6-7-1.4-12.54-.59-18.49,1.05h-.12c-2.51.69-5.09,1.54-7.89,2.42-9.5,3-23,8-23,8-5,.5-8,1.5-12,10.5s-17,29-19,38.5,2.5,11.5,7,21,10.5,21,15.5,35.5,13.5,28.5,13.5,30a198.2,198.2,0,0,1,1.5,31c-.5,19-1.5,56.5-1.5,56.5A105.09,105.09,0,0,0,141,239.86c33.62,5.92,63.49-4.64,63.49-4.64s-1.5-36-3.5-56c-1.61-16.08-1.92-28,1.92-42.39.16-.62.33-1.24.51-1.87s.41-1.38.62-2.09c.15-.49.31-1,.47-1.49s.29-.9.45-1.35c.21-.64.43-1.28.66-1.93s.57-1.57.87-2.38C214,105.72,210,89.22,208,70.72Zm-39,14.5a7.43,7.43,0,0,1-1.15.09h-.55a4.52,4.52,0,0,1-.53-.06h-.09l-.49-.09H166c-2.58-.61-5.18-2.45-7.68-5a59.59,59.59,0,0,1-8.14-10.83c-4.42-7.31-7.5-14.74-7.73-16.58-.4-3.18,2.37-10.79,10.55-17a39.3,39.3,0,0,1,7.45-4.46,52.73,52.73,0,0,1,13.92-4.45c-.18.47-.35.95-.49,1.45-.06.17-.11.35-.16.52s-.14.48-.2.73c-.13.49-.24,1-.35,1.5l-.15.76c-.05.26-.1.52-.14.79-.09.52-.17,1.06-.24,1.6v.06c-.06.52-.12,1-.17,1.58s-.09,1-.13,1.51v.33a100.91,100.91,0,0,0,0,11c.12,2.65.31,5.27.49,7.76,0,.63.1,1.24.14,1.85C174,71.72,175.34,84.15,169,85.22Z"/><path class="cls-7" d="M201.31,18.9c0,2.42-2.08,4.88-5.25,7.24-6,4.51-16.05,8.66-23.77,11.46v-.33c0-.51.08-1,.13-1.51s.11-1.06.17-1.58v-.06c.07-.54.15-1.08.24-1.6a4.22,4.22,0,0,1,.14-.79l.15-.76c.11-.51.22-1,.35-1.5.06-.25.13-.49.2-.73s.1-.35.16-.52a14.49,14.49,0,0,1,.49-1.45,52.73,52.73,0,0,0-13.92,4.45A39.6,39.6,0,0,0,153,35.68c-8.18,6.25-10.95,13.86-10.55,17,.23,1.84,3.31,9.27,7.73,16.58a59.59,59.59,0,0,0,8.14,10.83c-1.13,2.92-2.68,3.92-4.79,1.55-8.92-10-14.58-25.46-13.06-36.4s17.64-23.73,36.05-22.55S201.31,18.9,201.31,18.9Z"/><path class="cls-7" d="M137.89,134.22c3.33,8.43,4.54,58.5,4,78-.16,6.22-.53,15.7-1,27.64a105.79,105.79,0,0,1-17.51-4.64s1-37.5,1.5-56.5a198.2,198.2,0,0,0-1.5-31c0-1.5-8.5-15.5-13.5-30s-11-26-15.5-35.5-9-11.5-7-21,15-29.5,19-38.5,7-10,12-10.5c0,0,13.5-5,23-8,2.8-.88,5.38-1.73,7.89-2.42C147.71,2.34,131,8.13,122,18.9c-9.5,11.32-14.74,42.8-12,48.82s4.83,18.5,12,31S135.12,127.22,137.89,134.22Z"/><path class="cls-8" d="M118.43,12.22a6.12,6.12,0,0,0-1.09,1.66c-.31.58-.59,1.19-.85,1.8-.53,1.22-1,2.46-1.48,3.71-1,2.49-1.84,5-2.71,7.52L107,42a59,59,0,0,0-2.67,15.6,33.38,33.38,0,0,0,.07,4,12.51,12.51,0,0,0,.79,3.81,5.59,5.59,0,0,0,.47.82c.2.26.4.53.62.77a10.84,10.84,0,0,0,1.43,1.36,11.16,11.16,0,0,0,3.46,1.91,10.47,10.47,0,0,1-3.62-1.7A10.83,10.83,0,0,1,106,67.25a8.06,8.06,0,0,1-.69-.75,8.25,8.25,0,0,1-.57-.88,12.85,12.85,0,0,1-1-4,33.5,33.5,0,0,1-.21-4,51,51,0,0,1,.69-8A57,57,0,0,1,106,41.76c.43-1.28.89-2.54,1.36-3.78l1.38-3.76c.92-2.5,1.8-5,2.78-7.51s1.93-5,3-7.43c.54-1.23,1.09-2.45,1.69-3.64A11.71,11.71,0,0,1,118.43,12.22Z"/><path class="cls-8" d="M105.81,24c-.83,2-1.83,3.9-2.64,5.85s-1.74,3.88-2.57,5.84c-1.68,3.9-3.35,7.81-4.77,11.81a46.79,46.79,0,0,0-3.1,12.22A20.37,20.37,0,0,0,93,66a10.45,10.45,0,0,0,3,5.47,10.3,10.3,0,0,1-3.41-5.37A20.79,20.79,0,0,1,92,59.67a44.53,44.53,0,0,1,2.93-12.52q2.28-6,5-11.78C101.73,31.52,103.67,27.72,105.81,24Z"/><polygon class="cls-9" points="223.18 22.47 209.95 35.24 206.77 26.1 205.68 22.96 204.93 20.82 218.6 20.35 222.43 20.22 223.1 22.22 223.18 22.47"/><polygon class="cls-10" points="223.1 22.22 206.77 26.1 205.68 22.96 218.6 20.35 222.43 20.22 223.1 22.22"/><polygon class="cls-11" points="221.18 20.84 226.61 18.89 227.18 20.39 222 22.73 221.18 20.84"/><path class="cls-9" d="M87.27,53.46A9.74,9.74,0,0,1,86,57c-.75.5-63.75,24-64.25,25s2.75,9.75,2.75,9.75l-1.64.58-2.61.92S16,84.22,16.43,83s3.75-6.5,5-7S85.7,51.72,87,51.47C87.49,51.36,87.5,52.32,87.27,53.46Z"/><path class="cls-12" d="M21.68,82c-.5,1,2.75,9.75,2.75,9.75l-1.64.58L19,82.48l1.5-2.26L87.27,53.46A9.74,9.74,0,0,1,86,57C85.18,57.47,22.18,81,21.68,82Z"/><path class="cls-11" d="M211,32.83a3.39,3.39,0,0,1-2.2,3.17l-34.4,13.18-4,1.52L164,53.18l-4,1.52-6.48,2.48-3.95,1.52L18.46,108.94A3.35,3.35,0,0,1,14.7,108c-2.78-3.3-3.55-7.59-3.74-10.27a3.38,3.38,0,0,1,2.17-3.39l1.95-.75,129.16-49.8,3.65-1.41,6.79-2.62,3.65-1.4,6.79-2.62,3.65-1.41,34.52-13.31a3.4,3.4,0,0,1,3.87,1A17.23,17.23,0,0,1,211,32.51Z"/><path class="cls-9" d="M153.51,57.18l-3.95,1.52a72.71,72.71,0,0,0-5.32-14.88l3.65-1.41A59.63,59.63,0,0,1,153.51,57.18Z"/><path class="cls-9" d="M164,53.18l-4,1.52a73.54,73.54,0,0,0-5.31-14.91l3.65-1.4A59.34,59.34,0,0,1,164,53.18Z"/><path class="cls-9" d="M174.38,49.18l-4,1.52a73.71,73.71,0,0,0-5.31-14.93l3.65-1.41A59.55,59.55,0,0,1,174.38,49.18Z"/><path class="cls-13" d="M49.75,85.38a1,1,0,0,1-1-1,1,1,0,0,1,.64-.93L157.21,41.6a1,1,0,0,1,1.29.57,1,1,0,0,1-.57,1.29L50.11,85.32A1.13,1.13,0,0,1,49.75,85.38Z"/><path class="cls-14" d="M211,32.83a3.39,3.39,0,0,1-2.2,3.17l-34.4,13.18-4,1.52L164,53.18l-4,1.52-6.48,2.48-3.95,1.52L18.46,108.94A3.35,3.35,0,0,1,14.7,108c-2.78-3.3-3.55-7.59-3.74-10.27a3.38,3.38,0,0,1,2.17-3.39l1.95-.75a13.68,13.68,0,0,0,2.85,7.6L211,32.51Z"/><path class="cls-6" d="M206.43,125.72c-.3.81-.59,1.6-.87,2.38s-.45,1.29-.66,1.93c-.16.45-.3.9-.45,1.35s-.32,1-.47,1.49c-.21.71-.42,1.4-.62,2.09s-.35,1.25-.51,1.87c-21.41-6.17-31.38-31.37-35.47-46.16-.58-2.09-1-4-1.4-5.57h.14l.49.09h.09a4.52,4.52,0,0,0,.53.06h.55a7.43,7.43,0,0,0,1.15-.09c6.41-1.07,5-13.5,4-27,0-.61-.09-1.22-.14-1.85-.18-2.49-.37-5.11-.49-7.76a97.5,97.5,0,0,1,0-11.34c0-.51.08-1,.13-1.51s.11-1.06.17-1.58v-.06c.07-.54.15-1.08.24-1.6a4.22,4.22,0,0,1,.14-.79l.15-.76c.11-.51.22-1,.35-1.5.06-.25.13-.49.2-.73s.1-.35.16-.52a14.49,14.49,0,0,1,.49-1.45A14.41,14.41,0,0,1,179,20.22c2.59-2,4.91-3.09,7-3.29,3.37-.32,6.16,1.69,8.62,6.09l.26.48.3.59c.38.75.75,1.56,1.11,2.44l.36.89c.1.24.19.49.29.74.19.5.38,1,.56,1.56,4.5,13,8.5,22.5,10.5,41S214,105.72,206.43,125.72Z"/><path class="cls-7" d="M179.66,60.44c.64,5.79,1.72,11.66.67,17.39s-4.87,11.43-10.57,12.62a10.55,10.55,0,0,1-2.38.22c-6.9-.11-12.78-6.89-15.24-13.72a44.16,44.16,0,0,1-2-7.65c4.44,7.3,10.21,14.47,15.82,15.8h.14l.49.09h.09a4.52,4.52,0,0,0,.53.06h.55a7.43,7.43,0,0,0,1.15-.09c6.41-1.07,5-13.5,4-27,0-.61-.09-1.22-.14-1.85-.18-2.49-.37-5.11-.49-7.76a97.5,97.5,0,0,1,0-11.34c0-.51.08-1,.13-1.51s.11-1.06.17-1.58v-.06c.07-.54.15-1.08.24-1.6a4.22,4.22,0,0,1,.14-.79l.15-.76c.11-.51.22-1,.35-1.5.06-.25.13-.49.2-.73s.1-.35.16-.52a14.49,14.49,0,0,1,.49-1.45A14.45,14.45,0,0,1,179,20.22c2.59-2,4.91-3.09,7-3.29-2.38,5.28-5.08,10-5.95,16.38A111.43,111.43,0,0,0,179.66,60.44Z"/><path class="cls-8" d="M166,98.72a5.91,5.91,0,0,0,1.89-1.9,18,18,0,0,0,1.32-2.34A39.9,39.9,0,0,0,171,89.39q.72-2.62,1.3-5.29c.39-1.79.73-3.58,1.15-5.38,0,.92-.07,1.84-.1,2.76s-.18,1.84-.29,2.75a42.12,42.12,0,0,1-1.1,5.43,26.28,26.28,0,0,1-2.09,5.17,13.6,13.6,0,0,1-1.63,2.29A5.41,5.41,0,0,1,166,98.72Z"/><path class="cls-15" d="M217.6,336s-1.31.44-3.74,1.11c-1.79.5-4.19,1.12-7.12,1.78l-1.1.25c-2.24.49-4.76,1-7.54,1.49-2,.36-4.06.71-6.27,1l-.84.12c-5.37.77-11.41,1.42-18,1.8h-.43c-5.47.3-11.32.41-17.45.24H155c-5.75-.16-11.75-.57-17.93-1.31l-.45-.05q-3-.36-6-.81l-1.79-.28c-3.62-.59-7.31-1.29-11-2.14L117,339q-4.91-1.11-9.9-2.56c-5-1.45.21-2.67.57-7.13.24-3,.55-6.88.9-11.29.23-3,.49-6.34.77-9.81s.58,5.37.87,1.5c.26-3.25.51-6.55.76-9.86.3-3.77.58-7.53.87-11.22.25-3.39.5-6.71.73-9.9.45-5.91.84-11.35,1.15-15.89.07-1.1.14-2.15.21-3.14,0,0,4.32.76,11.76,1.54l.76.07.57.06c3.92.39,8.62.77,13.93,1.06h.36c4.5.24,9.44.4,14.72.43h.08c4,0,8.13,0,12.45-.17h.33c4.5-.15,9.17-.41,14-.81l.7-.06c3.54-.3,7.15-.67,10.81-1.14l1-.13c4.58-.58,9.23-1.3,13.92-2.19l.23,2.19c.08.74.17,1.67.28,2.75.36,3.46.88,8.55,1.49,14.71.31,3,.63,6.3,1,9.77s.71,7.33,1.08,11.23c.31,3.19.62,6.46.92,9.78.35,3.7.69-5.29,1-1.53.29,3.28.58,6.55.85,9.79.33,3.81.63,7.58.92,11.23C217.23,330.92,217.42,333.48,217.6,336Z"/><path class="cls-16" d="M216.6,238.63c0,22.34-5.8,23-5.8,23l-1,.28c-.58.15-1.41.36-2.48.6h0c-9.5,2.14-37.8,7.09-79.4,1.81-3.26-.42-6.61-.89-10-1.44a12.62,12.62,0,0,1-4.13-1.44,12.33,12.33,0,0,1-6.16-8.37,79.09,79.09,0,0,1-1.3-17.1c.17-9.72,2-14.47,3.73-16.79s3.61-2.21,3.61-2.21-3.62,2.81,10.29,4.74c7.21,1,19.13,1.75,38.71,1.75,34,0,44.63-2.05,47.64-3.72,2.07-1.15.56-2.11.56-2.11s1.85-.42,3.46,3.22C215.5,223.67,216.6,228.91,216.6,238.63Z"/><path class="cls-7" d="M107.1,335s4.76-46.49,6.62-73.6a12.33,12.33,0,0,1-6.16-8.37,79.09,79.09,0,0,1-1.3-17.1c.17-9.72,2-14.47,3.73-16.79s3.61-2.21,3.61-2.21-3.62,2.81,10.29,4.74A141.47,141.47,0,0,0,127,260c.28,1.23.58,2.46.91,3.69v.66a476,476,0,0,0,1,75.61A184.18,184.18,0,0,1,107.1,335Z"/><path class="cls-17" d="M217.6,334.54s-1.31.44-3.74,1.11l-7.6-72a11.94,11.94,0,0,0,1-1.17h0a20.58,20.58,0,0,0,2.2-3.35c5.55-10.5,3.62-26.83.75-39.42,2.07-1.15.56-2.11.56-2.11s1.85-.42,3.46,3.22c1.24,2.82,2.34,8.06,2.34,17.78,0,22.34-5.8,23-5.8,23l-1,.28C211.23,276,215.42,304.57,217.6,334.54Z"/><path class="cls-18" d="M214.26,220.85c-2.16,2.28-8.92,4.54-25.6,5.65-34.64,2.31-76.7.85-78.67-7.32,1.82-2.38,3.61-2.21,3.61-2.21s-8.34,6.49,49,6.49,48.2-5.83,48.2-5.83S212.65,217.21,214.26,220.85Z"/><path class="cls-19" d="M294.75,202.22s-6.25,10.71-39.16,11.48h0c-9.75.22-6.26-.42-21.23-2.48-65.5-9-170.91-13-169.41,23,0,0-9.3-18.57-5.23-53.29a45,45,0,0,1,23.56-34.54h0a42.88,42.88,0,0,1,7.13-3c11.18-3.63,26.81-6.68,48.52-7.63,65-2.85,69.32,15.5,149.32,0,0,0,.5,20-24,39.5C264.25,175.22,270.75,192.22,294.75,202.22Z"/><path class="cls-20" d="M294.75,202.22s-6.25,10.71-39.16,11.48c29.79-3,32.16-12,32.16-12-17-6-27.44-26.5-27.44-26.5,20.57-15,22.44-35.5,22.44-35.5-24,5.5-29.32,8.5-95.82.5-65.69-7.9-102.76,5.83-103.65,6.16a42.88,42.88,0,0,1,7.13-3c11.18-3.63,26.81-6.68,48.52-7.63,65-2.85,69.32,15.5,149.32,0,0,0,.5,20-24,39.5C264.25,175.22,270.75,192.22,294.75,202.22Z"/><path class="cls-21" d="M210.8,217.63a44.76,44.76,0,0,0-7.27-1c-.15-2.82-.32-5.83-.5-8.92,11,1,21.59,2.22,31.31,3.56,15,2.06,11.48,2.7,21.23,2.48h0c32.91-.77,39.16-11.48,39.16-11.48-24-10-30.5-27-30.5-27,24.5-19.5,24-39.5,24-39.5-44.1,8.54-65.18,6.8-86.12,4q.33-1.44.72-2.88c.16-.62.33-1.24.51-1.87s.41-1.38.62-2.09c.15-.49.31-1,.47-1.49s.29-.9.45-1.35c.21-.64.43-1.28.66-1.93s.57-1.57.87-2.38c7-18.75,4-34.42,1.89-51.55a17.93,17.93,0,0,0,2.48-.7c14.2-5.31-2.29-23.39-7.1-28.53a14.59,14.59,0,0,0-1.43-1.3c-.5-1.54-1-3.06-1.54-4.58L208.78,36a3.77,3.77,0,0,0,1.17-.77h0l.06-.06h.05l13.12-12.7-.08-.23,4.08-1.84-.57-1.5-4.13,1.48,0-.16-3.83.13L205,20.82h0a3.2,3.2,0,0,0-1.65.2L200,22.31a6.23,6.23,0,0,0,1.3-3.41c3.33-3.54,3.06-8,1.12-12.18-3-6.5-24.5-4-34.5-6-7-1.4-12.54-.59-18.49,1.05h-.12c-2.51.69-5.09,1.54-7.89,2.42-9.5,3-23,8-23,8-5,.5-8,1.5-12,10.5L105.81,24c-.55,1.05-1.14,2.22-1.77,3.48-5.32,10.05-14.92,25.64-16.61,33.7A18.8,18.8,0,0,0,87,65.91L23.89,90.22C23,87.68,21.31,82.71,21.68,82c.5-1,63.5-24.5,64.25-25,.42-.28,1.07-2,1.34-3.51.23-1.14.22-2.1-.33-2-1.24.25-64.26,24-65.51,24.5s-4.5,5.75-5,7c-.38,1,2,6.37,3.13,8.92l-4.48,1.71-1.95.75A3.39,3.39,0,0,0,11,97.76a13.84,13.84,0,0,0,.21,1.88l-1.9.78-7.53,3.06a2.81,2.81,0,0,0-1.73,3,8.32,8.32,0,0,0,.59,2.17,5.19,5.19,0,0,0,.67,1.19,2.75,2.75,0,0,0,3.15.84L14,107.09a10.41,10.41,0,0,0,.7.94,3.35,3.35,0,0,0,3.76.91l75-28.73c.33.64.67,1.29,1,2,4.5,9.5,10.5,21,15.5,35.5a168.12,168.12,0,0,0,8.53,19.69,152.84,152.84,0,0,0-28,5.94,42.88,42.88,0,0,0-7.13,3h0a45,45,0,0,0-23.56,34.54c-4.15,34.77,5.2,53.34,5.2,53.34,4.71,14.37,19.9,26.49,48.2,35.17-1,12.31-2.27,26.84-3.43,39.1-.12-1.05-.24-1.78-.36-.26-.28,3.47-.54,6.77-.77,9.81-.35,4.41-.66,8.26-.9,11.29v.31l-.54,5.4h.11c-.07.9-.11,1.39-.11,1.39q5,1.45,9.9,2.56l.85.19c3.72.85,7.41,1.55,11,2.14l1.79.28q3,.47,6,.81l.45,0c6.18.74,12.18,1.15,17.93,1.31h.1c6.13.17,12,.06,17.45-.24h.43c6.58-.38,12.62-1,18-1.8l.84-.12c2.21-.32,4.3-.67,6.27-1,2.78-.49,5.3-1,7.54-1.49l1.1-.25c2.93-.66,5.33-1.28,7.12-1.78,2.43-.67,3.74-1.11,3.74-1.11,0-.45-.07-.92-.1-1.38h.1c-.46-6.3-1-12.54-1.6-18.59l-.42-4.81c12.12-2.62,29.84-7.12,40.85-12.92,18-9.5,15.05-29,15.05-29s-.13-3.15-3.08-7.7c-5-7.67-18-19.33-51.87-26.67-.24-7.34-1.2-11.58-2.27-14-1.61-3.64-3.46-3.22-3.46-3.22h0ZM166.7,85.23h-.09l-.49-.09H166c-.34-.09-.68-.19-1-.31l-.28-.11c-.25-.1-.5-.2-.74-.32l-.34-.17c-.23-.11-.45-.23-.68-.36l-.38-.24-.63-.4-.41-.29-.59-.44-.45-.36-.53-.45-.48-.43-.5-.46-.5-.48-.42-.43-.64-.68L157,78.7l-.57-.64-.5-.6c-.16-.2-.33-.4-.49-.61l-.54-.68-.44-.57-.56-.75c-.14-.18-.27-.37-.4-.55l-.57-.81c-.13-.17-.25-.35-.37-.53h0c1.49-3.57,4.87-10.72,9-12.94,3.61-2,7.55-3.52,11.38-3.29l.12,1.54c.58,7.88,1.3,15.4.53,20.5h0l-1.85,5A4.41,4.41,0,0,1,169,85.22a7.43,7.43,0,0,1-1.15.09h-.55A5.4,5.4,0,0,1,166.7,85.23Zm7.16-57c-.06.17-.11.35-.16.52s-.14.48-.2.73c-.13.49-.24,1-.35,1.5v.14A25.24,25.24,0,0,0,164,31a31.27,31.27,0,0,0-10.14,4.12,38.92,38.92,0,0,1,6.63-3.87,52.73,52.73,0,0,1,13.92-4.45,6.7,6.7,0,0,0-.53,1.42Z"/></g></g></g></svg>