<svg xmlns="http://www.w3.org/2000/svg" xmlns:xlink="http://www.w3.org/1999/xlink" viewBox="0 0 294.77 343.88"><defs><style>.cls-1{isolation:isolate;}.cls-2{fill:#7b3166;}.cls-3{fill:#4c1840;opacity:0.28;}.cls-4{fill:#db8686;}.cls-5{fill:#ba8e2d;}.cls-6{fill:#f89a98;}.cls-7{fill:#bc5e5e;opacity:0.25;}.cls-8{fill:#ba6060;}.cls-9{fill:#76829b;}.cls-10,.cls-15{fill:#fff;}.cls-10{opacity:0.51;}.cls-11{fill:#3c465f;}.cls-12,.cls-13,.cls-16{fill:#222a3a;}.cls-12{opacity:0.46;}.cls-13{opacity:0.4;}.cls-14{opacity:0.31;}.cls-16{opacity:0.72;}.cls-17{fill:#f0c052;}.cls-18{fill:#ffcd54;}.cls-19,.cls-20{fill:#fff983;}.cls-19{opacity:0.64;}.cls-21{fill:#a64588;}.cls-22{fill:#ff8ac2;opacity:0.71;}.cls-23{fill:#a23e00;opacity:0.9;mix-blend-mode:color;}.cls-24{fill:url(#linear-gradient);}</style><linearGradient id="linear-gradient" x1="164.56" y1="234.71" x2="164.56" y2="149.75" gradientTransform="translate(5.93 -5.38) rotate(1.91)" gradientUnits="userSpaceOnUse"><stop offset="0" stop-color="#a23e00" stop-opacity="0"/><stop offset="1" stop-color="#efa77a" stop-opacity="0.5"/></linearGradient></defs><title>hand</title><g class="cls-1"><g id="Layer_2" data-name="Layer 2"><g id="OBJECTS"><path class="cls-2" d="M256.45,298.22c-18,9.5-54,15.5-54,15.5s7.5-27.5-48-35.5-82.87-23.77-89.5-44c-9.5-29,66.48-34.5,66.48-34.5a15.33,15.33,0,0,0,2.82,8.17c7.84,11.16,32.42,16.89,79.25,26.33,36.19,7.29,49.8,19.42,54.92,27.31,2.95,4.55,3.08,7.7,3.08,7.7S274.45,288.72,256.45,298.22Z"/><path class="cls-3" d="M256.45,298.22c-18,9.5-54,15.5-54,15.5s7.5-27.5-48-35.5-82.87-23.77-89.5-44c-9.5-29,66.48-34.5,66.48-34.5a15.33,15.33,0,0,0,2.82,8.17c-14.9.18-37.46,3.38-49.3,19.6-18.67,25.56,59.14,43.23,88.57,40.43s32,17.91,64.1,11.56c15.52-3.07,25.07-10.79,30.8-18,2.95,4.55,3.08,7.7,3.08,7.7S274.45,288.72,256.45,298.22Z"/><path class="cls-4" d="M151.7,75s4.25-12,9.75-15,11.75-5,17.25-1.27,18,20,32.12,14.77S208.51,50.14,203.7,45,176,28.47,164,31,142.2,43.61,138.45,52.79,151.7,75,151.7,75Z"/><path class="cls-5" d="M113.61,217c8-5,90.41-1.67,97.21.66s3.79,16-46.54,18S105.61,222,113.61,217Z"/><path class="cls-6" d="M208,70.72c-2-18.5-6-28-10.5-41-.18-.54-.37-1.06-.56-1.56-.1-.25-.19-.5-.29-.74l-.36-.89-.16-.39c-.31-.73-.63-1.41-1-2.05l-.3-.59-.26-.48a17.2,17.2,0,0,0,6.76-4.12c3.33-3.54,3.06-8,1.12-12.18-3-6.5-24.5-4-34.5-6-7-1.4-12.54-.59-18.49,1.05l-.12,0c-2.51.69-5.09,1.54-7.89,2.42-9.5,3-23,8-23,8-5,.5-8,1.5-12,10.5s-17,29-19,38.5,2.5,11.5,7,21,10.5,21,15.5,35.5,13.5,28.5,13.5,30a196.58,196.58,0,0,1,1.5,31c-.5,19-1.5,56.5-1.5,56.5A105.32,105.32,0,0,0,141,239.86c33.62,5.92,63.49-4.64,63.49-4.64s-1.5-36-3.5-56c-1.61-16.08-1.92-28,1.92-42.39.16-.62.33-1.24.51-1.87s.41-1.38.62-2.09c.15-.49.31-1,.47-1.49s.29-.9.45-1.35c.21-.64.43-1.28.66-1.93s.57-1.57.87-2.38C214,105.72,210,89.22,208,70.72Zm-39,14.5a7.33,7.33,0,0,1-1.15.09l-.55,0a4.78,4.78,0,0,1-.53-.06h-.09l-.49-.09-.14,0c-2.58-.61-5.18-2.45-7.68-5a59.64,59.64,0,0,1-8.14-10.83c-4.42-7.31-7.5-14.74-7.73-16.58-.4-3.18,2.37-10.79,10.55-17a39.89,39.89,0,0,1,7.45-4.46,53.23,53.23,0,0,1,13.92-4.45c-.18.47-.35.95-.49,1.45-.06.17-.11.35-.16.52s-.14.48-.2.73c-.13.49-.24,1-.35,1.5l-.15.76c-.05.26-.1.52-.14.79-.09.52-.17,1.06-.24,1.6,0,0,0,0,0,.06-.06.52-.12,1-.17,1.58s-.09,1-.13,1.51c0,.11,0,.22,0,.33a101.11,101.11,0,0,0,0,11c.12,2.65.31,5.27.49,7.76.05.63.1,1.24.14,1.85C174,71.72,175.36,84.15,169,85.22Z"/><path class="cls-7" d="M201.33,18.9c0,2.42-2.08,4.88-5.25,7.24-6,4.51-16.05,8.66-23.77,11.46,0-.11,0-.22,0-.33,0-.51.08-1,.13-1.51s.11-1.06.17-1.58c0,0,0,0,0-.06.07-.54.15-1.08.24-1.6,0-.27.09-.53.14-.79l.15-.76c.11-.51.22-1,.35-1.5.06-.25.13-.49.2-.73s.1-.35.16-.52c.14-.5.31-1,.49-1.45a53.23,53.23,0,0,0-13.92,4.45A39.89,39.89,0,0,0,153,35.68c-8.18,6.25-10.95,13.86-10.55,17,.23,1.84,3.31,9.27,7.73,16.58a59.64,59.64,0,0,0,8.14,10.83c-1.13,2.92-2.68,3.92-4.79,1.55-8.92-10-14.58-25.46-13.06-36.4s17.64-23.73,36.05-22.55S201.33,18.9,201.33,18.9Z"/><path class="cls-7" d="M137.91,134.22c3.33,8.43,4.54,58.5,4,78-.16,6.22-.53,15.7-1,27.64a105.32,105.32,0,0,1-17.51-4.64s1-37.5,1.5-56.5a196.58,196.58,0,0,0-1.5-31c0-1.5-8.5-15.5-13.5-30s-11-26-15.5-35.5-9-11.5-7-21,15-29.5,19-38.5,7-10,12-10.5c0,0,13.5-5,23-8,2.8-.88,5.38-1.73,7.89-2.42C147.73,2.34,131,8.13,122,18.9c-9.5,11.32-14.74,42.8-12,48.82s4.83,18.5,12,31S135.14,127.22,137.91,134.22Z"/><path class="cls-8" d="M118.45,12.22a6.36,6.36,0,0,0-1.09,1.66c-.31.58-.59,1.19-.85,1.8-.53,1.22-1,2.46-1.48,3.71-1,2.49-1.84,5-2.71,7.52L107,42a59.39,59.39,0,0,0-2.67,15.6,34.85,34.85,0,0,0,.07,4,12.8,12.8,0,0,0,.79,3.81,6.68,6.68,0,0,0,.47.82c.2.26.4.53.62.77a10.84,10.84,0,0,0,1.43,1.36,11.05,11.05,0,0,0,3.46,1.91,10.46,10.46,0,0,1-3.62-1.7,10.74,10.74,0,0,1-1.54-1.32,8.18,8.18,0,0,1-.69-.75,7.82,7.82,0,0,1-.57-.88,13.07,13.07,0,0,1-1-4,36.27,36.27,0,0,1-.21-4,51.51,51.51,0,0,1,.69-8,57.63,57.63,0,0,1,1.79-7.86c.43-1.28.89-2.54,1.36-3.78l1.38-3.76c.92-2.5,1.8-5,2.78-7.51s1.93-5,3-7.43c.54-1.23,1.09-2.45,1.69-3.64A11.87,11.87,0,0,1,118.45,12.22Z"/><path class="cls-8" d="M105.83,24C105,26,104,27.9,103.19,29.85s-1.74,3.88-2.57,5.84c-1.68,3.9-3.35,7.81-4.77,11.81a46.89,46.89,0,0,0-3.1,12.22A20.53,20.53,0,0,0,93,66,10.48,10.48,0,0,0,96,71.47a10.35,10.35,0,0,1-3.41-5.37A21.1,21.1,0,0,1,92,59.67a44.71,44.71,0,0,1,2.93-12.52c1.52-4,3.18-7.93,5-11.78S103.69,27.72,105.83,24Z"/><polygon class="cls-9" points="223.2 22.47 209.97 35.24 206.79 26.1 205.7 22.96 204.95 20.82 218.62 20.35 222.45 20.22 223.12 22.22 223.2 22.47"/><polygon class="cls-10" points="223.12 22.22 206.79 26.1 205.7 22.96 218.62 20.35 222.45 20.22 223.12 22.22"/><polygon class="cls-11" points="221.2 20.84 226.63 18.89 227.2 20.39 222.02 22.73 221.2 20.84"/><path class="cls-9" d="M87.29,53.46C87,54.92,86.37,56.69,86,57c-.75.5-63.75,24-64.25,25s2.75,9.75,2.75,9.75l-1.64.58-2.61.92S16,84.22,16.45,83s3.75-6.5,5-7S85.72,51.72,87,51.47C87.51,51.36,87.52,52.32,87.29,53.46Z"/><path class="cls-12" d="M21.7,82c-.5,1,2.75,9.75,2.75,9.75l-1.64.58L19,82.48l1.5-2.26L87.29,53.46C87,54.92,86.37,56.69,86,57,85.2,57.47,22.2,81,21.7,82Z"/><path class="cls-9" d="M15.7,106.47,4.44,110.66a2.74,2.74,0,0,1-3.15-.84,5.4,5.4,0,0,1-.67-1.19A8.49,8.49,0,0,1,0,106.46a2.82,2.82,0,0,1,1.73-3l7.53-3.06,4.16-1.7C12.45,102,15.7,106.47,15.7,106.47Z"/><path class="cls-13" d="M15.7,106.47,4.44,110.66a2.74,2.74,0,0,1-3.15-.84,5.4,5.4,0,0,1-.67-1.19l9.79-3.85a41.25,41.25,0,0,1-1.12-4.36l4.16-1.7C12.45,102,15.7,106.47,15.7,106.47Z"/><path class="cls-11" d="M211,32.83A3.37,3.37,0,0,1,208.8,36L174.4,49.18l-4,1.52L164,53.18l-4,1.52-6.48,2.48-3.95,1.52L18.48,108.94a3.35,3.35,0,0,1-3.76-.91c-2.78-3.3-3.55-7.59-3.74-10.27a3.4,3.4,0,0,1,2.17-3.39l1.95-.75,129.16-49.8,3.65-1.41,6.79-2.62,3.65-1.4,6.79-2.62,3.65-1.41,34.52-13.31a3.4,3.4,0,0,1,3.87,1A17.22,17.22,0,0,1,211,32.51C211,32.62,211,32.73,211,32.83Z"/><path class="cls-9" d="M153.53,57.18l-3.95,1.52a72.65,72.65,0,0,0-5.32-14.88l3.65-1.41A59.26,59.26,0,0,1,153.53,57.18Z"/><path class="cls-9" d="M164,53.18l-4,1.52a73.16,73.16,0,0,0-5.31-14.91l3.65-1.4A59.05,59.05,0,0,1,164,53.18Z"/><path class="cls-9" d="M174.4,49.18l-4,1.52a73.43,73.43,0,0,0-5.31-14.93l3.65-1.41A59.26,59.26,0,0,1,174.4,49.18Z"/><g class="cls-14"><path class="cls-15" d="M49.77,85.38a1,1,0,0,1-.37-1.93L157.23,41.6a1,1,0,0,1,1.29.57,1,1,0,0,1-.57,1.29L50.13,85.32A1.13,1.13,0,0,1,49.77,85.38Z"/></g><path class="cls-16" d="M211,32.83A3.37,3.37,0,0,1,208.8,36L174.4,49.18l-4,1.52L164,53.18l-4,1.52-6.48,2.48-3.95,1.52L18.48,108.94a3.35,3.35,0,0,1-3.76-.91c-2.78-3.3-3.55-7.59-3.74-10.27a3.4,3.4,0,0,1,2.17-3.39l1.95-.75a13.67,13.67,0,0,0,2.85,7.6L211,32.51C211,32.62,211,32.73,211,32.83Z"/><path class="cls-6" d="M206.45,125.72c-.3.81-.59,1.6-.87,2.38s-.45,1.29-.66,1.93c-.16.45-.3.9-.45,1.35s-.32,1-.47,1.49c-.21.71-.42,1.4-.62,2.09s-.35,1.25-.51,1.87c-21.41-6.17-31.38-31.37-35.47-46.16-.58-2.09-1-4-1.4-5.57l.14,0,.49.09h.09a4.78,4.78,0,0,0,.53.06l.55,0a7.33,7.33,0,0,0,1.15-.09c6.41-1.07,5-13.5,4-27,0-.61-.09-1.22-.14-1.85-.18-2.49-.37-5.11-.49-7.76a99.73,99.73,0,0,1,0-11.34c0-.51.08-1,.13-1.51s.11-1.06.17-1.58c0,0,0,0,0-.06.07-.54.15-1.08.24-1.6,0-.27.09-.53.14-.79l.15-.76c.11-.51.22-1,.35-1.5.06-.25.13-.49.2-.73s.1-.35.16-.52c.14-.5.31-1,.49-1.45A14.54,14.54,0,0,1,179,20.22c2.59-2,4.91-3.09,7-3.29,3.37-.32,6.16,1.69,8.62,6.09l.26.48.3.59c.38.75.75,1.56,1.11,2.44l.36.89c.1.24.19.49.29.74.19.5.38,1,.56,1.56,4.5,13,8.5,22.5,10.5,41S214,105.72,206.45,125.72Z"/><path class="cls-7" d="M179.68,60.44c.64,5.79,1.72,11.66.67,17.39s-4.87,11.43-10.57,12.62a10.2,10.2,0,0,1-2.38.22c-6.9-.11-12.78-6.89-15.24-13.72a44.57,44.57,0,0,1-2-7.65c4.44,7.3,10.21,14.47,15.82,15.8l.14,0,.49.09h.09a4.78,4.78,0,0,0,.53.06l.55,0a7.33,7.33,0,0,0,1.15-.09c6.41-1.07,5-13.5,4-27,0-.61-.09-1.22-.14-1.85-.18-2.49-.37-5.11-.49-7.76a99.73,99.73,0,0,1,0-11.34c0-.51.08-1,.13-1.51s.11-1.06.17-1.58c0,0,0,0,0-.06.07-.54.15-1.08.24-1.6,0-.27.09-.53.14-.79l.15-.76c.11-.51.22-1,.35-1.5.06-.25.13-.49.2-.73s.1-.35.16-.52c.14-.5.31-1,.49-1.45A14.54,14.54,0,0,1,179,20.22c2.59-2,4.91-3.09,7-3.29-2.38,5.28-5.08,10-5.95,16.38A111.94,111.94,0,0,0,179.68,60.44Z"/><path class="cls-8" d="M166,98.72a5.82,5.82,0,0,0,1.89-1.9,17.35,17.35,0,0,0,1.32-2.34A38.05,38.05,0,0,0,171,89.39q.72-2.62,1.3-5.29c.39-1.79.73-3.58,1.15-5.38,0,.92-.07,1.84-.1,2.76s-.18,1.84-.29,2.75a40.49,40.49,0,0,1-1.1,5.43,26,26,0,0,1-2.09,5.17,13.21,13.21,0,0,1-1.63,2.29A5.37,5.37,0,0,1,166,98.72Z"/><path class="cls-17" d="M217.62,336s-1.31.44-3.74,1.11c-1.79.5-4.19,1.12-7.12,1.78l-1.1.25c-2.24.49-4.76,1-7.54,1.49-2,.36-4.06.71-6.27,1l-.84.12c-5.37.77-11.41,1.42-18,1.8l-.43,0c-5.47.3-11.32.41-17.45.24H155c-5.75-.16-11.75-.57-17.93-1.31l-.45-.05q-3-.35-6-.81l-1.79-.28c-3.62-.59-7.31-1.29-11-2.14L117,339q-4.9-1.11-9.9-2.56s.21-2.67.57-7.13c.24-3,.55-6.88.9-11.29.23-3,.49-6.34.77-9.81s.58,5.37.87,1.5c.26-3.25.51-6.55.76-9.86.3-3.77.58-7.53.87-11.22.25-3.39.5-6.71.73-9.9.45-5.91.84-11.35,1.15-15.89.07-1.1.14-2.15.21-3.14,0,0,4.32.76,11.76,1.54l.76.07.57.06c3.92.39,8.62.77,13.93,1.06l.36,0c4.5.24,9.44.4,14.72.43h.08c4,0,8.13,0,12.45-.17h.33c4.5-.15,9.17-.41,14-.81l.7-.06c3.54-.3,7.15-.67,10.81-1.14l1-.13c4.58-.58,9.23-1.3,13.92-2.19l.23,2.19c.08.74.17,1.67.28,2.75.36,3.46.88,8.55,1.49,14.71.31,3,.63,6.3,1,9.77s.71,7.33,1.08,11.23c.31,3.19.62,6.46.92,9.78.35,3.7.69-5.29,1-1.53.29,3.28.58,6.55.85,9.79.33,3.81.63,7.58.92,11.23C217.25,330.92,217.44,333.48,217.62,336Z"/><path class="cls-18" d="M216.62,238.63c0,22.34-5.8,23-5.8,23l-1,.28c-.58.15-1.41.36-2.48.6h0c-9.5,2.14-37.8,7.09-79.4,1.81-3.26-.42-6.61-.89-10-1.44a12.53,12.53,0,0,1-4.13-1.44,12.35,12.35,0,0,1-6.16-8.37,79.15,79.15,0,0,1-1.3-17.1c.17-9.72,2-14.47,3.73-16.79s3.61-2.21,3.61-2.21-3.62,2.81,10.29,4.74c7.21,1,19.13,1.75,38.71,1.75,34,0,44.63-2.05,47.64-3.72,2.07-1.15.56-2.11.56-2.11s1.85-.42,3.46,3.22C215.52,223.67,216.62,228.91,216.62,238.63Z"/><path class="cls-7" d="M107.12,335s4.76-46.49,6.62-73.6a12.35,12.35,0,0,1-6.16-8.37,79.15,79.15,0,0,1-1.3-17.1c.17-9.72,2-14.47,3.73-16.79s3.61-2.21,3.61-2.21-3.62,2.81,10.29,4.74A141.9,141.9,0,0,0,127,260c.28,1.23.58,2.46.91,3.69,0,0,0,.22,0,.66a476.36,476.36,0,0,0,1,75.61A183.08,183.08,0,0,1,107.12,335Z"/><path class="cls-19" d="M217.62,334.54s-1.31.44-3.74,1.11l-7.6-72c.36-.38.71-.77,1-1.17h0a20,20,0,0,0,2.2-3.35c5.55-10.5,3.62-26.83.75-39.42,2.07-1.15.56-2.11.56-2.11s1.85-.42,3.46,3.22c1.24,2.82,2.34,8.06,2.34,17.78,0,22.34-5.8,23-5.8,23l-1,.28C211.25,276,215.44,304.57,217.62,334.54Z"/><path class="cls-20" d="M214.28,220.85c-2.16,2.28-8.92,4.54-25.6,5.65-34.64,2.31-76.7.85-78.67-7.32,1.82-2.38,3.61-2.21,3.61-2.21s-8.34,6.49,49,6.49,48.2-5.83,48.2-5.83S212.67,217.21,214.28,220.85Z"/><path class="cls-21" d="M294.77,202.22s-6.25,10.71-39.16,11.48h0c-9.75.22-6.26-.42-21.23-2.48-65.5-9-170.91-13-169.41,23,0,0-9.3-18.57-5.23-53.29a45.05,45.05,0,0,1,23.56-34.54h0a43.76,43.76,0,0,1,7.13-3c11.18-3.63,26.81-6.68,48.52-7.63,65.05-2.85,69.32,15.5,149.32,0,0,0,.5,20-24,39.5C264.27,175.22,270.77,192.22,294.77,202.22Z"/><path class="cls-22" d="M294.77,202.22s-6.25,10.71-39.16,11.48c29.79-3,32.16-12,32.16-12-17-6-27.44-26.5-27.44-26.5,20.57-15,22.44-35.5,22.44-35.5-24,5.5-29.32,8.5-95.82.5-65.69-7.9-102.76,5.83-103.65,6.16a43.76,43.76,0,0,1,7.13-3c11.18-3.63,26.81-6.68,48.52-7.63,65.05-2.85,69.32,15.5,149.32,0,0,0,.5,20-24,39.5C264.27,175.22,270.77,192.22,294.77,202.22Z"/><path class="cls-23" d="M210.82,217.63a45.33,45.33,0,0,0-7.27-1c-.15-2.82-.32-5.83-.5-8.92,11,1,21.59,2.22,31.31,3.56,15,2.06,11.48,2.7,21.23,2.48h0c32.91-.77,39.16-11.48,39.16-11.48-24-10-30.5-27-30.5-27,24.5-19.5,24-39.5,24-39.5-44.1,8.54-65.18,6.8-86.12,4q.33-1.43.72-2.88c.16-.62.33-1.24.51-1.87s.41-1.38.62-2.09c.15-.49.31-1,.47-1.49s.29-.9.45-1.35c.21-.64.43-1.28.66-1.93s.57-1.57.87-2.38c7-18.75,4-34.42,1.89-51.55a16.79,16.79,0,0,0,2.48-.7C225,68.22,208.51,50.14,203.7,45a13.76,13.76,0,0,0-1.43-1.3c-.5-1.54-1-3.06-1.54-4.58L208.8,36a3.55,3.55,0,0,0,1.17-.77h0l.06-.06s0,0,.05,0L223.2,22.47l-.08-.23,4.08-1.84-.57-1.5-4.13,1.48-.05-.16-3.83.13L205,20.82v0a3.34,3.34,0,0,0-1.65.2L200,22.31a6.16,6.16,0,0,0,1.3-3.41c3.33-3.54,3.06-8,1.12-12.18-3-6.5-24.5-4-34.5-6-7-1.4-12.54-.59-18.49,1.05l-.12,0c-2.51.69-5.09,1.54-7.89,2.42-9.5,3-23,8-23,8-5,.5-8,1.5-12,10.5L105.83,24c-.55,1.05-1.14,2.22-1.77,3.48-5.32,10.05-14.92,25.64-16.61,33.7A19.26,19.26,0,0,0,87,65.91L23.91,90.22C23,87.68,21.33,82.71,21.7,82c.5-1,63.5-24.5,64.25-25,.42-.28,1.07-2,1.34-3.51.23-1.14.22-2.1-.33-2-1.24.25-64.26,24-65.51,24.5s-4.5,5.75-5,7c-.38,1,2,6.37,3.13,8.92L15.1,93.62l-1.95.75A3.4,3.4,0,0,0,11,97.76c0,.56.11,1.2.21,1.88l-1.9.78-7.53,3.06a2.82,2.82,0,0,0-1.73,3,8.49,8.49,0,0,0,.59,2.17,5.4,5.4,0,0,0,.67,1.19,2.74,2.74,0,0,0,3.15.84L14,107.09a10.41,10.41,0,0,0,.7.94,3.35,3.35,0,0,0,3.76.91l75-28.73c.33.64.67,1.29,1,2,4.5,9.5,10.5,21,15.5,35.5a168.34,168.34,0,0,0,8.53,19.69,152.77,152.77,0,0,0-28,5.94,43.76,43.76,0,0,0-7.13,3h0a45.05,45.05,0,0,0-23.56,34.54C55.65,215.65,65,234.22,65,234.22c4.71,14.37,19.9,26.49,48.2,35.17-1,12.31-2.27,26.84-3.43,39.1-.12-1.05-.24-1.78-.36-.26-.28,3.47-.54,6.77-.77,9.81-.35,4.41-.66,8.26-.9,11.29l0,.31-.54,5.4.11,0c-.07.9-.11,1.39-.11,1.39q5,1.46,9.9,2.56l.85.19c3.72.85,7.41,1.55,11,2.14l1.79.28q3,.47,6,.81l.45.05c6.18.74,12.18,1.15,17.93,1.31h.1c6.13.17,12,.06,17.45-.24l.43,0c6.58-.38,12.62-1,18-1.8l.84-.12c2.21-.32,4.3-.67,6.27-1,2.78-.49,5.3-1,7.54-1.49l1.1-.25c2.93-.66,5.33-1.28,7.12-1.78,2.43-.67,3.74-1.11,3.74-1.11,0-.45-.07-.92-.1-1.38l.1,0c-.46-6.3-1-12.54-1.6-18.59l-.42-4.81c12.12-2.62,29.84-7.12,40.85-12.92,18-9.5,15.05-29,15.05-29s-.13-3.15-3.08-7.7c-5-7.67-18-19.33-51.87-26.67-.24-7.34-1.2-11.58-2.27-14-1.61-3.64-3.46-3.22-3.46-3.22h0Zm-44.1-132.4h-.09l-.49-.09-.14,0a9.91,9.91,0,0,1-1-.31l-.28-.11c-.25-.1-.5-.2-.74-.32a3.59,3.59,0,0,1-.34-.17c-.23-.11-.45-.23-.68-.36l-.38-.24-.63-.4-.41-.29-.59-.44-.45-.36-.53-.45-.48-.43-.5-.46-.5-.48-.42-.43-.64-.68-.46-.51-.57-.64-.5-.6c-.16-.2-.33-.4-.49-.61l-.54-.68-.44-.57-.56-.75c-.14-.18-.27-.37-.4-.55l-.57-.81c-.13-.17-.25-.35-.37-.53h0c1.49-3.57,4.87-10.72,8.95-12.94,3.61-2,7.55-3.52,11.38-3.29l.12,1.54c.58,7.88,1.3,15.4.53,20.5h0l-1.85,5A4.37,4.37,0,0,1,169,85.22a7.33,7.33,0,0,1-1.15.09l-.55,0A4.78,4.78,0,0,1,166.72,85.23Zm7.16-57c-.06.17-.11.35-.16.52s-.14.48-.2.73c-.13.49-.24,1-.35,1.5l0,.14A25.46,25.46,0,0,0,164,31a31.58,31.58,0,0,0-10.14,4.12,39.24,39.24,0,0,1,6.63-3.87,53.23,53.23,0,0,1,13.92-4.45C174.19,27.24,174,27.72,173.88,28.22Z"/><path class="cls-24" d="M111.55,184.58c.22,1.24.48,2.67.76,4.29a13.21,13.21,0,0,1-1.87,1c-.76.37-1.62.73-2.56,1.09s-2,.69-3,1-2.17.56-3.29.76a21.4,21.4,0,0,1-7.81.06,15.77,15.77,0,0,1-6.17-2.61,15.56,15.56,0,0,1-4.37-4.82,19.73,19.73,0,0,1-2.37-6.59,18.77,18.77,0,0,1,.49-9.22,15.28,15.28,0,0,1,4.78-7.09,17.79,17.79,0,0,1,8.58-3.78,24,24,0,0,1,3.43-.37,28.21,28.21,0,0,1,3.21.06,25.66,25.66,0,0,1,2.85.37,20.25,20.25,0,0,1,2.3.54l.48,5.22a25.38,25.38,0,0,0-4.06-1.09,20.09,20.09,0,0,0-3.68-.36,18.4,18.4,0,0,0-3.3.26A13,13,0,0,0,91.4,165a10.81,10.81,0,0,0-3.26,3.09,11.08,11.08,0,0,0-1.74,4.34,15.16,15.16,0,0,0,.08,5.4,15.82,15.82,0,0,0,1.61,4.76,11.44,11.44,0,0,0,3,3.62,10.65,10.65,0,0,0,4.38,2,15,15,0,0,0,5.75,0,24.38,24.38,0,0,0,2.62-.61,21.7,21.7,0,0,0,2.46-.88l.32-.15c-.07-.37-.13-.72-.19-1.06-.22-1.25-.44-2.5-.67-3.75l-.69-3.9c-.2-1.14-.41-2.29-.62-3.46l5.15-.92c.2,1.17.41,2.33.61,3.46l.69,3.91C111.11,182.09,111.33,183.34,111.55,184.58Zm16-18.89a7.85,7.85,0,0,0-1.28,0,8.38,8.38,0,0,0-2.3.52,6.46,6.46,0,0,0-2.34,1.58,9.18,9.18,0,0,0-1.93,3.27l-.47,0-.5-4.59-4.27.57q.18,2.73.36,5.43c.12,1.81.24,3.58.36,5.32l.15,2.35q.19,2.88.36,5.28t.33,4.95l5-.33q-.17-2.56-.33-4.92c-.1-1.57-.21-3.26-.33-5.06l-.24-3.54a11.13,11.13,0,0,1,1.11-2.9,6.3,6.3,0,0,1,1.44-1.71,4.71,4.71,0,0,1,1.56-.82,6.57,6.57,0,0,1,1.45-.28q.84,0,1.5,0c.45,0,.94.06,1.5.12l.11-5A6.38,6.38,0,0,0,127.56,165.69Zm22.14,19.83c0,1.14,0,2.38,0,3.71l-4.54,0-.31-3.1h-.45a10.86,10.86,0,0,1-1.69,1.71,9.21,9.21,0,0,1-2.41,1.38,8.57,8.57,0,0,1-3.11.57,7.66,7.66,0,0,1-3.59-.77,6.1,6.1,0,0,1-2.5-2.33,8.31,8.31,0,0,1-.3-7,6.14,6.14,0,0,1,1.76-2.19,8.69,8.69,0,0,1,2.45-1.34,16.12,16.12,0,0,1,2.75-.71l6.93-1.14a5.1,5.1,0,0,0-.6-3,3.39,3.39,0,0,0-1.9-1.39,9.29,9.29,0,0,0-2.74-.35,13.59,13.59,0,0,0-1.73.13,15.48,15.48,0,0,0-1.95.41c-.68.19-1.39.41-2.14.68a23.61,23.61,0,0,0-2.28.95l-.32-4.47c.57-.24,1.22-.47,1.94-.7s1.5-.43,2.34-.62a25.88,25.88,0,0,1,2.59-.44,27.23,27.23,0,0,1,2.73-.16,12.41,12.41,0,0,1,4.76.77,6.25,6.25,0,0,1,3.06,2.6,9.12,9.12,0,0,1,1.1,4.66c0,.75,0,1.69,0,2.8s0,2.15,0,3.1l0,2.83Q149.69,183.8,149.7,185.52Zm-5-4,0-4.14a4.83,4.83,0,0,1-.9.41,17.07,17.07,0,0,1-1.66.44c-.73.16-1.77.36-3.1.61a5.88,5.88,0,0,0-2,.7,3.49,3.49,0,0,0-1.71,3.17,2.72,2.72,0,0,0,1.07,2.42,4.35,4.35,0,0,0,2.47.68,5.24,5.24,0,0,0,2.22-.53,7.1,7.1,0,0,0,2-1.46A9.13,9.13,0,0,0,144.68,181.54ZM175.2,172a16.37,16.37,0,0,1,1,6.27,17,17,0,0,1-1.25,6,10.34,10.34,0,0,1-3.37,4.43,8.52,8.52,0,0,1-5.51,1.56,9.61,9.61,0,0,1-2.78-.49,7.84,7.84,0,0,1-2.24-1.22,8.85,8.85,0,0,1-1.79-1.87h-.38l-.05,1.84c-.06,1.8-.11,3.49-.16,5.06s-.09,3.22-.15,4.93h-5c.05-1.7.1-3.39.15-5s.1-3.45.16-5.37l.34-11.38c.06-1.74.11-3.52.17-5.33s.1-3.63.16-5.44l4.52-.15L159,169h.47a7.7,7.7,0,0,1,1.79-1.71,8.34,8.34,0,0,1,2.45-1.14,9.47,9.47,0,0,1,3-.34,8.86,8.86,0,0,1,5.32,1.76A10,10,0,0,1,175.2,172Zm-4.2,6.16a10.69,10.69,0,0,0-.58-3.94,6.28,6.28,0,0,0-2-2.89,5.73,5.73,0,0,0-3.56-1.17,7.2,7.2,0,0,0-2.12.25,6.58,6.58,0,0,0-1.92.89,5.88,5.88,0,0,0-1.55,1.52l-.29,9.5a8.22,8.22,0,0,0,1.36,1.83,6,6,0,0,0,1.8,1.22,6.43,6.43,0,0,0,2.32.48,5.7,5.7,0,0,0,3.63-1,6.46,6.46,0,0,0,2.15-2.86A10.93,10.93,0,0,0,171,178.18Zm22.36-11.27a8.28,8.28,0,0,0-3.37.48,9.71,9.71,0,0,0-2.62,1.49,12.31,12.31,0,0,0-1.88,1.87l-.47,0,.18-3.48c.1-2.12.21-4.14.31-6.06s.19-3.82.29-5.69l-5.06.29c-.09,1.8-.19,3.63-.28,5.48s-.19,3.76-.29,5.72l-.66,12.95c-.1,1.93-.19,3.69-.27,5.29s-.17,3.25-.26,5l5,.26c.09-1.71.17-3.35.25-4.92s.17-3.27.26-5.07l.27-5.21a12.26,12.26,0,0,1,1.75-2,7.44,7.44,0,0,1,2.12-1.38,5.54,5.54,0,0,1,2.52-.42,3.57,3.57,0,0,1,3.13,1.45,6.91,6.91,0,0,1,.67,3.87l-.21,4.19c-.09,1.74-.18,3.41-.26,5s-.17,3.26-.25,5l5,.26c.08-1.71.17-3.37.25-5s.17-3.38.27-5.26c0-.92.09-1.79.13-2.62s.09-1.74.14-2.76q.21-4.08-1.43-6.29C197.55,167.83,195.79,167,193.36,166.91Zm11.58,4.63q-.12,1.65-.24,3.45c-.09,1.21-.18,2.53-.28,4l-.16,2.35q-.19,2.88-.36,5.28c-.11,1.6-.22,3.25-.34,4.95l5,.35c.12-1.71.23-3.36.34-4.95s.23-3.36.37-5.28l.16-2.35c.1-1.47.19-2.82.28-4s.16-2.38.24-3.5.15-2.23.23-3.38l-5-.18C205.09,169.34,205,170.45,204.94,171.54Zm3.49-14.38a3.6,3.6,0,0,0-2.54.66,3,3,0,0,0-1.09,2.33,3.09,3.09,0,0,0,.76,2.54,3.66,3.66,0,0,0,2.37.95,3.78,3.78,0,0,0,2.57-.61,3.71,3.71,0,0,0,.34-4.85A3.54,3.54,0,0,0,208.43,157.16Zm18.7,24a30.68,30.68,0,0,0-3.9-1.77,18.4,18.4,0,0,1-2.81-1.23,3.25,3.25,0,0,1-1.28-1.14,2.37,2.37,0,0,1-.26-1.4,2.42,2.42,0,0,1,.62-1.56,2.68,2.68,0,0,1,1.38-.73,5.56,5.56,0,0,1,1.74-.1,10.46,10.46,0,0,1,1.93.38,16.3,16.3,0,0,1,2.34.89,12.15,12.15,0,0,1,2.24,1.33l.78-4.51a15.16,15.16,0,0,0-2-1,19,19,0,0,0-2.61-.85,16.86,16.86,0,0,0-3-.5,8.62,8.62,0,0,0-6,1.38,6.58,6.58,0,0,0-2.63,5.09,6.38,6.38,0,0,0,.51,3.46,5.86,5.86,0,0,0,2.06,2.26,15.9,15.9,0,0,0,3.28,1.57c1.37.51,2.46.95,3.24,1.3a4.82,4.82,0,0,1,1.68,1.13,1.81,1.81,0,0,1,.42,1.4,2.71,2.71,0,0,1-.73,1.83,2.85,2.85,0,0,1-1.6.72,8.46,8.46,0,0,1-2.09,0,14.58,14.58,0,0,1-2.69-.47,15.6,15.6,0,0,1-2.53-.93,14.18,14.18,0,0,1-2.2-1.26l-.76,4.52a15.26,15.26,0,0,0,2.21,1.05,19.13,19.13,0,0,0,2.74.83,21.39,21.39,0,0,0,3,.47,12.63,12.63,0,0,0,5.33-.49,6.38,6.38,0,0,0,3.18-2.36,7.61,7.61,0,0,0,1.26-3.74,5.18,5.18,0,0,0-2.89-5.63Zm13.55-6,3.11.3,4.62.43.36-3.86-7.73-.73c.08-.76.14-1.48.21-2.14.1-1.06.19-2.09.29-3.11s.2-2.11.31-3.3l-5,.52c-.14,1.48-.28,2.92-.41,4.33-.1,1-.2,2.1-.31,3.23l-4.24-.4-.36,3.86,4.24.41-.12,1.19c-.11,1.23-.23,2.47-.35,3.71s-.23,2.49-.35,3.73-.23,2.48-.35,3.71a9.57,9.57,0,0,0,.46,4.44,5.4,5.4,0,0,0,2.35,2.72,9.57,9.57,0,0,0,4,1.19,13.29,13.29,0,0,0,2.09,0,11.59,11.59,0,0,0,1.89-.24,6,6,0,0,0,1.43-.49l.05-4.25a5.93,5.93,0,0,1-1.88.73,6.59,6.59,0,0,1-1.84.12,3.63,3.63,0,0,1-2.89-1.49,5.75,5.75,0,0,1-.62-3.69Z"/></g></g></g></svg>