<svg xmlns="http://www.w3.org/2000/svg" xmlns:xlink="http://www.w3.org/1999/xlink" viewBox="0 0 646.11 480.77"><defs><style>.cls-1,.cls-11,.cls-12,.cls-2,.cls-20,.cls-21,.cls-24,.cls-25{isolation:isolate;}.cls-2{fill-opacity:0.39;}.cls-2,.cls-24{opacity:0.7;}.cls-3{fill:url(#linear-gradient);}.cls-4{fill:#8b3dce;}.cls-5{fill:url(#linear-gradient-2);}.cls-6{fill:#291b2a;}.cls-7{fill:#101014;}.cls-8{fill:url(#linear-gradient-3);}.cls-9{fill:url(#linear-gradient-4);}.cls-10{fill:#412b42;}.cls-11{fill:#f3befb;}.cls-11,.cls-20{opacity:0.2;}.cls-12{fill:#cb89f0;}.cls-12,.cls-19{opacity:0.6;}.cls-13{fill:#ad852c;}.cls-14,.cls-25{opacity:0.3;}.cls-15{fill:#7b38d4;}.cls-16,.cls-21{fill:#8821d8;}.cls-17{fill:#6811bc;}.cls-18{fill:#fffff7;}.cls-20{fill:#de78ff;}.cls-21{opacity:0.8;}.cls-22{fill:#f68aff;}.cls-23,.cls-24,.cls-25{fill:#c460ea;}.cls-26{fill:#ffe1ff;}.cls-27{fill:#ae52d8;}.cls-28{fill:#ff3636;}.cls-29{fill:#843605;mix-blend-mode:hue;}</style><linearGradient id="linear-gradient" x1="187.5" y1="205.91" x2="422.2" y2="205.91" gradientTransform="translate(0 -114)" gradientUnits="userSpaceOnUse"><stop offset="0" stop-color="#8b3dce"/><stop offset="1" stop-color="#cb89f0"/></linearGradient><linearGradient id="linear-gradient-2" x1="183.69" y1="277.4" x2="189.14" y2="277.4" xlink:href="#linear-gradient"/><linearGradient id="linear-gradient-3" x1="402.45" y1="520.65" x2="418.76" y2="520.65" xlink:href="#linear-gradient"/><linearGradient id="linear-gradient-4" x1="240.5" y1="468.7" x2="605.45" y2="468.7" gradientTransform="translate(0 -114)" gradientUnits="userSpaceOnUse"><stop offset="0" stop-color="#f5abff"/><stop offset="0.46" stop-color="#ffc5ff"/><stop offset="1" stop-color="#ffdeff"/></linearGradient></defs><title>laptop</title><g class="cls-1"><g id="Layer_2" data-name="Layer 2"><g id="Layer_1-2" data-name="Layer 1"><path class="cls-2" d="M644.6,340,454.1,236,302.9,323.2l-72.1-71L0,382.4l6.7,3.9H231.8l162,93.5c2.2,1.3,15.3,1.3,17.5,0L644.7,345.1A3,3,0,0,0,644.6,340Z"/><path class="cls-3" d="M420.5,25.1a4.21,4.21,0,0,0-3,.6l-230,132.8,1.7.3L419.2,26a4.12,4.12,0,0,1,3-.6Z"/><path class="cls-4" d="M236.2,373.7,185.7,168.3l-1.7-.4,50.5,205.4a5.22,5.22,0,0,0,3.7,4.1l1.7.4A5.22,5.22,0,0,1,236.2,373.7Z"/><path class="cls-5" d="M189.1,158.8l-1.7-.3c-2.8,1.6-4.4,5.8-3.5,9.4l1.7.4C184.8,164.7,186.4,160.5,189.1,158.8Z"/><path class="cls-6" d="M476.4,235,425.9,29.6c-.9-3.6-3.9-5.1-6.7-3.6L189.1,158.8c-2.8,1.6-4.4,5.8-3.5,9.4l50.6,205.5c.9,3.6,3.9,5.1,6.7,3.6l230-132.8C475.7,242.8,477.3,238.6,476.4,235Z"/><path class="cls-7" d="M466.5,219.3l-46-187.1L190.7,164.7l46.1,187.1Z"/><path class="cls-8" d="M240.5,374.5v6.4a3.73,3.73,0,0,0,2.1,3l161.6,93.2a11.44,11.44,0,0,0,10.2,0L643,344.3a3.59,3.59,0,0,0,2.1-2.9V335Z"/><path class="cls-9" d="M642.9,332,481.3,238.7a11.44,11.44,0,0,0-10.2,0L242.6,371.6c-2.8,1.6-2.8,4.3,0,5.9l161.5,93.2a11.44,11.44,0,0,0,10.2,0L642.8,337.9C645.7,336.3,645.7,333.6,642.9,332Z"/><path class="cls-6" d="M456.1,267.1v-.7c-.1-.5.1-.9.7-1.3l10.7-6.2a4.24,4.24,0,0,1,3.8,0l9,5.2c.6.4.8.8.7,1.3v.7c.1.5-.1.9-.7,1.3l-10.7,6.2a4.23,4.23,0,0,1-3.8,0l-9-5.2C456.2,268,456,267.6,456.1,267.1Zm18-8.7,9,5.2a4.24,4.24,0,0,0,3.8,0l10.7-6.2c.6-.4.8-.8.7-1.3v-.8c.1-.5-.1-.9-.7-1.3l-9-5.2a4.24,4.24,0,0,0-3.8,0L474.1,255c-.6.4-.8.8-.7,1.3v.7A1.27,1.27,0,0,0,474.1,258.4Zm-34.5,19.9,9,5.2a4.24,4.24,0,0,0,3.8,0l10.7-6.2c.6-.4.8-.8.7-1.3v-.7c.1-.5-.1-.9-.7-1.3l-9-5.2a4,4,0,0,0-3.7,0L439.7,275c-.6.4-.8.8-.7,1.3v.8C438.7,277.5,439,278,439.6,278.3Zm-130,111.2,9,5.2a4.24,4.24,0,0,0,3.8,0l10.7-6.2c.6-.4.8-.8.7-1.3v-.8c.1-.5-.1-.9-.7-1.3l-9-5.2a4.23,4.23,0,0,0-3.8,0l-10.7,6.2c-.6.4-.8.8-.7,1.3v.7A1.27,1.27,0,0,0,309.6,389.5Zm37.7-58,9,5.2a4.24,4.24,0,0,0,3.8,0l10.7-6.2c.6-.4.8-.8.7-1.3v-.7c.1-.5-.1-.9-.7-1.3l-9-5.2a4.23,4.23,0,0,0-3.8,0l-10.7,6.2a1.15,1.15,0,0,0-.7,1.3v.8C346.5,330.7,346.7,331.1,347.3,331.5Zm34.6-20,9,5.2a4.24,4.24,0,0,0,3.8,0l10.7-6.2c.6-.4.8-.8.7-1.3v-.8c.1-.5-.1-.9-.7-1.3l-9-5.2a4.23,4.23,0,0,0-3.8,0l-10.7,6.2c-.6.4-.8.8-.7,1.3v.8C381,310.7,381.3,311.2,381.9,311.5Zm34.5-19.9,9,5.2a4,4,0,0,0,3.7,0l16.3-9.4c.6-.4.8-.8.7-1.3v-.8c.1-.5-.1-.9-.7-1.3l-9-5.2a4.24,4.24,0,0,0-3.8,0l-16.3,9.4c-.6.4-.8.8-.7,1.3v.7A1.51,1.51,0,0,0,416.4,291.6Zm-17.3,10,9,5.2a4.23,4.23,0,0,0,3.8,0l10.7-6.2c.6-.4.8-.8.7-1.3v-.8c.1-.5-.1-.9-.7-1.3l-9-5.2a4.23,4.23,0,0,0-3.8,0l-10.7,6.2c-.6.4-.8.8-.7,1.3v.8A1.27,1.27,0,0,0,399.1,301.6Zm-34.5,19.9,9,5.2a4,4,0,0,0,3.7,0l10.7-6.2c.6-.4.8-.8.7-1.3v-.8c.1-.5-.1-.9-.7-1.3l-9-5.2a4.23,4.23,0,0,0-3.8,0l-10.7,6.2c-.6.4-.8.8-.7,1.3v.8A1.37,1.37,0,0,0,364.6,321.5ZM438,297.4l9,5.2a4.24,4.24,0,0,0,3.8,0l10.7-6.2c.6-.4.8-.8.7-1.3v-.8c.1-.5-.1-.9-.7-1.3l-9-5.2a4.23,4.23,0,0,0-3.8,0L438,294c-.6.4-.8.8-.7,1.3v.8A1.28,1.28,0,0,0,438,297.4ZM299.9,377.2l9,5.2a4.23,4.23,0,0,0,3.8,0l10.7-6.2a1.15,1.15,0,0,0,.7-1.3v-.8c.1-.5-.1-.9-.7-1.3l-9-5.2a4.24,4.24,0,0,0-3.8,0l-10.7,6.2c-.6.4-.8.8-.7,1.3v.8A1.27,1.27,0,0,0,299.9,377.2Zm120.9-69.8,9,5.2a4.23,4.23,0,0,0,3.8,0l10.7-6.2c.6-.4.8-.8.7-1.3v-.8c.1-.5-.1-.9-.7-1.3l-9-5.2a4.24,4.24,0,0,0-3.8,0L420.8,304c-.6.4-.8.8-.7,1.3v.8C420,306.6,420.2,307,420.8,307.4Zm-17.3,10,9,5.2a4,4,0,0,0,3.7,0l10.7-6.2c.6-.4.8-.8.7-1.3v-.8c.1-.5-.1-.9-.7-1.3l-9-5.2a4.24,4.24,0,0,0-3.8,0L403.4,314a1.15,1.15,0,0,0-.7,1.3v.7A1.51,1.51,0,0,0,403.5,317.4Zm-17.3,9.9,9,5.2a4.23,4.23,0,0,0,3.8,0l10.7-6.2c.6-.4.8-.8.7-1.3v-.8c.1-.5-.1-.9-.7-1.3l-9-5.2a4.24,4.24,0,0,0-3.8,0l-10.7,6.2c-.6.4-.8.8-.7,1.3v.8C385.4,326.5,385.7,326.9,386.2,327.3Zm-69,39.9,9,5.2a4.24,4.24,0,0,0,3.8,0l10.7-6.2c.6-.4.8-.8.7-1.3v-.7c.1-.5-.1-.9-.7-1.3l-9-5.2a4.23,4.23,0,0,0-3.8,0l-10.7,6.2c-.6.4-.8.8-.7,1.3v.7C316.3,366.4,316.6,366.8,317.2,367.2Zm17.2-10,9,5.2a4.23,4.23,0,0,0,3.8,0l10.7-6.2c.6-.4.8-.8.7-1.3v-.7c.1-.5-.1-.9-.7-1.3-13.2-7.6-8.8-7.5-23.5,1-.6.4-.8.8-.7,1.3v.7A1.15,1.15,0,0,0,334.4,357.2Zm17.3-10,9,5.2a4.24,4.24,0,0,0,3.8,0l10.7-6.2c.6-.4.8-.8.7-1.3v-.8c.1-.5-.1-.9-.7-1.3l-9-5.2a4.24,4.24,0,0,0-3.8,0l-10.7,6.2a1.15,1.15,0,0,0-.7,1.3v.8A1.15,1.15,0,0,0,351.7,347.2Zm17.3-9.9c8.8,5.1,10.4,6.6,12.8,5.2l10.7-6.2c.6-.4.8-.8.7-1.3v-.8c.1-.5-.1-.9-.7-1.3l-9-5.2a4,4,0,0,0-3.7,0l-10.7,6.2c-.6.4-.8.8-.7,1.3v.8C368.1,336.4,368.4,336.9,369,337.3ZM338.2,403v-.7c.1-.5-.1-.9-.7-1.3l-9-5.2a4.24,4.24,0,0,0-3.8,0l-16.3,9.4c-.6.4-.8.8-.7,1.3v.8c-.1.5.1.9.7,1.3l9,5.2a4.23,4.23,0,0,0,3.8,0l16.3-9.4C338,403.9,338.3,403.5,338.2,403Zm-21.7-5.8v-.7c.1-.5-.1-.9-.7-1.3l-9-5.2a4.24,4.24,0,0,0-3.8,0l-10.7,6.2a1.15,1.15,0,0,0-.7,1.3v.7c-.1.5.1.9.7,1.3l9,5.2a4.23,4.23,0,0,0,3.8,0l10.7-6.2A1.27,1.27,0,0,0,316.5,397.2ZM330,341.5c13,7.5,8.5,7.6,23.5-1,.6-.4.8-.8.7-1.3v-.7c.1-.5-.1-.9-.7-1.3l-9-5.2a4.24,4.24,0,0,0-3.8,0L330,338.2c-.6.4-.8.8-.7,1.3v.7A1.45,1.45,0,0,0,330,341.5Zm181-38.1v-.8c.1-.5-.1-.9-.7-1.3l-9-5.2a4.23,4.23,0,0,0-3.8,0l-10.7,6.2c-.6.4-.8.8-.7,1.3v.8c-.1.5.1.9.7,1.3l9,5.2a4,4,0,0,0,3.7,0l10.7-6.2C510.9,304.3,511.1,303.8,511,303.4ZM306.8,384.9v-.8c.1-.5-.1-.9-.7-1.3l-9-5.2a4.23,4.23,0,0,0-3.8,0L277,387c-.6.4-.8.8-.7,1.3v.7c-.1.5.1.9.7,1.3l9,5.2a4.24,4.24,0,0,0,3.8,0l16.3-9.4A1.09,1.09,0,0,0,306.8,384.9Zm6-33.5,9,5.2a4.23,4.23,0,0,0,3.8,0l10.7-6.2a1.15,1.15,0,0,0,.7-1.3v-.7c.1-.5-.1-.9-.7-1.3l-9-5.2a4.23,4.23,0,0,0-3.8,0l-10.7,6.2c-.6.4-.8.8-.7,1.3v.7A1.15,1.15,0,0,0,312.8,351.4Zm-17.3,10,9,5.2a4.24,4.24,0,0,0,3.8,0l10.7-6.2c.6-.4.8-.8.7-1.3v-.8c.1-.5-.1-.9-.7-1.3l-9-5.2a4.24,4.24,0,0,0-3.8,0L295.5,358c-.6.4-.8.8-.7,1.3v.8A1.15,1.15,0,0,0,295.5,361.4Zm-10.4,17.7v-.8c.1-.5-.1-.9-.7-1.3l-9-5.2a4.23,4.23,0,0,0-3.8,0L260.9,378c-.6.4-.8.8-.7,1.3v.8c-.1.5.1.9.7,1.3l9,5.2a4.24,4.24,0,0,0,3.8,0l10.7-6.2C285,380,285.2,379.6,285.1,379.1Zm-6.9-7.8,9,5.2a4.23,4.23,0,0,0,3.8,0l10.7-6.2c.6-.4.8-.8.7-1.3v-.7c.1-.5-.1-.9-.7-1.3l-9-5.2a4.23,4.23,0,0,0-3.8,0L278.2,368c-.6.4-.8.8-.7,1.3v.7A1.15,1.15,0,0,0,278.2,371.3Zm283.1-79.5c.1-.5-.1-.9-.7-1.3l-9-5.2a4.23,4.23,0,0,0-3.8,0l-10.7,6.2c-.6.4-.8.8-.7,1.3v.8c-.1.5.1.9.7,1.3l9,5.2a4.23,4.23,0,0,0,3.8,0l10.7-6.2c.6-.4.8-.8.7-1.3v-.4A.3.3,0,0,0,561.3,291.8Zm-68.4,19.4-9-5.2a4.24,4.24,0,0,0-3.8,0l-10.7,6.2a1.15,1.15,0,0,0-.7,1.3v.8c-.1.5.1.9.7,1.3l9,5.2a4.23,4.23,0,0,0,3.8,0l10.7-6.2c.6-.4.8-.8.7-1.3v-.8A1.27,1.27,0,0,0,492.9,311.2Zm34.6-19.8-9-5.2a4.23,4.23,0,0,0-3.8,0L504,292.4c-.6.4-.8.8-.7,1.3v.8c-.1.5.1.9.7,1.3l9,5.2a4.23,4.23,0,0,0,3.8,0l10.7-6.2c.6-.4.8-.8.7-1.3v-.8C528.4,292.2,528.2,291.8,527.5,291.4Zm-69.2,39.8-9-5.2a4.24,4.24,0,0,0-3.8,0l-10.7,6.2c-.6.4-.8.8-.7,1.3v.7c-.1.5.1.9.7,1.3l9,5.2a4.24,4.24,0,0,0,3.8,0l10.7-6.2a1.15,1.15,0,0,0,.7-1.3v-.7C459.2,332,458.9,331.5,458.3,331.2Zm62.4-47.5v.8c-.1.5.1.9.7,1.3l9,5.2a4.23,4.23,0,0,0,3.8,0l10.7-6.2a1.15,1.15,0,0,0,.7-1.3v-.8c.1-.5-.1-.9-.7-1.3l-9-5.2a4.23,4.23,0,0,0-3.8,0l-10.7,6.2C520.8,282.8,520.5,283.2,520.7,283.7ZM389.3,371.1l-9-5.2a4.23,4.23,0,0,0-3.8,0l-10.7,6.2a1.15,1.15,0,0,0-.7,1.3v.8c-.1.5.1.9.7,1.3l9,5.2a4.24,4.24,0,0,0,3.8,0l10.7-6.2c.6-.4.8-.8.7-1.3v-.8A1.15,1.15,0,0,0,389.3,371.1Zm34.5-20-9-5.2a4.23,4.23,0,0,0-3.8,0l-10.7,6.2c-.6.4-.8.8-.7,1.3v.8c-.1.5.1.9.7,1.3l9,5.2a4.24,4.24,0,0,0,3.8,0l10.7-6.2c.6-.4.8-.8.7-1.3v-.8A1.27,1.27,0,0,0,423.8,351.1Zm-17.3,10-9-5.2a4,4,0,0,0-3.7,0l-10.7,6.2c-.6.4-.8.8-.7,1.3v.7c-.1.5.1.9.7,1.3l9,5.2a4.24,4.24,0,0,0,3.8,0l10.7-6.2c.6-.4.8-.8.7-1.3v-.8C407.4,361.9,407.1,361.5,406.5,361.1Zm-34.5,20-9-5.2a4.24,4.24,0,0,0-3.8,0l-10.7,6.2c-.6.4-.8.8-.7,1.3v.7c-.1.5.1.9.7,1.3l9,5.2a4.23,4.23,0,0,0,3.8,0l10.7-6.2c.6-.4.8-.8.7-1.3v-.7A1.15,1.15,0,0,0,372,381.1ZM354.7,391l-9-5.2a4.23,4.23,0,0,0-3.8,0L331.2,392c-.6.4-.8.8-.7,1.3v.7c-.1.5.1.9.7,1.3l9,5.2a4.23,4.23,0,0,0,3.8,0l10.7-6.2a1.15,1.15,0,0,0,.7-1.3v-.7A1.27,1.27,0,0,0,354.7,391Zm86.4-49.8-9-5.2a4,4,0,0,0-3.7,0l-10.7,6.2c-.6.4-.8.8-.7,1.3v.8c-.1.5.1.9.7,1.3l9,5.2a4,4,0,0,0,3.7,0l10.7-6.2a1.15,1.15,0,0,0,.7-1.3v-.7A1.22,1.22,0,0,0,441.1,341.2Zm34.5-20-9-5.2a4.23,4.23,0,0,0-3.8,0l-10.7,6.2c-.6.4-.8.8-.7,1.3v.7c-.1.5.1.9.7,1.3l9,5.2a4.23,4.23,0,0,0,3.8,0l10.7-6.2c.6-.4.8-.8.7-1.3v-.8C476.4,322,476.2,321.6,475.6,321.2Zm-93.9,72.1-9-5.2a4.24,4.24,0,0,0-3.8,0l-10.7,6.2c-.6.4-.8.8-.7,1.3v.7c-.1.5.1.9.7,1.3l9,5.2a4.24,4.24,0,0,0,3.8,0l10.7-6.2c.6-.4.8-.8.7-1.3v-.8C382.5,394.1,382.3,393.7,381.7,393.3Zm17.3-10-9-5.2a4.23,4.23,0,0,0-3.8,0l-10.7,6.2a1.15,1.15,0,0,0-.7,1.3v.8c-.1.5.1.9.7,1.3l9,5.2a4,4,0,0,0,3.7,0l10.7-6.2c.6-.4.8-.8.7-1.3v-.8C399.8,384.2,399.5,383.7,399,383.3Zm-34.6,20-9-5.2a4.23,4.23,0,0,0-3.8,0l-10.7,6.2c-.6.4-.8.8-.7,1.3v.7c-.1.5.1.9.7,1.3l9,5.2a4.23,4.23,0,0,0,3.8,0l10.7-6.2a1.15,1.15,0,0,0,.7-1.3v-.7A1.15,1.15,0,0,0,364.4,403.3Zm-17.3,10-9-5.2a4.24,4.24,0,0,0-3.8,0l-10.7,6.2c-.6.4-.8.8-.7,1.3v.8c-.1.5.1.9.7,1.3l9,5.2a4.24,4.24,0,0,0,3.8,0l10.7-6.2c.6-.4.8-.8.7-1.3v-.7A1.12,1.12,0,0,0,347.1,413.3Zm129.7-111-9-5.2a4,4,0,0,0-3.7,0l-16.3,9.4c-.6.4-.8.8-.7,1.3v.7c-.1.5.1.9.7,1.3l9,5.2a4.23,4.23,0,0,0,3.8,0l16.3-9.4c.6-.4.8-.8.7-1.3v-.8A1.34,1.34,0,0,0,476.8,302.3ZM508,320.4l-9-5.2a4.23,4.23,0,0,0-3.8,0l-16.3,9.4c-.6.4-.8.8-.7,1.3v.7c-.1.5.1.9.7,1.3l9,5.2a4.23,4.23,0,0,0,3.8,0l16.3-9.4c.6-.4.8-.8.7-1.3v-.8C508.8,321.2,508.6,320.8,508,320.4Zm35.4-19.9-9-5.2a4,4,0,0,0-3.7,0L520,301.5c-.6.4-.8.8-.7,1.3v.8c-.1.5.1.9.7,1.3l9,5.2a4.24,4.24,0,0,0,3.8,0l10.7-6.2c.6-.4.8-.8.7-1.3v-.8A1.7,1.7,0,0,0,543.4,300.5Zm-17.3,10-9-5.2a4,4,0,0,0-3.7,0l-10.7,6.2a1.15,1.15,0,0,0-.7,1.3v.7c-.1.5.1.9.7,1.3l9,5.2a4.23,4.23,0,0,0,3.8,0l10.7-6.2c.6-.4.8-.8.7-1.3v-.8A1.34,1.34,0,0,0,526.1,310.5Zm-40.5,23-9-5.2a4.24,4.24,0,0,0-3.8,0l-80,46.2c-.6.4-.8.8-.7,1.3v.7c-.1.5.1.9.7,1.3l9,5.2a4,4,0,0,0,3.7,0l80-46.2c.6-.4.8-.8.7-1.3v-.8Q486.5,334.1,485.6,333.5Zm-66.2,1.9-9-5.2a4.23,4.23,0,0,0-3.8,0l-10.7,6.2c-.6.4-.8.8-.7,1.3v.8c-.1.5.1.9.7,1.3l9,5.2a4.23,4.23,0,0,0,3.8,0l10.7-6.2c.6-.4.8-.8.7-1.3v-.8A1.15,1.15,0,0,0,419.4,335.4Zm-17.2,10-9-5.2a4,4,0,0,0-3.7,0l-10.7,6.2c-.6.4-.8.8-.7,1.3v.8c-.1.5.1.9.7,1.3l9,5.2a4.23,4.23,0,0,0,3.8,0l10.7-6.2c.6-.4.8-.8.7-1.3v-.8A1.56,1.56,0,0,0,402.2,345.4Zm34.5-20-9-5.2a4.24,4.24,0,0,0-3.8,0l-10.7,6.2c-.6.4-.8.8-.7,1.3v.8c-.1.5.1.9.7,1.3l9,5.2a4.23,4.23,0,0,0,3.8,0l10.7-6.2c.6-.4.8-.8.7-1.3v-.7A1.27,1.27,0,0,0,436.7,325.4Zm52.5-59.9v.7c-.1.5.1.9.7,1.3l9,5.2a4.23,4.23,0,0,0,3.8,0l10.7-6.2c.6-.4.8-.8.7-1.3v-.7c.1-.5-.1-.9-.7-1.3l-9-5.2a4.23,4.23,0,0,0-3.8,0l-10.7,6.2C489.3,264.6,489,265,489.2,265.5ZM454,315.4l-9-5.2a4,4,0,0,0-3.7,0l-10.7,6.2c-.6.4-.8.8-.7,1.3v.7c-.1.5.1.9.7,1.3l9,5.2a4.23,4.23,0,0,0,3.8,0l10.6-6.2a1.15,1.15,0,0,0,.7-1.3v-.7A1.27,1.27,0,0,0,454,315.4Zm-69.1,39.9-9-5.2a4.23,4.23,0,0,0-3.8,0l-10.7,6.2c-.6.4-.8.8-.7,1.3v.8c-.1.5.1.9.7,1.3l9,5.2a4.23,4.23,0,0,0,3.8,0l10.7-6.2a1.15,1.15,0,0,0,.7-1.3v-.8A1.15,1.15,0,0,0,384.9,355.3Zm-34.5,19.9-9-5.2a4.24,4.24,0,0,0-3.8,0l-10.7,6.2c-.6.4-.8.8-.7,1.3v.8c-.1.5.1.9.7,1.3l9,5.2a4.23,4.23,0,0,0,3.8,0l10.7-6.2c.6-.4.8-.8.7-1.3v-.8A1.45,1.45,0,0,0,350.4,375.2Zm17.2-9.9-9-5.2a4.23,4.23,0,0,0-3.8,0l-10.7,6.2c-.6.4-.8.8-.7,1.3v.8c-.1.5.1.9.7,1.3l9,5.2a4,4,0,0,0,3.7,0l10.7-6.2c.6-.4.8-.8.7-1.3v-.8A1,1,0,0,0,367.6,365.3Z"/><path class="cls-10" d="M284.4,378.8,273.7,385a4.23,4.23,0,0,1-3.8,0l-9-5.2c-1.1-.6-1.1-1.6,0-2.2l10.7-6.2a4.23,4.23,0,0,1,3.8,0l9,5.2C285.5,377.2,285.5,378.2,284.4,378.8Zm17.3-12.2-9-5.2a4.23,4.23,0,0,0-3.8,0l-10.7,6.2a1.18,1.18,0,0,0,0,2.2l9,5.2a4.23,4.23,0,0,0,3.8,0l10.7-6.2A1.18,1.18,0,0,0,301.7,366.6Zm17.3-9.9-9-5.2a4.24,4.24,0,0,0-3.8,0l-10.7,6.2a1.18,1.18,0,0,0,0,2.2l9,5.2a4.23,4.23,0,0,0,3.8,0l10.7-6.2A1.18,1.18,0,0,0,319,356.7Zm17.2-10-9-5.2a4.24,4.24,0,0,0-3.8,0l-10.7,6.2a1.18,1.18,0,0,0,0,2.2l9,5.2a4.24,4.24,0,0,0,3.8,0l10.7-6.2C337.3,348.3,337.3,347.3,336.2,346.7Zm17.3-10-9-5.2a4.24,4.24,0,0,0-3.8,0L330,337.7a1.18,1.18,0,0,0,0,2.2l9,5.2a4.23,4.23,0,0,0,3.8,0l10.7-6.2C354.6,338.3,354.6,337.3,353.5,336.7Zm17.3-9.9-9-5.2a4.23,4.23,0,0,0-3.8,0l-10.7,6.2c-1.1.6-1.1,1.6,0,2.2l9,5.2a4.24,4.24,0,0,0,3.8,0l10.7-6.2C371.8,328.3,371.8,327.3,370.8,326.8Zm17.2-10-9-5.2a4.23,4.23,0,0,0-3.8,0l-10.7,6.2c-1.1.6-1.1,1.6,0,2.2l9,5.2a4,4,0,0,0,3.7,0l10.7-6.2C389.1,318.4,389.1,317.4,388,316.8Zm17.3-10-9-5.2a4.24,4.24,0,0,0-3.8,0l-10.7,6.2c-1.1.6-1.1,1.6,0,2.2l9,5.2a4.24,4.24,0,0,0,3.8,0l10.7-6.2C406.4,308.4,406.4,307.4,405.3,306.8Zm17.3-10-9-5.2a4.23,4.23,0,0,0-3.8,0l-10.7,6.2a1.18,1.18,0,0,0,0,2.2l9,5.2a4.23,4.23,0,0,0,3.8,0l10.7-6.2A1.18,1.18,0,0,0,422.6,296.8Zm22.8-13.1-9-5.2a4.24,4.24,0,0,0-3.8,0l-16.3,9.4a1.18,1.18,0,0,0,0,2.2l9,5.2a4,4,0,0,0,3.7,0l16.3-9.4C446.4,285.2,446.4,284.2,445.4,283.7Zm64.9,17.2-9-5.2a4,4,0,0,0-3.7,0l-10.7,6.2a1.18,1.18,0,0,0,0,2.2l9,5.2a4,4,0,0,0,3.7,0l10.7-6.2A1.18,1.18,0,0,0,510.3,300.9Zm17.2-10-9-5.2a4.23,4.23,0,0,0-3.8,0L504,291.9a1.18,1.18,0,0,0,0,2.2l9,5.2a4.24,4.24,0,0,0,3.8,0l10.7-6.2C528.6,292.5,528.6,291.5,527.5,290.9Zm17.3-9.9-9-5.2a4.23,4.23,0,0,0-3.8,0L521.3,282a1.18,1.18,0,0,0,0,2.2l9,5.2a4.23,4.23,0,0,0,3.8,0l10.7-6.2C545.9,282.5,545.9,281.6,544.8,281Zm-18.7,29-9-5.2a4.23,4.23,0,0,0-3.8,0L502.6,311c-1.1.6-1.1,1.6,0,2.2l9,5.2a4.24,4.24,0,0,0,3.8,0l10.7-6.2A1.18,1.18,0,0,0,526.1,310Zm17.3-10-9-5.2a4.24,4.24,0,0,0-3.8,0L519.9,301c-1.1.6-1.1,1.6,0,2.2l9,5.2a4,4,0,0,0,3.7,0l10.7-6.2C544.4,301.6,544.4,300.6,543.4,300Zm17.2-9.9-9-5.2a4.23,4.23,0,0,0-3.8,0l-10.7,6.2a1.18,1.18,0,0,0,0,2.2l9,5.2a4.23,4.23,0,0,0,3.8,0l10.7-6.2C561.7,291.6,561.7,290.7,560.6,290.1ZM306.1,382.4l-9-5.2a4.23,4.23,0,0,0-3.8,0L277,386.6a1.18,1.18,0,0,0,0,2.2l9,5.2a4.23,4.23,0,0,0,3.8,0l16.3-9.4A1.18,1.18,0,0,0,306.1,382.4Zm17.2-10-9-5.2a4.23,4.23,0,0,0-3.8,0l-10.7,6.2a1.18,1.18,0,0,0,0,2.2l9,5.2a4.24,4.24,0,0,0,3.8,0l10.7-6.2C324.4,374,324.4,373,323.3,372.4Zm17.3-9.9-9-5.2a4.23,4.23,0,0,0-3.8,0l-10.7,6.2c-1.1.6-1.1,1.6,0,2.2l9,5.2a4.24,4.24,0,0,0,3.8,0l10.7-6.2C341.7,364,341.7,363,340.6,362.5Zm17.3-10-9-5.2a4.23,4.23,0,0,0-3.8,0l-10.7,6.2a1.18,1.18,0,0,0,0,2.2l9,5.2a4.23,4.23,0,0,0,3.8,0l10.7-6.2A1.18,1.18,0,0,0,357.9,352.5Zm17.2-10-9-5.2a4.24,4.24,0,0,0-3.8,0l-10.7,6.2c-1.1.6-1.1,1.6,0,2.2l9,5.2a4.23,4.23,0,0,0,3.8,0l10.7-6.2C376.2,344.1,376.2,343.2,375.1,342.5Zm17.3-10-9-5.2a4,4,0,0,0-3.7,0L369,333.5c-1.1.6-1.1,1.6,0,2.2l9,5.2a4.23,4.23,0,0,0,3.8,0l10.7-6.2C393.5,334.1,393.5,333.2,392.4,332.5Zm17.3-9.9-9-5.2a4.24,4.24,0,0,0-3.8,0l-10.7,6.2a1.18,1.18,0,0,0,0,2.2l9,5.2a4.23,4.23,0,0,0,3.8,0l10.7-6.2C410.7,324.1,410.7,323.2,409.7,322.6Zm17.3-10-9-5.2a4.23,4.23,0,0,0-3.8,0l-10.7,6.2c-1.1.6-1.1,1.6,0,2.2l9,5.2a4.24,4.24,0,0,0,3.8,0l10.7-6.3C428,314.2,428,313.2,427,312.6Zm17.2-9.9-9-5.2a4.23,4.23,0,0,0-3.8,0l-10.7,6.2c-1.1.6-1.1,1.6,0,2.2l9,5.2a4.24,4.24,0,0,0,3.8,0l10.7-6.2C445.3,304.2,445.3,303.3,444.2,302.7Zm17.3-10-9-5.2a4.23,4.23,0,0,0-3.8,0L438,293.7c-1.1.6-1.1,1.6,0,2.2l9,5.2a4.24,4.24,0,0,0,3.8,0l10.7-6.2A1.18,1.18,0,0,0,461.5,292.7Zm-145.7,102-9-5.2a4.24,4.24,0,0,0-3.8,0l-10.7,6.2a1.18,1.18,0,0,0,0,2.2l9,5.2a4.23,4.23,0,0,0,3.8,0l10.7-6.2C316.9,396.3,316.9,395.3,315.8,394.7Zm17.3-10-9-5.2a4.23,4.23,0,0,0-3.8,0l-10.7,6.2c-1.1.6-1.1,1.6,0,2.2l9,5.2a4.24,4.24,0,0,0,3.8,0l10.7-6.2A1.18,1.18,0,0,0,333.1,384.7Zm17.3-9.9-9-5.2a4.23,4.23,0,0,0-3.8,0l-10.7,6.2c-1.1.6-1.1,1.6,0,2.2l9,5.2a4.24,4.24,0,0,0,3.8,0l10.7-6.2C351.4,376.3,351.4,375.4,350.4,374.8Zm17.2-10-9-5.2a4.24,4.24,0,0,0-3.8,0l-10.7,6.2c-1.1.6-1.1,1.6,0,2.2l9,5.2a4.24,4.24,0,0,0,3.8,0l10.7-6.2C368.7,366.4,368.7,365.4,367.6,364.8Zm-20.5,48-9-5.2a4.24,4.24,0,0,0-3.8,0l-10.7,6.2c-1.1.6-1.1,1.6,0,2.2l9,5.2a4.24,4.24,0,0,0,3.8,0l10.7-6.2A1.18,1.18,0,0,0,347.1,412.8Zm17.3-10-9-5.2a4.24,4.24,0,0,0-3.8,0l-10.7,6.2a1.18,1.18,0,0,0,0,2.2l9,5.2a4.23,4.23,0,0,0,3.8,0l10.7-6.2A1.18,1.18,0,0,0,364.4,402.8Zm17.3-9.9-9-5.2a4.24,4.24,0,0,0-3.8,0l-10.7,6.2c-1.1.6-1.1,1.6,0,2.2l9,5.2a4.24,4.24,0,0,0,3.8,0l10.7-6.2C382.7,394.4,382.7,393.4,381.7,392.9Zm17.3-10-9-5.2a4.23,4.23,0,0,0-3.8,0l-10.7,6.2a1.18,1.18,0,0,0,0,2.2l9,5.2a4,4,0,0,0,3.7,0l10.7-6.2A1.21,1.21,0,0,0,399,382.9Zm109-63-9-5.2a4.23,4.23,0,0,0-3.8,0l-16.3,9.4a1.18,1.18,0,0,0,0,2.2l9,5.2a4.23,4.23,0,0,0,3.8,0l16.3-9.4A1.18,1.18,0,0,0,508,319.9ZM384.9,354.8l-9-5.2a4.23,4.23,0,0,0-3.8,0l-10.7,6.2a1.18,1.18,0,0,0,0,2.2l9,5.2a4.23,4.23,0,0,0,3.8,0l10.7-6.2C385.9,356.4,385.9,355.5,384.9,354.8Zm17.3-10-9-5.2a4,4,0,0,0-3.7,0l-10.7,6.2a1.18,1.18,0,0,0,0,2.2l9,5.2a4.23,4.23,0,0,0,3.8,0l10.7-6.2C403.2,346.4,403.2,345.5,402.2,344.8Zm17.2-9.9-9-5.2a4.24,4.24,0,0,0-3.8,0l-10.7,6.2a1.18,1.18,0,0,0,0,2.2l9,5.2a4.24,4.24,0,0,0,3.8,0l10.7-6.2C420.5,336.4,420.5,335.5,419.4,334.9Zm17.3-9.9-9-5.2a4.24,4.24,0,0,0-3.8,0L413.2,326a1.18,1.18,0,0,0,0,2.2l9,5.2a4.23,4.23,0,0,0,3.8,0l10.7-6.2C437.8,326.5,437.8,325.5,436.7,325ZM454,315l-9-5.2a4.23,4.23,0,0,0-3.8,0L430.5,316c-1.1.6-1.1,1.6,0,2.2l9,5.2a4.24,4.24,0,0,0,3.8,0l10.7-6.2A1.18,1.18,0,0,0,454,315Zm22.8-13.2-9-5.2a4,4,0,0,0-3.7,0L447.8,306c-1.1.6-1.1,1.6,0,2.2l9,5.2a4.23,4.23,0,0,0,3.8,0l16.3-9.4A1.21,1.21,0,0,0,476.8,301.8ZM337.5,400.5l-9-5.2a4.24,4.24,0,0,0-3.8,0l-16.3,9.4c-1.1.6-1.1,1.6,0,2.2l9,5.2a4.23,4.23,0,0,0,3.8,0l16.3-9.4A1.18,1.18,0,0,0,337.5,400.5Zm17.2-9.9-9-5.2a4,4,0,0,0-3.7,0l-10.7,6.2c-1.1.6-1.1,1.6,0,2.2l9,5.2a4.23,4.23,0,0,0,3.8,0l10.7-6.2C355.8,392.2,355.8,391.2,354.7,390.6Zm17.3-10-9-5.2a4.24,4.24,0,0,0-3.8,0l-10.7,6.2c-1.1.6-1.1,1.6,0,2.2l9,5.2a4.23,4.23,0,0,0,3.8,0l10.7-6.2A1.18,1.18,0,0,0,372,380.6Zm17.3-10-9-5.2a4.23,4.23,0,0,0-3.8,0l-10.7,6.2a1.18,1.18,0,0,0,0,2.2l9,5.2a4.24,4.24,0,0,0,3.8,0l10.7-6.2A1.18,1.18,0,0,0,389.3,370.6Zm17.2-9.9-9-5.2a4,4,0,0,0-3.7,0l-10.7,6.2c-1.1.6-1.1,1.6,0,2.2l9,5.2a4.24,4.24,0,0,0,3.8,0l10.7-6.2C407.6,362.2,407.6,361.2,406.5,360.7Zm79.1-27.6-9-5.2a4,4,0,0,0-3.7,0l-80,46.2a1.18,1.18,0,0,0,0,2.2l9,5.2a4,4,0,0,0,3.7,0l80-46.2C486.6,334.6,486.6,333.6,485.6,333.1Zm-61.8,17.6-9-5.2a4.23,4.23,0,0,0-3.8,0l-10.7,6.2c-1.1.6-1.1,1.6,0,2.2l9,5.2a4.24,4.24,0,0,0,3.8,0l10.7-6.2C424.9,352.3,424.9,351.3,423.8,350.7Zm17.3-10-9-5.2a4,4,0,0,0-3.7,0l-10.7,6.2a1.18,1.18,0,0,0,0,2.2l9,5.2a4.23,4.23,0,0,0,3.8,0l10.7-6.2A1.21,1.21,0,0,0,441.1,340.7Zm17.2-10-9-5.2a4.24,4.24,0,0,0-3.8,0l-10.7,6.2c-1.1.6-1.1,1.6,0,2.2l9,5.2a4.23,4.23,0,0,0,3.8,0l10.7-6.2C459.4,332.3,459.4,331.3,458.3,330.7Zm17.3-9.9-9-5.2a4.24,4.24,0,0,0-3.8,0l-10.7,6.2a1.18,1.18,0,0,0,0,2.2l9,5.2a4.23,4.23,0,0,0,3.8,0l10.7-6.2C476.7,322.3,476.7,321.3,475.6,320.8Zm17.3-10-9-5.2a4.24,4.24,0,0,0-3.8,0l-10.7,6.2c-1.1.6-1.1,1.6,0,2.2l9,5.2a4.23,4.23,0,0,0,3.8,0l10.7-6.2A1.18,1.18,0,0,0,492.9,310.8ZM463,273.6l-9-5.2a4,4,0,0,0-3.7,0l-10.7,6.2a1.18,1.18,0,0,0,0,2.2l9,5.2a4,4,0,0,0,3.7,0l10.7-6.2C464.1,275.2,464.1,274.2,463,273.6Zm17.3-10-9-5.2a4.23,4.23,0,0,0-3.8,0l-10.7,6.2a1.18,1.18,0,0,0,0,2.2l9,5.2a4.23,4.23,0,0,0,3.8,0l10.7-6.2A1.18,1.18,0,0,0,480.3,263.6Zm17.3-9.9-9-5.2a4.24,4.24,0,0,0-3.8,0l-10.7,6.2c-1.1.6-1.1,1.6,0,2.2l9,5.2a4.23,4.23,0,0,0,3.8,0l10.7-6.2C498.6,255.2,498.6,254.3,497.6,253.7Zm15.7,9.1-9-5.2a4.24,4.24,0,0,0-3.8,0l-10.7,6.2a1.18,1.18,0,0,0,0,2.2l9,5.2a4.23,4.23,0,0,0,3.8,0l10.7-6.2C514.4,264.3,514.4,263.4,513.3,262.8Z"/><path class="cls-11" d="M559.5,374l-79.4,45.7a7.42,7.42,0,0,1-6.5,0L421,389.4c-1.8-1-1.8-2.7,0-3.7l79.3-45.8a6.81,6.81,0,0,1,6.5,0l52.6,30.4C561.3,371.3,561.3,373,559.5,374Z"/><path class="cls-12" d="M421.1,386.6l79.3-45.8a7.42,7.42,0,0,1,6.5,0l52.6,30.4a2.85,2.85,0,0,1,1.3,1.4,2.1,2.1,0,0,0-1.3-2.3l-52.6-30.4a6.81,6.81,0,0,0-6.5,0l-79.3,45.8a2.1,2.1,0,0,0-1.3,2.3A2.85,2.85,0,0,1,421.1,386.6Z"/><path class="cls-12" d="M473.6,241.5,248.8,371.3l-.4.2,7.7,4.4L481,246.2l.4-.2ZM256.2,375.4l-6.7-3.9L473.7,242.1l6.7,3.9Z"/><path class="cls-6" d="M499,275.1l-11.8-6.8a4.9,4.9,0,0,0-4.7,0l-27.1,15.6a1.5,1.5,0,0,0-.9,1.5v.8a1.5,1.5,0,0,0,.9,1.5L479,301.3a4.9,4.9,0,0,0,4.7,0l45-26a1.5,1.5,0,0,0,.9-1.5V273a1.5,1.5,0,0,0-.9-1.5l-8.8-5.1a3.39,3.39,0,0,0-3.1,0L501.7,275A2.88,2.88,0,0,1,499,275.1Z"/><path class="cls-10" d="M528.6,271.2l-8.8-5.1a3.39,3.39,0,0,0-3.1,0l-15.1,8.6a3,3,0,0,1-2.6,0l-11.8-6.8a4.9,4.9,0,0,0-4.7,0l-27.1,15.6c-1.3.8-1.3,2,0,2.7L479,299.8a4.9,4.9,0,0,0,4.7,0l45-26C529.9,273.1,529.9,271.9,528.6,271.2Z"/><path class="cls-6" d="M357.4,448.9l9.3,5.3c1.1.6,1.9.2,1.9-.8a4.16,4.16,0,0,0-1.9-3.1l-9.3-5.3c-1.1-.6-1.9-.2-1.9.8A3.67,3.67,0,0,0,357.4,448.9Z"/><path class="cls-13" d="M365.6,453l1.3.8,4.6-2.6-1.3-.8Zm-2.9-1.6,1.3.8,4.6-2.6-1.3-.8Zm-2.8-1.7,1.3.8,4.6-2.6-1.3-.8Zm-2.8-1.6,1.3.8,4.6-2.6-1.3-.8Z"/><g class="cls-14"><path class="cls-15" d="M470.7,196.6,248.3,324.1,223.8,163,446.2,35.5Z"/><path class="cls-16" d="M228.8,170.3l4.1,26.8L448.1,73.7,444,46.8Z"/><path class="cls-16" d="M446.3,36,223.9,163.5l-1.5-10L444.8,26Z"/><path class="cls-17" d="M430,42.9l-5.7,3.2-.8-5.6,5.6-3.2Z"/><path class="cls-17" d="M436.9,38.9l-5.6,3.3-.9-5.6,5.7-3.2Z"/><path class="cls-18" d="M431.5,36.9l.6,3.8,3.9-2.2-.6-3.8Zm3.6,1.3-2.5,1.5-.4-2.5,2.5-1.5Z"/><path class="cls-17" d="M443.9,34.9l-5.7,3.2-.8-5.6,5.6-3.2Z"/><path class="cls-18" d="M438.6,33.4l1.8.6-1.3,2.3.5.2,1.3-2.4,1.8.6.4-.8-1.8-.6,1.3-2.3-.5-.2-1.3,2.4-1.8-.6Z"/><path class="cls-18" d="M428.8,42.6l-3.6,2.1-.1-.7,3.6-2Z"/><path class="cls-16" d="M228.8,170.3l22.4,147.4,150.2-86.2c0-.1,65.1-37.4,65.1-37.4L444.1,46.8Z"/></g><g class="cls-19"><path class="cls-15" d="M502.9,192.3,275,324.2,258.1,157.1l228-131.8Z"/><path class="cls-16" d="M262.8,164.7l2.8,27.8L486.2,64.9,483.3,37Z"/><path class="cls-16" d="M486.1,25.8,258.2,157.7l-1-10.3,227.9-132Z"/><path class="cls-17" d="M469.4,33l-5.8,3.3-.6-5.8,5.8-3.4Z"/><path class="cls-17" d="M476.6,28.8l-5.8,3.4-.6-5.8L476,23Z"/><path class="cls-18" d="M471.2,26.8l.4,4,4-2.3-.4-4Zm3.7,1.4-2.6,1.5-.3-2.6,2.6-1.5Z"/><path class="cls-17" d="M483.8,24.7,478,28.1l-.6-5.8,5.8-3.3Z"/><path class="cls-18" d="M478.5,23.1l1.7.6-1.3,2.4.5.2,1.4-2.4,1.7.7.5-.8-1.8-.6,1.4-2.4-.5-.2L480.7,23l-1.7-.6Z"/><path class="cls-18" d="M468.3,32.6l-3.7,2.2-.1-.7,3.7-2.2Z"/><path class="cls-16" d="M262.8,164.7l15.5,152.8,153.7-89c0-.1,66.8-38.8,66.8-38.8L483.3,37Z"/></g><path class="cls-20" d="M539.8,186.8,299.7,325.4V149L539.8,10.4Z"/><path class="cls-15" d="M539.8,186.8,299.7,325.4V149L539.8,10.4Z"/><path class="cls-21" d="M303.6,157.5V318.3L535.9,184.1V23.4Z"/><path class="cls-16" d="M539.8,11,299.7,149.6v-11L539.8,0Z"/><path class="cls-17" d="M522.4,18.5l-6.1,3.6V16l6.1-3.6Z"/><path class="cls-17" d="M530,14.2l-6.1,3.6V11.7L530,8.1Z"/><path class="cls-18" d="M524.9,12v4.2l4.2-2.4V9.6Zm3.4,1.5-2.7,1.6V12.4l2.7-1.6Z"/><path class="cls-17" d="M537.6,9.8l-6.1,3.6V7.2l6.1-3.6Z"/><path class="cls-18" d="M532.5,8.1l1.6.7-1.6,2.6.5.2L534.6,9l1.6.6.5-.8-1.6-.7,1.6-2.6-.5-.2-1.6,2.6L533,7.3Z"/><path class="cls-18" d="M521.4,18.2l-3.9,2.3v-.8l3.9-2.2Z"/><path class="cls-22" d="M520.6,87.7V147c5.2-3,54.7-31.6,94.6-54.7V33.1Z"/><path class="cls-23" d="M520.6,87.7V147l3.6-4.8v-53Z"/><path class="cls-24" d="M613,90.9l-88.8,51.3-3.6,4.8,94.6-54.7Z"/><path class="cls-25" d="M613,38.6V90.9l2.3,1.5V33.1Z"/><path class="cls-23" d="M613.1,90.7c-.1-.1-31.8-2.2-31.8-2.2l-.2.3,31.8,2.1,2.1,1.4C615.2,92.1,613.1,90.7,613.1,90.7Z"/><path class="cls-23" d="M561.7,99.7,524,142l-3.4,4.6v.3a.76.76,0,0,1,.4-.2l3.3-4.4,37.9-42.4Z"/><path class="cls-23" d="M615.2,33.1l-2.5,5.4-40.4,64.1-48-13.7-3.7-1.2,3.4,1.5L572.4,103l40.7-64.5Z"/><path class="cls-22" d="M531.5,217.5v33c2.9-1.7,30.5-17.6,52.7-30.4v-33Z"/><path class="cls-23" d="M531.5,217.5v33l2-2.7V218.3Z"/><path class="cls-24" d="M582.9,219.3l-49.5,28.5-2,2.7,52.7-30.4Z"/><path class="cls-25" d="M582.9,190.2l.1,29.1,1.2.8v-33Z"/><path class="cls-23" d="M583,219.2,565.3,218c-.1.2,17.6,1.4,17.6,1.4l1.2.8C584.1,220,583,219.2,583,219.2Z"/><path class="cls-23" d="M554.4,224.2l-21,23.5-1.9,2.6c.2.1,2-2.5,2-2.5l21.1-23.6Z"/><path class="cls-23" d="M584.1,187.1l-1.4,3-22.5,35.7-26.7-7.6-2-.7,1.9.9,27,7.6L583,190.1Z"/><path class="cls-22" d="M372.5,86.9v48.4c4.3-2.4,44.7-25.8,77.3-44.6V42.3Z"/><path class="cls-23" d="M372.5,86.9v48.4l2.9-4V88.1Z"/><path class="cls-24" d="M448,89.5l-72.6,41.9-2.9,4,77.3-44.7Z"/><path class="cls-25" d="M448,46.8V89.5l1.9,1.2V42.2Z"/><path class="cls-23" d="M448.1,89.3l-26-1.8-.1.3,26,1.8,1.8,1.1A10.48,10.48,0,0,0,448.1,89.3Z"/><path class="cls-23" d="M406.1,96.7l-30.8,34.5-2.8,3.8c.1.2.2.1.4.1l2.7-3.6,30.9-34.6Z"/><path class="cls-23" d="M449.8,42.2l-2.1,4.4L414.7,99,375.5,87.9l-3-1,2.7,1.2,39.6,11.3,33.3-52.7Z"/><path class="cls-22" d="M249,224v58.3c5.1-3,53.9-31.1,93.2-53.8V170.2Z"/><path class="cls-23" d="M249,224v58.4l3.5-4.8V225.5Z"/><path class="cls-24" d="M339.9,227.1l-87.4,50.5-3.5,4.8,93.2-53.8Z"/><path class="cls-25" d="M339.9,175.7v51.4l2.3,1.5V170.2Z"/><path class="cls-23" d="M340.1,227c-.1-.1-31.3-2.1-31.3-2.1l-.2.3,31.3,2.1,2.1,1.3C342.2,228.4,340.1,227,340.1,227Z"/><path class="cls-23" d="M289.5,235.9l-37.2,41.6-3.4,4.5v.3a.52.52,0,0,1,.4-.2l3.3-4.4,37.2-41.8Z"/><path class="cls-23" d="M342.2,170.2l-2.5,5.4-39.8,63.1-47.3-13.5L249,224l3.3,1.5L300,239.1l40.1-63.5Z"/><path class="cls-22" d="M287.5,74.4v36.7c3.2-1.9,33.9-19.5,58.6-33.8V40.5Z"/><path class="cls-23" d="M287.5,74.4v36.7l2.2-3V75.3Z"/><path class="cls-24" d="M344.6,76.3l-55,31.7-2.2,3L346,77.3Z"/><path class="cls-25" d="M344.6,44V76.4l1.4.9V40.5Z"/><path class="cls-23" d="M344.8,76.2l-19.7-1.3c-.1.2,19.6,1.5,19.6,1.5l1.3.9C346,77.1,344.8,76.2,344.8,76.2Z"/><path class="cls-23" d="M312.9,81.8,289.6,108l-2.1,2.9c.1.2.2.1.2.1l2-2.7,23.5-26.2Z"/><path class="cls-23" d="M346,40.5l-1.5,3.4L319.4,83.6l-29.7-8.5-2.3-.8,2,.9,30,8.6,25.2-40Z"/><path class="cls-22" d="M375.4,221.4v80.8c7.1-4.1,74.6-43.1,129-74.5V147Z"/><path class="cls-23" d="M375.4,221.4l4.9,2,65.8-1.1,55.3-67.8,3.1-7.6-63-20.7Z"/><path class="cls-23" d="M375.4,221.4v80.8l4.9-6.6V223.4Z"/><path class="cls-24" d="M501.4,225.7,380.3,295.6l-4.9,6.6,129.1-74.5Z"/><path class="cls-25" d="M501.3,154.5l.1,71.2,3.1,2V146.9Z"/><path class="cls-23" d="M501.6,225.5c-.1-.1-55-3.7-55-3.7l-.4.5,55.2,3.7,2.9,1.9c.1-.1.2-.1.2-.2v-.3Z"/><path class="cls-23" d="M380.1,295.4l-4.7,6.3v.4a6.13,6.13,0,0,0,.6-.4l4.5-6.1,65.6-73.5h-.7Z"/><path class="cls-26" d="M491.8,197.8l-102.3,59v-114L491.8,83.7Z"/><path class="cls-27" d="M443.8,129.6l15.6-9v1.2l-15.6,9Zm-2.3,6v1.2l12.9-7.5v-1.2Zm-1.2,1.9v-1.2l-15.5,8.9v1.2Zm-4.6-2.1,6.9-4v-1.2l-6.9,4Zm-1.2.7v-1.2l-8.6,5v1.2Zm21-16.8,6.9-4v-1.2l-6.9,4Zm5.1.6v1.2l14.4-8.3v-1.2Zm9.1-.6-14.2,8.2v1.2l14.2-8.2Zm-46.1,27.9V146l-22.1,12.7v1.2Zm1.1-10.1,15.5-8.9V127l-15.5,8.9Zm16.7-9.6,12.9-7.5v-1.2l-12.9,7.5Zm-17.9,10.3v-1.1l-21.9,12.7v1.2Zm40.1-23.1,9.8-5.7v-1.2l-9.8,5.7Zm-38.9,25.9L401.5,154v1.2l23.2-13.4Zm16.8,2.6v1.2l12.9-7.5v-1.2Zm-1.2,1.9v-1.2l-15.5,8.9V154Zm0,3.4v1.2l8.6-5v-1.2Zm9.8-5.7V144l6.9-4v-1.2Zm.5,4.5v1.2l12.9-7.5v-1.2Zm-15.5,13.6v1.2l8.6-5v-1.2ZM449.4,148l-15.5,8.9v1.2l15.5-8.9Zm2.4,3.2-6.9,4v1.2l6.9-4Zm22-22-15.6,9v1.2l15.6-9Zm-41.1,29.6v-1.2l-31.2,18v1.2Zm-14.6,3.7v-1.2l-16.6,9.6v1.2Zm51.6-35.6-14.2,8.2v1.2l14.2-8.2Zm-46.1,27.8v-1.2l-22.1,12.7v1.2Zm29.4-4.2v1.2l15.6-9v-1.2Zm11.7-11.4v1.2l6.9-4v-1.2Zm-51.8,35.8v-1.2l-11.2,6.5v1.2Zm21-13.3L414.1,173v1.2l19.8-11.4ZM471,126.2v1.2l8.3-4.8v-1.2Zm-31.8,24.2v-1.2l-19.8,11.4v1.2Zm33.6-16v1.2l4.3-2.5v-1.2Zm1.7,3.8-4.7,2.7v1.2l4.7-2.7Zm-39.4,29.7v1.2l8.6-5v-1.2Zm-2.3,7.2v-1.2l-15.3,8.8v1.2Zm19-16.9-6.9,4v1.2l6.9-4Zm-15.6,18.5v1.2l15.3-8.8v-1.2ZM453,157.5v1.2l15.6-9v-1.2Zm11.8-.9,9-5.2v-1.2l-9,5.2Zm-12.2,10.6v1.2l6.7-3.9v-1.2Zm-39.7,14.7v-1.2l-11.2,6.5v1.2Zm21-13.3L414.1,180v1.2l19.8-11.4Zm.1,4.6v1.2l15.5-8.9v-1.2Zm29.6-17.1-12.9,7.5v1.2l12.9-7.5Zm-8.5,14.3-8.6,5v1.2l8.6-5Zm19.4-25.2-4.7,2.7v1.2l4.7-2.7Zm-18.1,25.6,7.8-4.5v-1.2l-7.8,4.5Zm4.1-7,10-5.8v-1.2l-10,5.8ZM445.3,176l-19.8,11.4v1.2l19.8-11.4Zm-26.1,15.1-17.6,10.1v1.2l17.6-10.1Zm-5-1.8-12.5,7.2v1.2l12.5-7.2Zm10.1,0v-1.2l-4,2.3v1.2Zm-8-4.7v-1.2l-14.6,8.5v1.2Zm18.7-6.1v-1.2l-19.5,11.3v1.2Zm8.8,14,15.6-9v1.2l-15.6,9Zm-3.5,7.9v-1.2l-15.5,8.9v1.2Zm-4.6-2,6.9-4v-1.2l-6.9,4Zm-1.2.7v-1.2l-8.6,5v1.2Zm21-16.8,6.9-4v-1.2l-6.9,4Zm5.1.5V184l14.4-8.3v-1.2Zm-37,27.2v-1.2l-22.1,12.7v1.2Zm1.1-10,15.5-8.9v-1.2l-15.5,8.9Zm16.7-9.6,12.9-7.5v-1.2l-12.9,7.5Zm-17.9,10.3v-1.2l-21.9,12.7v1.2Zm40.1-23.1,9.8-5.7v-1.2l-9.8,5.7Zm-38.9,26L401.5,217v1.2l23.2-13.4Zm-23,5,7.2-4.2v-1.2l-7.2,4.2Zm64.1-38.2v1.2l8.6-5v-1.2ZM449,181.3l15.6-9v-1.2l-15.6,9Zm-8.1,4.7,6.9-4v-1.2l-6.9,4Zm-9.8,5.7,8.6-5v-1.2l-8.6,5Zm-20.9,12L430,192.3v-1.2l-19.8,11.4Zm40.4-3.2v1.2l12.9-7.5V193Zm-15.5,13.6v1.2l8.6-5v-1.2Zm14.3-12.9-15.5,8.9v1.2l15.5-8.9Zm-16.6,20V220l-15.3,8.8V230Zm19-16.8-6.9,4v1.2l6.9-4ZM432.7,212v-1.2l-31.2,18V230Zm3.5,10.8V224l15.3-8.8V214ZM453,203.7v1.2l15.6-9v-1.2Zm11.7-11.4v1.2l6.9-4v-1.2Zm.1,10.5,9-5.2v-1.2l-9,5.2Zm-12.2,10.5v1.2l6.7-3.8v-1.2Zm-39.7,14.8v-1.2l-11.2,6.5v1.2Zm21-13.3-19.8,11.4v1.2L433.9,216Zm.1,4.6v1.2l15.5-8.9v-1.2Zm29.6-17.1-12.9,7.5V211l12.9-7.5Zm9.2-14.7v1.2l5.8-3.4v-1.2Zm1.7,3.8-4.7,2.7v1.2l4.7-2.7Zm-60.3,44.1-12.5,7.2v1.2l12.5-7.2Zm2.1-4.8v-1.2L401.7,238v1.2Zm18.7-6v-1.2l-19.5,11.3V236Z"/><path class="cls-28" d="M489.2,75.8c-6.8,3.9-12.3,13.5-12.3,21.3s5.5,11,12.3,7.1,12.3-13.5,12.3-21.4C501.5,75.1,496,71.8,489.2,75.8Z"/><path class="cls-26" d="M490.6,93.4l-1.1.6c-.5.3-.9.1-.9-.4l-.8-10.4a4.14,4.14,0,0,1,2.1-3.4l.4-.2c1.2-.7,2.2-.2,2.1,1.1L491.6,92A2.31,2.31,0,0,1,490.6,93.4Zm-.6,6.1a4.22,4.22,0,0,0,2.1-3.3c0-1.2-.9-1.6-2.1-.9a4.22,4.22,0,0,0-2.1,3.3C487.9,99.8,488.9,100.2,490,99.5Z"/><path class="cls-29" d="M644.7,335.2a3.47,3.47,0,0,0-2.1-2.9L483.1,240.2,504.2,228h0V207.5l35.3-20.4V136.2L615,92.5V33.3L539.6,76.8V.3L486.4,31l-.5-4.9h0l-1-10.4L446.4,38l-.3-1.7h0l-1.5-10-17.3,9.9-1.6-6.4c-.9-3.6-3.9-5.1-6.7-3.6L345.8,68.4h0l73.1-42.2a4.12,4.12,0,0,1,3-.6l-1.8-.3a4.21,4.21,0,0,0-3,.6L345.7,67.1V40.7h-.1L287,74.5v26.4L187,158.6l1.7.3L287,102.1h0l-98.3,56.7c-2.8,1.6-4.4,5.8-3.5,9.4l50.5,205.4L185.2,168.2l-1.7-.3L234,373.3a5.22,5.22,0,0,0,3.7,4.1l1.5.3a2.2,2.2,0,0,0,.8.1v3a3.73,3.73,0,0,0,2.1,3L403.7,477a11.44,11.44,0,0,0,10.2,0L642.5,344.2a3.59,3.59,0,0,0,2.1-2.9l.1-6.1ZM236.3,375.1a1.69,1.69,0,0,1-.2-.5C236.2,374.7,236.2,374.9,236.3,375.1Zm.3.6c-.1-.2-.2-.3-.3-.5A2.19,2.19,0,0,1,236.6,375.7Zm0,0a4.44,4.44,0,0,0,.8,1.1A10.47,10.47,0,0,1,236.6,375.7Zm1.2,1.4.1.1A.1.1,0,0,0,237.8,377.1ZM531.2,217.7l52.7-30.4v33c-12.3,7.1-26.2,15.1-36.7,21.2l-16,9.2Z"/></g></g></g></svg>