<svg xmlns="http://www.w3.org/2000/svg" viewBox="0 0 378.6 285.68"><defs><style>.cls-1,.cls-3{isolation:isolate;}.cls-2{fill:#c858f0;}.cls-3{fill:#aa22d6;opacity:0.9;}.cls-4{fill:#ffe2d7;}.cls-5{fill:#ef9ced;}.cls-6{fill:#ffbbfa;}.cls-7{fill:#de78ff;}.cls-8{fill:#aa32b7;}.cls-9{fill:#843605;mix-blend-mode:hue;}</style></defs><title>target</title><g class="cls-1"><g id="Layer_2" data-name="Layer 2"><g id="Layer_1-2" data-name="Layer 1"><path class="cls-2" d="M173.8,6.88c-18.51-10.76-44.12-9.25-72.37,7C45.35,46.25-.17,125,.05,189.39c.11,32,11.42,54.51,29.71,65.11l20,11.63,144-247.62Z"/><path class="cls-3" d="M2,165a150.44,150.44,0,0,0-2,24.44c.11,32,11.42,54.51,29.71,65.11l20,11.63L81.84,211Z"/><path class="cls-4" d="M189.77,16.07c-18.51-10.76-44.12-9.25-72.37,7-49.42,28.5-90.61,93-99.6,152l3.57,9.41C34,217.9,79.78,221.68,97.75,190.8L197,20.34Z"/><path class="cls-5" d="M18,174.14a151.74,151.74,0,0,0-1.95,24.45c.11,32,11.42,54.51,29.72,65.11l7.14,4.21L85,212.75Z"/><path class="cls-6" d="M124.6,27.37C75.5,55.66,34.53,119.52,25.22,178.14a153.88,153.88,0,0,0-2,24.72c.16,64.4,46,90.47,102.08,58.13S226.9,149.92,226.68,85.51c-.11-40.72-18.45-66.14-46.17-71.11C164.44,11.48,145.22,15.48,124.6,27.37Z"/><path class="cls-2" d="M124.71,86.91C96.71,103.08,74,142.4,74,174.57s22.95,45.21,51,29,50.72-55.48,50.66-87.66S152.74,70.75,124.71,86.91ZM125,194.1c-23.49,13.52-42.6,2.59-42.71-24.28s19-59.82,42.44-73.39,42.6-2.65,42.71,24.28S148.52,180.58,125,194.1Z"/><path class="cls-2" d="M124.81,120.12c-12.07,7-21.86,23.9-21.81,37.8s9.91,19.47,22,12.49,21.86-23.9,21.81-37.8S136.88,113.14,124.81,120.12Z"/><path class="cls-2" d="M124.65,53.71C80.65,79.07,45,140.78,45.14,191.23s36.05,70.9,80,45.53S204.76,149.7,204.6,99.19,168.6,28.35,124.65,53.71Zm.49,173.59C85.73,250,53.53,231.74,53.42,186.47S85.25,85.89,124.65,63.17s71.56-4.38,71.67,40.83S164.54,204.59,125.14,227.3Z"/><path class="cls-7" d="M141.81,155.32l-14.29-8.22a2.22,2.22,0,0,0-2.22,3.84l14.29,8.22C141.54,160.3,143.6,156.35,141.81,155.32Z"/><path class="cls-4" d="M350.14,285.6l-32.36-18.66c-5-2.87-13.27-14.22-13.27-14.22l39.79,22.93Z"/><path class="cls-8" d="M349,275.05,141.92,155.92c-1.46-.87-2.87,2.21-1.68,2.92L348.42,278.62C349.88,279.49,350.2,275.75,349,275.05Z"/><path class="cls-4" d="M350.14,269.75,319.3,252a16.14,16.14,0,0,0-8.66-2.16l-6.18.22L344.25,273Z"/><path class="cls-7" d="M121.51,141.91v9.19c6.28,3,11.64,4.33,12.56,2.71C135.14,151.92,129.58,146.62,121.51,141.91Z"/><path class="cls-8" d="M349.14,278.78c0,.87.6,1.25,1.36.81a3,3,0,0,0,1.35-2.38c0-.86-.59-1.24-1.35-.81A3,3,0,0,0,349.14,278.78Z"/><path class="cls-2" d="M351.5,276.3l-2.36-1.41a.93.93,0,0,0-1,.11,3,3,0,0,0-1.36,2.38,1,1,0,0,0,.38.86l2.44,1.41a1,1,0,0,1-.38-.87,3,3,0,0,1,1.35-2.38A1,1,0,0,1,351.5,276.3Z"/><path class="cls-7" d="M145.76,146.4,130,141.64a2.22,2.22,0,1,0-1.25,4.27l15.81,4.76C146.68,151.32,147.76,147,145.76,146.4Z"/><path class="cls-4" d="M378.46,225.3l-35.78-10.71c-5.52-1.67-16.18-10.81-16.18-10.81l44,13.19Z"/><path class="cls-8" d="M375,215.35,146,147c-1.62-.48-2.33,2.82-1,3.25L375.26,219C376.89,219.41,376.29,215.73,375,215.35Z"/><path class="cls-4" d="M374.83,209.89l-34-10.22a16.27,16.27,0,0,0-8.94-.11l-5.95,1.62,44,13.2Z"/><path class="cls-7" d="M125.08,138.72v8.33c6.82,1.51,12.29,1.51,12.83-.22C138.45,144.89,132.61,141.32,125.08,138.72Z"/><path class="cls-9" d="M319.44,252.17a16.12,16.12,0,0,0-8.66-2.17l-5.12.18-109.46-63c3.57-6.07,6.89-12.3,9.93-18.63l121.69,36.34c2.92,2.4,10.6,8.49,15,9.82l35.78,10.71-7.18-7.52,2.26.68a.63.63,0,0,0,.43.35l2.61.8a1,1,0,0,0,1-.31,2.93,2.93,0,0,0,.76-2.6c-.12-.45-.35-.7-.63-.76l-2.62-.81a.71.71,0,0,0-.57.07l-4.12-1.23L375,210l-34-10.22a16.23,16.23,0,0,0-8.93-.11l-5.1,1.39L207.59,165.48c12.17-26.33,19.32-54.21,19.23-79.82-.08-32-11.43-54.53-29.73-65.14h0l-7.2-4.28c-.79-.46-1.6-.88-2.41-1.3L173.94,7c-18.51-10.76-44.11-9.25-72.37,7C52.43,42.34,11.4,106.31,2.14,165h0A151.77,151.77,0,0,0,.19,189.08v.36c.11,32,11.42,54.51,29.71,65.11l20,11.63v-.08l.53.31c18.67,12.49,45.39,11.69,75-5.37,26.65-15.37,50.92-41.22,69-71l110.94,63.83c2.19,2.9,8.38,10.82,12.47,13.15l32.37,18.66-5.34-9.08,3.66,2.1c1.46.87,1.78-2.86.59-3.57L345,272.74l5.24-2.91Zm57.93-36a1.51,1.51,0,0,0-.45.29,1.35,1.35,0,0,1,.45-.33Z"/></g></g></g></svg>