<svg xmlns="http://www.w3.org/2000/svg" viewBox="0 0 509.46 378.02"><defs><style>.cls-1,.cls-2,.cls-4{isolation:isolate;}.cls-2{fill-opacity:0.39;opacity:0.7;}.cls-3{fill:#c858f0;}.cls-4{fill:#aa22d6;opacity:0.9;}.cls-5{fill:#ffe2d7;}.cls-6{fill:#ef9ced;}.cls-7{fill:#ffbbfa;}.cls-8{fill:#de78ff;}.cls-9{fill:#aa32b7;}.cls-10{fill:#843605;mix-blend-mode:hue;}</style></defs><title>target</title><g class="cls-1"><g id="Layer_2" data-name="Layer 2"><g id="Layer_1-2" data-name="Layer 1"><path class="cls-2" d="M408,361.09l-2.81-1.3a1.63,1.63,0,0,0-.49-.05l-4.6-2.11,9.53.05-36.05-16.6a48.23,48.23,0,0,0-11.75-3.35l-7.9-1.35L220.82,275.11a157.54,157.54,0,0,0,36.53-14.82c51.86-29.91,51.86-78.36,0-108.27-25.6-14.76-59.11-22.17-92.67-22.33H133.4C99.19,129.53,65,136.94,38.89,152-13,181.88-13,230.33,38.89,260.23c26.69,15.36,61.81,22.77,96.78,22.34H161a223.39,223.39,0,0,0,24.85-1.08L277.65,349c.27,2,1.35,7.25,4.65,9.68L308.45,378l1.14-5.47,1.73,1.3c-.06.11-.22.16-.16.22l1.94,1.46c-.05.05.44.27,1.36.32a9.56,9.56,0,0,0,4-.43c.38-.16.43-.32.27-.49l-1.95-1.46a3.37,3.37,0,0,0-.49-.1L313.05,371l9.63.81-24.89-18.38a28.89,28.89,0,0,0-9.53-4.06l-7.09-1.84L190.67,281a218.5,218.5,0,0,0,26.19-4.82l134.73,62c1.62,1.95,6.33,7.25,11.09,9.46l37.89,17.47-2.76-5.62,2.49,1.13c0,.11-.1.22.06.27l2.81,1.3a3.63,3.63,0,0,0,1.52.22,7.46,7.46,0,0,0,3.41-.71C408.37,361.41,408.31,361.25,408,361.09ZM313.43,375c-.22.11-.33.16-.38.27C313.16,375.2,313.27,375.1,313.43,375ZM403,361.9c0-.11.05-.16.16-.27A.29.29,0,0,0,403,361.9Z"/><path class="cls-3" d="M304.66,6.88c-18.51-10.76-44.12-9.25-72.37,7C176.21,46.25,130.69,125,130.91,189.39c.11,32,11.42,54.51,29.71,65.11l20,11.63,144-247.62Z"/><path class="cls-4" d="M132.86,165a150.85,150.85,0,0,0-2,24.44c.11,32,11.42,54.51,29.71,65.11l20,11.63L212.7,211Z"/><path class="cls-5" d="M320.63,16.07c-18.51-10.76-44.12-9.25-72.37,7-49.42,28.5-90.61,93-99.6,152l3.57,9.41c12.62,33.42,58.41,37.2,76.38,6.32L327.83,20.34Z"/><path class="cls-6" d="M148.88,174.14a152.2,152.2,0,0,0-1.95,24.45c.11,32,11.42,54.51,29.72,65.11l7.14,4.21,32.1-55.16Z"/><path class="cls-7" d="M255.46,27.37c-49.1,28.29-90.07,92.15-99.38,150.77a154.5,154.5,0,0,0-2,24.72c.16,64.4,45.95,90.47,102.08,58.13S357.76,149.92,357.54,85.51c-.11-40.72-18.45-66.14-46.17-71.11C295.3,11.48,276.08,15.48,255.46,27.37Z"/><path class="cls-3" d="M255.57,86.91c-28,16.17-50.72,55.49-50.67,87.66s22.95,45.21,51,29,50.72-55.48,50.66-87.66S283.6,70.75,255.57,86.91Zm.32,107.19c-23.49,13.52-42.6,2.59-42.71-24.28S232.13,110,255.62,96.43s42.6-2.65,42.71,24.28S279.38,180.58,255.89,194.1Z"/><path class="cls-3" d="M255.67,120.12c-12.07,7-21.86,23.9-21.81,37.8s9.91,19.47,22,12.49,21.86-23.9,21.81-37.8S267.74,113.14,255.67,120.12Z"/><path class="cls-3" d="M255.51,53.71c-44,25.36-79.68,87.07-79.51,137.52s36.05,70.9,80,45.53,79.62-87.06,79.46-137.57S299.46,28.35,255.51,53.71ZM256,227.3c-39.41,22.71-71.61,4.44-71.72-40.83s31.83-100.58,71.23-123.3,71.56-4.38,71.67,40.83S295.4,204.59,256,227.3Z"/><path class="cls-8" d="M272.67,155.32l-14.29-8.22a2.22,2.22,0,0,0-2.22,3.84l14.29,8.22C272.4,160.3,274.46,156.35,272.67,155.32Z"/><path class="cls-5" d="M481,285.6l-32.36-18.66c-5-2.87-13.27-14.22-13.27-14.22l39.79,22.93Z"/><path class="cls-9" d="M479.87,275.05,272.78,155.92c-1.46-.87-2.87,2.21-1.68,2.92L479.28,278.62C480.74,279.49,481.06,275.75,479.87,275.05Z"/><path class="cls-5" d="M481,269.75,450.16,252a16.16,16.16,0,0,0-8.66-2.16l-6.18.22L475.11,273Z"/><path class="cls-8" d="M252.37,141.91v9.19c6.28,3,11.64,4.33,12.56,2.71C266,151.92,260.44,146.62,252.37,141.91Z"/><path class="cls-9" d="M480,278.78c0,.87.6,1.25,1.36.81a3,3,0,0,0,1.35-2.38c0-.86-.59-1.24-1.35-.81A3,3,0,0,0,480,278.78Z"/><path class="cls-3" d="M482.36,276.3,480,274.89a.93.93,0,0,0-1,.11,3,3,0,0,0-1.36,2.38,1,1,0,0,0,.38.86l2.44,1.41a1,1,0,0,1-.38-.87,3,3,0,0,1,1.35-2.38A1,1,0,0,1,482.36,276.3Z"/><path class="cls-8" d="M276.62,146.4l-15.8-4.76a2.22,2.22,0,0,0-1.25,4.27l15.81,4.76C277.54,151.32,278.62,147,276.62,146.4Z"/><path class="cls-5" d="M509.32,225.3l-35.78-10.71c-5.52-1.67-16.18-10.81-16.18-10.81l44,13.19Z"/><path class="cls-9" d="M505.85,215.35,276.89,147c-1.62-.48-2.33,2.82-1,3.25L506.12,219C507.75,219.41,507.15,215.73,505.85,215.35Z"/><path class="cls-5" d="M505.69,209.89l-34-10.22a16.18,16.18,0,0,0-8.94-.11l-5.95,1.62,44,13.2Z"/><path class="cls-8" d="M255.94,138.72v8.33c6.82,1.51,12.29,1.51,12.83-.22C269.31,144.89,263.47,141.32,255.94,138.72Z"/><path class="cls-9" d="M506.88,218.86c.22.87.87,1,1.52.44a2.93,2.93,0,0,0,.76-2.6c-.22-.86-.87-1-1.52-.43A2.9,2.9,0,0,0,506.88,218.86Z"/><path class="cls-3" d="M508.56,215.94l-2.65-.81a.88.88,0,0,0-.92.33,2.88,2.88,0,0,0-.76,2.59c.11.44.32.71.6.76l2.65.81a1,1,0,0,1-.6-.76,3,3,0,0,1,.76-2.59A1,1,0,0,1,508.56,215.94Z"/><path class="cls-10" d="M450.3,252.17a16.08,16.08,0,0,0-8.66-2.17l-5.12.18-109.46-63c3.57-6.07,6.89-12.3,9.93-18.63l121.69,36.34c2.92,2.4,10.6,8.49,15,9.82l35.78,10.71-7.18-7.52,2.26.68a.66.66,0,0,0,.43.35l2.61.8a1,1,0,0,0,1-.31,2.93,2.93,0,0,0,.76-2.6c-.12-.45-.35-.7-.63-.76l-2.62-.81a.7.7,0,0,0-.57.07l-4.12-1.23,4.47-4.08-34-10.22a16.14,16.14,0,0,0-8.93-.11l-5.1,1.39L338.45,165.48c12.17-26.33,19.32-54.21,19.23-79.82-.08-32-11.43-54.53-29.73-65.14l0,0-7.2-4.28c-.79-.46-1.6-.88-2.41-1.3L304.8,7c-18.51-10.76-44.11-9.25-72.37,7-49.14,28.34-90.17,92.31-99.43,151h0a152.12,152.12,0,0,0-1.95,24.08v.36c.11,32,11.42,54.51,29.71,65.11l20,11.63,0-.08.53.31c18.67,12.49,45.39,11.69,75-5.37,26.65-15.37,50.92-41.22,69-71l110.94,63.83c2.19,2.9,8.38,10.82,12.47,13.15l32.37,18.66-5.34-9.08,3.66,2.1c1.46.87,1.78-2.86.59-3.57l-4.15-2.39,5.24-2.91Zm57.93-36a1.55,1.55,0,0,0-.45.29A1.22,1.22,0,0,1,508.23,216.13Z"/></g></g></g></svg>