<svg xmlns="http://www.w3.org/2000/svg" viewBox="0 0 452.79 583.91"><defs><style>.cls-1{isolation:isolate;}.cls-2{fill:none;}.cls-3{fill:#ed448b;}.cls-4{fill:#fc66a7;}.cls-5{fill:#2e3b89;}.cls-6{fill:#303030;}.cls-7{fill:#d8e6f3;}.cls-8{fill:#d9e5f3;}.cls-9{fill:#874924;}.cls-10{fill:#874923;}.cls-11{fill:#fc90bf;}.cls-12{fill:#fc90be;}.cls-13{fill:#fc92bf;}.cls-14{fill:#fc90bd;}.cls-15{fill:#f3b187;}.cls-16{fill:#f8b08c;}.cls-17{fill:#f9b28c;}.cls-18{fill:#c0cbd7;}.cls-19{fill:#dde6ef;}.cls-20{fill:#dfe6ef;}.cls-21{fill:#dd4588;}.cls-22{fill:#c3cdd1;}.cls-23{fill:#cb2c6f;}.cls-24{fill:#f3af8c;}.cls-25{fill:#fc91bd;}.cls-26{fill:#fc91c0;}.cls-27{fill:#fc91be;}.cls-28{fill:#fd90bf;}.cls-29{fill:#da377b;}.cls-30{fill:#dd3a7f;}.cls-31{fill:#dd397e;}.cls-32{fill:#da367a;}.cls-33{fill:#dc397d;}.cls-34{fill:#dc387c;}.cls-35{fill:#dc387d;}.cls-36{fill:#da3679;}.cls-37{fill:#d9377a;}.cls-38{fill:#db377b;}.cls-39{fill:#db377d;}.cls-40{fill:#bdcbd6;}.cls-41{fill:#bcc9d8;}.cls-42{fill:#a23e00;mix-blend-mode:hue;}</style></defs><title>team_1</title><g class="cls-1"><g id="Layer_2" data-name="Layer 2"><g id="Layer_1-2" data-name="Layer 1"><polygon class="cls-2" points="0 359.02 0.3 358.72 0.5 358.92 0 359.02"/><path class="cls-2" d="M108.33,440.52l.7-.5c.1,0,.2.1.3.1s.3.1.4.1Z"/><polygon class="cls-2" points="198.4 216.72 198.7 216.62 199 216.72 198.4 216.72"/><path class="cls-2" d="M246.33,282.12a6,6,0,0,1,.8-.3c.1.1.2.1.2.2C246.9,282,246.6,282.12,246.33,282.12Z"/><line class="cls-2" x1="319.8" y1="296.52" x2="319.5" y2="296.62"/><polygon class="cls-2" points="0.3 358.72 0 359.02 0.5 358.92 0.3 358.72"/><path class="cls-2" d="M109.7,440.22c-.1,0-.3-.1-.4-.1s-.2-.1-.3-.1l-.7.5Z"/><path class="cls-3" d="M392.4,263c-2.3-2.4-3.8.2-5.3,1.1-19.5,11.1-38.9,22.4-58.4,33.6q-49.5,28.5-99,57.1c-3.2,1.8-6.2,3.8-9.9,4.7-4.3,3.8-8.8,7.3-14.7,8.1-1.5.2-3.6.3-4.2-1.6-.5-1.6,1.1-2.6,2.2-3.6,1.9-1.6,4.6-2.5,5.3-5.6a80,80,0,0,0-22.2,10.9c-10.7,3.9-21.3,1.2-31.9-.3a2.63,2.63,0,0,1-1.8-1.6,57.1,57.1,0,0,0,.2-18.9,36.13,36.13,0,0,1,.4-13.9c3.8-3.5,8.7-5.3,13.1-8,21.3-12.8,42.9-24.9,64.4-37.2,17.3-9.9,34.4-20.3,51.8-30.1,23.9-13.5,47.5-27.7,71.4-41.1,16-8.9,31.9-18.1,47.6-27.4,2-1.2,4.1-3.2,6.8-1.7,5.1,11.6,9.4,23.4,11.8,35.9a66,66,0,0,0,3.7,12.9c.5,3.3.7,6.6-2.1,9.2-7.6,4.4-15.2,8.7-22.9,13C396.7,260,394.8,261.82,392.4,263Z"/><path class="cls-4" d="M407.6,187.52c-22.3,12.8-44.4,25.9-66.9,38.3-21.2,11.6-41.8,24.4-63,36.1-13.5,7.4-26.7,15.5-40,23.2-16.8,9.8-33.6,19.4-50.5,29.1-7.9,4.6-15.7,9.2-23.6,13.9-3.1,1.9-6.1,4-9.9,4.4-1.8,1.2-3.2.1-4.6-.7-10.9-6.5-22-12.7-32.8-19.4-2.3-2.6-3.5-5.9-5.4-8.7a23.76,23.76,0,0,0-8.4-8c-1-1.8-4-2.9-2.2-5.7,5.1-.1,10.2,0,15.2-1.6,7.7-2.4,9.9-5.1,10-13.2a37.63,37.63,0,0,0-.4-7.5c.4-10.1-.8-11.8-10.8-15.4-1.4-.5-3.5-.5-3.4-2.9l17.7-10.3a1.33,1.33,0,0,1,1.5.1c1.9,3.1,1,6.5,1.1,9.7.3,7,2.5,10.5,9.2,12.5a35,35,0,0,0,23-.5c6.1-2.4,8-5.1,8-11.6a78.4,78.4,0,0,0-.2-8.4c.5-9.4-.3-10.6-9.3-14.4-1.8-.8-3.8-1.3-5.1-2.9-.6-2.1,1.1-2.9,2.4-3.8a98.45,98.45,0,0,1,8.9-5.3,13.92,13.92,0,0,0,4.6-2.5c2,0,2.1-3.7,4.7-2.5a4.88,4.88,0,0,1,.8,4.2c-1.4,3.9-1,7.9-.6,11.8.4,3.6,2.6,6.1,5.6,7.8,8.9,4.8,18.1,5,27.3,1,4.3-1.9,6.5-5.5,6.9-10.2a51.63,51.63,0,0,0-.1-10.4c.5-8.7-1.9-11.9-10.4-13.9-1.8-.4-3.6-.6-4.9-2.1,0-4.2,3.3-4.4,6.1-5.1,4.8-1.1,8.3-4.6,12.8-6.3a1,1,0,0,1,1.4.1c1.5,2.3,1,4.8,1.1,7.3.1,10.1,1.6,12.8,11.4,15.2,7.6,1.9,15.5,2.4,22.9-1.7,3.3-1.9,5.3-4.5,5-8.5-.3-3.7,1.3-7.2.6-10.9,1.8-7.7-2.8-11.4-8.8-14.4-1.9-.9-4.8-1-4.5-4.2,5.7-4.2,12.6-6.5,18.1-11l.6.5c1.5,3.5.9,7.2.8,10.9-.1,6.2,3,10.1,8.4,12.3,8.5,3.4,17,2.7,25.3-1,3.4-1.5,5.7-4.1,5.6-8.1,0-3.6,1.8-7.2.1-10.8.5-9.2-1.1-11.6-9.9-15.4-1.5-.6-3.8-.5-3.8-3.1l18.8-11.1c1-.3,1.4.3,1.6,1.2-.1,3.6,0,7.3-.1,10.9a9.94,9.94,0,0,0,6.8,10.5c9.2,3.5,18.5,3.6,27.5-.9a8.34,8.34,0,0,0,5-7.9c.1-4.1-.3-8.3,1.5-12.3a3.1,3.1,0,0,1,1.1-.9c4.9,1.1,8.6,4.5,12.9,6.7,1.4.7,2.7,1.9,4.3,2.3,1.3.9,3.1,1.6,2.4,3.8-2.7,1.5-5.9,2.1-8.4,4-4,3-5.9,6.9-4.9,11.9-.5,3.8-.2,7.6-.3,11.4-.1,4.1,2,6.9,5.5,8.7,8.9,4.5,18,4.3,27,.6,4.3-1.7,7-4.9,6.5-10a35.3,35.3,0,0,1-.1-6.5c.4-3.6,2.3-4.4,5.6-2.6C408.5,171.42,409.4,179.42,407.6,187.52Z"/><path class="cls-5" d="M50.7,518.32c-4.5,13.4-9.5,26.7-16.3,39.1-1,1.9-1.9,3.9-4.4,4.1-6.7-.3-12.3-3.6-18.1-6.3-3-2.8-2-5.8-.4-8.9,1-1.9,2.1-3.8,2.2-6a141.35,141.35,0,0,0,9.4-26.7c4.2-17.5,12.1-33.3,21.8-48.3,3.8-5.9,4.8-12.2,4.3-19a166.72,166.72,0,0,0-4.6-28c-2.1-8.5-3.8-17.2-1.9-26,2.3-2.5,4-.4,5.3,1.1,12,13.8,27.5,19.8,45.4,19.9,7.3,0,14.7-.7,19.5-7.7a4.12,4.12,0,0,1,3.8-1.9c12.1,23,17,47.6,15.8,73.4-.6,12.4-1.2,24.9-.6,37.3-.7,12.1,1.8,23.7,5.7,35.1,1.2,5.5-.4,9.5-5.1,13.3-5.8,4.7-12.8,6.8-19,10.6-5.1-10.7-4.3-22.7-7.6-33.8-2.8-9.2-5.2-18.5-5.4-28.2-2-3.6-1.2-7.5-1-11.2.8-17.1-5.4-31.8-15.3-46.1-1.1,3-1.6,5.7-2.5,8.2a130.1,130.1,0,0,1-12.5,24.3c-5.9,9.3-11.7,18.5-16.1,28.6A5.32,5.32,0,0,1,50.7,518.32Z"/><path class="cls-6" d="M116.8,403.72c-.7.5-1.6.8-2,1.5-5.5,9-14.2,9.4-23.4,9.4-14.8,0-27.3-5.8-38.9-14.3-2.6-1.9-4-4.9-6.3-7.1-1.1-1.1-2.1-1.5-3.5-.9a26,26,0,0,1,3.4-12.8c4-7.4,3.9-14.9,1.1-22.6a101.86,101.86,0,0,0-7.3-15.8c-7.1-12.5-12.8-25.5-15.1-39.7-1-7.3-1.8-14.6,1.3-21.8,1.4-3.3,3-6.2,6.1-8.1,5.9-5,12.5-5.2,19.5-3a7.23,7.23,0,0,1,3.3,2.1,23.34,23.34,0,0,0,16.4,7.3c6.5.2,12.4,2,18.2,4.4,3.7,2.3,7.7,4.2,10,8.2.9,1.8,3.1,2.5,3.6,4.6-4,2.9-9.3,3.8-12.4,8-4.4,5.3-8.1,11-9.7,17.8-2.3,9.9-.4,15.4,8.1,21.5,3.4,1.7,4.5,5.1,5.9,8.2,5.3,12,11,23.7,19.8,33.5a6.28,6.28,0,0,1,1,2.2,43.45,43.45,0,0,0,.9,5.3c.9,3.2,2,6.3-.7,9.3a2,2,0,0,0,.63,2.75Z"/><path class="cls-5" d="M405.8,355.32c-4.2,2.2-5.8,6.6-8.6,10-5,6.1-8.9,13.1-14.5,18.8-1.9,2-.3,4.5-1.6,6.5a15,15,0,0,0-5.9-5,73.06,73.06,0,0,1-16.3-11.3,25,25,0,0,1,4.8-8c11.1-13.1,20.1-27.6,28.1-42.8,1.9-1.1,2.1-2.7,1.7-4.7-1.5-7.8-2.9-15.6-4.3-23.5a24.32,24.32,0,0,1-.2-10.4c1.5-7.3,3.1-14.5,3.5-21.9a3.59,3.59,0,0,1,1.6-2.9l26.7-14.8c2.8.5,4.3,3.4,7.4,3.8,5.7.8,9.7-2,13-5.8s.3-7.8-.6-11.7c-3.4-6.8-4.3-14.1-4.2-21.5,4.5-1.8,7.7-4.8,8.9-9.6,5.5,26.4,8.9,53,6.9,80.1-1.1,14.5-5.7,27.2-15.9,37.6.6,1.3-.1,2.3-.9,3.1C425.1,332.32,415.6,344,405.8,355.32Z"/><path class="cls-7" d="M437,209.52c1,7.4,1.2,15,4.7,21.9a26.75,26.75,0,0,1-8.3,5.9c-3.5,1.7-7.2,2.5-10.3-1-2.3-1.9-2.6-4.6-3-7.2-2.3-14.5-8.1-27.9-12.5-41.7-1.5-8.3-.3-16.7-.9-25a54.29,54.29,0,0,1-.2-5.7c-.3-7.6,0-15.2.4-22.7,2.9-10.4,5-21.1,10-30.9,4.5-6.5,11.5-8.6,19.2-5.8,9.1,4.4,10.2,12.9,10.6,21.4.3,5.2,1,10.5-.6,15.6-1.9-1.8-1.5.2-1.8,1-3,11-3.8,22.4-7,33.2-3.4,11.4.5,22.4.6,33.7C437.8,204.82,438.8,207.32,437,209.52Z"/><path class="cls-8" d="M115.8,386.52c-4.4-2.7-6.8-7.2-9.5-11.3a143.16,143.16,0,0,1-13.6-27.1c-.8-2.1-1.7-3.8-3.9-4.6-3.7-10.8-4.2-21.8-2.5-33,.5-3.1,2.5-5.3,3.6-8,3.4-4.3,7.7-7,13.3-7.4,6.3,2.1,8.6,7.8,11.8,12.8a36.46,36.46,0,0,1,1.7,3.5c2.1,2.3,2.9,5.1,3.7,8,3,11.6,4.6,23.4,6.9,35.1,1.3,6.8,1.3,6.8,8,7.8,4.3.6,8.6,1.1,12.8,1.6,1.6.2,3.4,0,4.5,1.6,11.4,2.2,22.7,4,34.2.8,2.6,4.9,2.2,9.9.3,14.9-2.6,1.3-5.9.8-8.1,3.2-6,.8-11.8,2.4-17.9,2.9a163,163,0,0,1-25.1.2Z"/><path class="cls-6" d="M407.7,133.62c1.8,5.7-.3,11.5,0,17.2,0,2.5-.1,5-.3,7.4-.5,1.1.7,3.2-1.6,3.5-1.4.2-1.8-1.1-2.2-2.2-.3-7.3-8.4-12.2-17.3-12.8-3.2-.2-6.7,1-9.6-1.4l-2.9-2.9c-4.9-5.2-7-12-10.1-18.2-4.7-9.3-7.4-19.2-6.5-29.8.5-5.8,2-11.1,6.5-15.1A20.08,20.08,0,0,1,377.9,73a15.44,15.44,0,0,0,6.6-1.9,2.84,2.84,0,0,1,2.7,1c5.9,6.5,13.7,8.1,22,8.9,4.4.4,9,.7,12.4,4.3,5.6,3,9.6,7.8,14.2,12-6.9-.6-13.5,0-18.2,6-.7.9-1,2.1-1.9,2.9C407.8,113.72,405.6,123,407.7,133.62Z"/><path class="cls-9" d="M390.7,60.52c1.3-3.6-1.1-6-2.7-8.6-6.6-11.3-9-23.1-4.6-35.9,2.7-8,8.3-12.7,16.4-14.4,10.2-2.1,20.5-1.8,30.8-.1,6.9,1.1,8.9,6.1,5,12-1,1.5-2.4,2.9-1.6,4.9a14.08,14.08,0,0,1-.4,9.7,103,103,0,0,0-4.4,16.3c-.6,3.1-1.9,4.8-4.9,1.8-2.8-2.8-4-.7-4.8,1.9a19.54,19.54,0,0,0-.3,5.4c-.4,12.8-10.7,19.3-22.5,14.3a53.84,53.84,0,0,1-5.3-2.7C390,63.72,390.2,62.12,390.7,60.52Z"/><path class="cls-10" d="M56.8,260.42c.8-4.2-.7-7.6-2.8-11.2-5.9-9.7-8.5-20.2-5.5-31.5s9.4-17,20.9-18.3a124.33,124.33,0,0,1,24.4,0c8.4.8,10.8,5.7,6.4,13-1.2,2-1.7,3.9-.3,6,.7,2.7-.1,5.3-.9,7.8-1.8,5.2-3.5,10.4-4,15.9-.1,1.6-.5,3.6-2.3,4.1-1.6.5-1.9-1.5-2.8-2.4-2.1-2.3-3.5-1.3-4.3,1.1-.6,1.8-.3,3.6-.3,5.5-.2,13.7-10.8,20.3-23.2,14.5-1.8-.9-3.7-1.6-5.1-3.1C56.4,261.62,56.4,261,56.8,260.42Z"/><path class="cls-11" d="M132.2,229.42a40.14,40.14,0,0,1,24.6-6c3.5,1.4,7.2,2.5,10.5,4.3,5.9,3.2,6.8,6.1,4.6,12.8.3,2-1,3-2.3,4-10.9,8.8-31.5,6.1-39.7-5.1l-1.2-.2C131.6,236.62,130.8,232.62,132.2,229.42Z"/><path class="cls-12" d="M221.8,186.42l-1.1-.1c2.2-8.9,7.3-14.3,16.9-15.1,4-.3,8.2-.4,12.1-2,2.4,3.2,6.5,3.4,9.5,5.6,5.4,4.1,6.3,6,4.5,12.4-.6,3-2.9,4.4-5.3,5.6-10,5.5-20.2,4.6-30.2,0A12.53,12.53,0,0,1,221.8,186.42Z"/><path class="cls-11" d="M357.8,133.42l-1,.1c-3.2,7.8-10.4,8.9-17.3,9.8a32.68,32.68,0,0,1-19.4-3.4c-2.6-1.4-5.4-2.8-5.3-6.5l-1.2-1.1c1.1-8.6,8.5-14.2,19.4-14.8,6.3-.3,12.1,1.3,17.8,3.9C356.2,123.62,357.7,128.12,357.8,133.42Z"/><path class="cls-13" d="M294.8,143.42c3.3,2.1,7.3,2.8,10.5,5.2,6,4.5,6.5,6.1,3.5,12.9.3,2.3-1.4,3.3-2.9,4.2-10.2,5.9-20.7,5.2-31.1,1.1a12,12,0,0,1-7-8,.89.89,0,0,1-.1-.5c1-8.2,7.4-13.1,18.3-13.8C289,144.22,292,144.42,294.8,143.42Z"/><path class="cls-14" d="M110.9,249.42c1.6,1.4,3.6,1.5,5.5,2,8.4,2.3,11.7,7.9,9.5,15.9-.3,2-1.6,3.2-3.1,4.3-7.4,5.4-27.7,6.8-36.1-2.5-1.3-2.8.5-4.5,2.3-6a44.41,44.41,0,0,0,10.9-12.7C103.6,250,107.33,250.62,110.9,249.42Z"/><path class="cls-15" d="M391.7,64.62c2.2-.5,3.7,1.2,5.4,2,11.2,5.2,21.6-2,20.7-14.3,0-.7-.1-1.3-.1-2-.3-3.4.6-6.7,4.1-7.6s3.1,3.2,5.6,5.4c.5-10.6,5.9-19.5,6.6-29.6,3,5.3,4.5,10.9,3.1,17.1-1.4,6.5-2.2,13.1-3.4,19.6-.7,4.1-3.3,6.8-7,8.4-4.9,2-7.4,5.5-7,10.8-1.6,1.7-3.6,1.5-5.5,1.3A90.38,90.38,0,0,1,397.3,72C394,70.82,391,69,391.7,64.62Z"/><path class="cls-16" d="M99.9,250.42c.2,4.5-3,7-5.6,9.8s-6.4,4.1-7.5,8.1a4.54,4.54,0,0,1-.9,3.9,2.53,2.53,0,0,1-1.7,1c-9,.2-17.7-1.3-25.4-6.3a4.35,4.35,0,0,1-1.8-5.5c3.7.9,6.7,3.6,10.5,4.4,8.6,1.6,16.9-5.4,16.3-14.2-.1-1.2-.3-2.3-.3-3.5-.1-3.1-.1-6.4,3.5-7.4,3.8-1.1,3.6,3,5.7,5.6.8-10.1,4.2-18.9,6.9-27.8,3,4.1,3.2,8.8,2.6,13.6C101.7,238.12,100.8,244.32,99.9,250.42Z"/><path class="cls-6" d="M437,209.52c-1.3-9.7-1-19.6-3.2-29.3-.8-3.5,1.1-6.8,1.9-10.2,2.5-11.4,3.6-23,6.9-34.2a16.45,16.45,0,0,1,3-6.6c.1,2.2.2,3.6.3,5.1-2.6,22-2.5,44-1,66C444.6,208.32,443.6,209.52,437,209.52Z"/><path class="cls-17" d="M187.1,381.22l-.3-14.9c.9-1.9,2.6-2.9,4.5-3.8,5.1-2.5,10.1-5,15.1-7.5,1.5-.8,2.9-1,3.9.6s.5,3.1-1.1,4.2c-2.7,1.8-5.3,3.7-9.1,6.4,5.1,0,8.2,1,11.3-2.9,1.4-1.8,5.7-2.4,8.6-3.8,1.9,1.3,1.5,3,.9,4.8-3.2,8.6-10.2,12.8-18.5,15C197.4,380.52,192.2,380.62,187.1,381.22Z"/><path class="cls-18" d="M357.8,133.42c-1.9-4.2-3-9-6.9-12a151.92,151.92,0,0,1,4.8-29.9c1.2-4.6,2.6-10.1,8.4-12-7.9,12.6-6.7,25.7-1.3,38.7,3.5,8.3,7.5,16.3,11.3,24.4C367.9,140.72,362.9,137,357.8,133.42Z"/><path class="cls-6" d="M405.8,355.32c2.8-7.1,8.8-11.9,13.4-17.6,5.4-6.7,11.2-13.1,16.9-19.6a14.52,14.52,0,0,1,6.8,3.4c1.6,2.7.8,5.1-.8,7.4-3.8,5.3-8,9.9-15.2,11-4.7.7-8.6,3-10.5,8.5C415,352.62,410.6,355,405.8,355.32Z"/><path class="cls-19" d="M391.7,64.62a9.69,9.69,0,0,0,7.3,6.5c6.9,1.5,13.6,3.8,20.8,3.3.8,3.7,4.6,6.8,2,11.1-6.6-2.2-13.5-3.2-20.4-4.1s-12.1-4.9-16.6-10.1c3.6-2.7,5-6.7,5.9-10.8C390.9,62,390.1,63.52,391.7,64.62Z"/><path class="cls-20" d="M57.1,261.32c.6,1.3.8,2.9,1.7,4,3.5,4.1,21.8,8,27,6,3.2,3.6,5.5,7.5,4.5,12.6a69.64,69.64,0,0,0-19.6-4.7c-7.8-.5-14.8-3.4-19.1-10.6,2.7-2.1,3.9-5.1,5.2-8.1A1.11,1.11,0,0,1,57.1,261.32Z"/><path class="cls-21" d="M136,387.42c.9-1.4,2.4-.8,3.6-.8,12.4-.1,24.8-.4,36.9-3.1.9-.2,2-.4,2.5.9-7.5,4.2-15,8.2-22.4,12.5a3.6,3.6,0,0,1-4.4,0C146.8,393.72,141.4,390.62,136,387.42Z"/><path class="cls-22" d="M32.1,271.62c-6.8,8.9-7.7,19.2-7.4,29.9-1.8-7.3-4.9-14.5-1-22C25.6,276,27.33,272,32.1,271.62Z"/><path class="cls-23" d="M152.6,365.62c-7.6-.7-15.1-1.5-22.7-2-2.7-.2-2.6-1.9-3-3.7-2.6-13.5-5.3-26.9-8-40.4-.6-2.7-1.4-5.4-2.2-8.1,10.9,6.3,21.8,12.7,32.7,19,1.4.8,3,1.4,4.5,2.1.3,9.8.7,19.6,1,29.4C154.9,363.62,154.8,365.22,152.6,365.62Z"/><path class="cls-24" d="M423.1,236.42c4.6,2.1,8.8,1.3,12.8-1.9,1.7-1.4,3.1-3.6,5.9-3,.7,2.9,1.5,5.8,2.1,8.7.5,2.5-5.4,8.7-9,9.9-6.1,1.9-10.2.6-14.1-4.7C423.6,243,422.7,239.42,423.1,236.42Z"/><path class="cls-6" d="M113.7,573.42c-.2-2.7,1.9-3.3,3.8-3.7,6.7-1.5,11.4-6.3,17-9.7,2-1.2,2.1-3.6,2.4-5.7.2-1.6.1-3.3.9-4.8a128.63,128.63,0,0,1,23-3.6c3.1-.3,5.7.5,7.3,3.3s.3,5.2-1.2,7.4c-5.8,8.8-14.3,13-24.4,14.5-4.1.6-7.9.3-11.3,4.8-2.6,3.5-8.8,4.5-13.9,3.3C114.1,578.62,114.1,575.82,113.7,573.42Z"/><path class="cls-6" d="M11.8,555.32c6.6.4,12,4.3,18.1,6.3-.6,3.3.8,5.5,3.1,7.7,3.7,3.6,3.9,8.9.9,13.2a2.75,2.75,0,0,1-3.4,1.2A67.08,67.08,0,0,1,5,570.82c-1.5-1.1-1.5-2.2-.7-3.8C6.33,562.72,8.5,558.62,11.8,555.32Z"/><path class="cls-25" d="M132.9,293.42c-.1-8.6,2.9-12.8,11.4-14.8s17.1-2.5,24.9,2.5c5.7,3.6,6.8,6.9,4.7,13.4.3,2.6-1.5,4-3.4,5-10.6,5.6-21.3,6-32,.5C135.8,298.62,133.33,296.82,132.9,293.42Z"/><path class="cls-26" d="M376.9,145.42c6.6-.2,13.3-.6,19.5,2.4,4.9,2.4,8.8,5.4,8.3,11.6a11.2,11.2,0,0,1-7.8,9.4c-9.2,3.1-18.6,3.4-27.7-.5-2.9-1.3-6.3-2.6-6.4-6.8C360.33,153.72,366.8,146.22,376.9,145.42Z"/><path class="cls-12" d="M225.8,241.52c-2.3-7.6-.6-11.2,6.7-14.1,9.9-3.9,19.6-4.3,29.2,1.3,3.7,2.2,6.1,4.5,4.4,9.2-.4,1-.1,2.3-.2,3.5.4,2.6-1.4,4-3.3,5-11.2,6.2-22.4,5.9-33.6,0C227.1,245.42,225.2,244.22,225.8,241.52Z"/><path class="cls-27" d="M270.9,214.32c-2.4-4.9.2-8.3,3.8-11.1,7.3-5.7,23.3-6.6,31.4-2s8.8,8,2.9,16.3c0,2.8-2.2,3.7-4.2,4.3-10.5,3.1-20.9,3.9-30.6-2.5C272.5,218.12,270.4,217,270.9,214.32Z"/><path class="cls-11" d="M178.8,266.52c-1.8-4.1,0-7,3-9.6,9.6-8.1,27.9-7.9,37.8,1.2,2.7,2.5,1.4,6.2.3,9.4-1.3,5.8-6.3,7.6-11,8.5-7.8,1.5-15.8,1.6-23.3-2C182.4,272.62,178.9,271,178.8,266.52Z"/><path class="cls-28" d="M316.8,187.52c-1.5-6.6.1-10.4,7.7-13.3,9.7-3.8,19.6-4.3,28.9,1.9,5.3,3.5,6.1,6,4.4,12.2a7.77,7.77,0,0,1-4.6,5.5c-10.6,5-21.3,5.8-31.8-.3C319.1,192.22,316.8,190.72,316.8,187.52Z"/><path class="cls-11" d="M176.7,209.22c-.4-4.9,2.9-7,6.4-9,5.7-3.1,12-3.2,18.3-3,3.2.7,6.4,1.5,9.6,2.5,6.5,2.3,8.9,7.5,6.8,13.7-.4,4.6-4.1,6.4-7.6,7.6-8.9,3-17.9,3.2-26.6-.9-2.7-1.3-5.9-2.6-5.9-6.6Z"/><path class="cls-29" d="M316.8,187.52c9.9,11.7,28.4,12,41,.8,2.7,14.6-.1,22.1-14.6,24.2-7.8,1.1-15,.2-21.8-3.7-4-2.3-6.2-5.3-5.5-10.1C316.4,195,314.8,191.12,316.8,187.52Z"/><path class="cls-30" d="M177.8,213.42c9.2,11.4,31.2,11.3,40-.1,4.5,12.4-1.4,22.9-14.4,24.8-6.7,1-13.5.6-19.9-2.8-7-3.8-10.6-14.3-7.1-21.5C176.6,213.62,177.4,213.62,177.8,213.42Z"/><path class="cls-31" d="M267.9,158.82c10.1,12,30.9,13.3,41,2.7.5.2,1.2.2,1.3.5,3.2,7.2-1.9,18.6-9.2,21.2a34.53,34.53,0,0,1-23.9.1c-6.2-2.3-9.4-6.6-9.4-13.1C267.8,166.42,267.9,162.62,267.9,158.82Z"/><path class="cls-32" d="M132.9,293.42c10.9,11.7,31.7,12.3,41,1.1,5.1,14.6-5.4,26.9-20.5,24.4-4.9-.8-9.8-1-14.4-3.3-4.9-2.5-7.3-6.2-7-11.5C132.2,300.52,130.8,296.82,132.9,293.42Z"/><path class="cls-33" d="M129.8,239.42c2.4-.3,2.6,2.2,4,3.2,9.3,7,28.7,9,38-2.1,2.6,15.3,1.2,20-12,23-8.2,1.9-16.3,1.8-24-2.5a10.75,10.75,0,0,1-5.9-10.1C129.9,247,129.8,243.22,129.8,239.42Z"/><path class="cls-34" d="M178.8,266.52c2.7,4.9,7.3,7.2,12.5,8.1,10.5,1.8,20.9,2.5,28.6-7.1,3.2,15.2-.2,22.9-17.1,24.8-7.6.9-15.3.3-21.4-5.7-.8-.8-2.1-1.8-2.1-2.6C179.2,278.12,176.8,272.42,178.8,266.52Z"/><path class="cls-35" d="M270.9,214.32a17.71,17.71,0,0,0,11.5,7.3c9.2,1.5,18.5,2.8,26.5-4l3.1-1.3c3.5,15.4-3.3,22-18.3,23.2-6.4.5-12.6-.3-18.1-3.9-3.9-2.6-6.8-5.8-5.9-11C270.4,221.12,268.7,217.52,270.9,214.32Z"/><path class="cls-36" d="M314.8,133.42c6.5,9,16.1,9.1,25.6,8.5a22.58,22.58,0,0,0,16.3-8.4c-.3,4.7-.7,9.5-.9,14.2-.1,1.9-.3,3.5-1.8,4.9-8.3,8.1-31.3,7.7-37.3.3a11.36,11.36,0,0,1-2.9-9C314.2,140.52,312.8,136.82,314.8,133.42Z"/><path class="cls-32" d="M221.8,186.42c8.5,8,18.4,10.5,29.7,8a24.84,24.84,0,0,0,12.3-7.1c1.6,5.9,1.3,12.3-1.3,17.1-2.6,5.2-8.9,7-15.1,7s-12.6.2-18.5-2.8c-4.4-2.2-7.2-5.1-7.1-10.3C222,194.42,221.8,190.42,221.8,186.42Z"/><path class="cls-37" d="M362.8,161.42a16.26,16.26,0,0,0,8.7,6.3c8.1,2.9,16.4,2.5,24.5,0a14,14,0,0,0,8.7-8.4c.4.8.4,2.2,1.7,1.8s.2-2.1,1-2.9c.3,1.5.7,3-.8,4.2-2.5.4-3.6,1.5-3.3,4.4a38.7,38.7,0,0,1,.1,10.2c-.5,3.9-4.4,5.8-7.2,6.8-9.2,3.5-18.7,4.1-27.9-.6-4.4-2.3-7.1-5.5-6.5-10.6C362.33,169,360.6,165,362.8,161.42Z"/><path class="cls-38" d="M225.8,241.52c.9,2.6,3.3,3.6,5.5,4.7,11,5.6,28.4,3.9,34.5-4.8,4.5,12.7-3.1,23.8-16.3,24-6.8.1-13.6.4-19.8-3.5-3.9-2.4-6.6-5.4-5.8-10.1C224.6,248.42,221.7,244.32,225.8,241.52Z"/><path class="cls-39" d="M90.33,283.82l-4.5-12.6c.1-1.1-.2-2.3,1-3,9,8.5,31,8.6,39-.9,4.3,11.5.2,19.7-11.1,22.7-5,1.3-10,2-15.1.4Z"/><path class="cls-6" d="M358.9,374.22c4.4.8,7.1,4.5,10.8,6.6,3,1.7,5.4,4.3,9.1,4.6s1.4,3.5,2.3,5.1c.4,6.1,4.9,8.3,9.7,10,4.6,1.6,7.4,4.2,7.1,9.4-.1,1.9-.7,2.9-2.7,3.5-11.6,3.3-17.9,1-24.5-9.2-1.3-1.9-2.7-3.8-4.2-5.6-.6-.7-2-1.7-2.3-1.5-3.1,1.9-5-.3-6.9-2a51.24,51.24,0,0,1-9-10.7c-.6-1,.2-1.6.8-2.1C352.1,379.42,354.6,375.72,358.9,374.22Z"/><path class="cls-40" d="M89.9,302.52c-3.6,12.4-4.9,24.8-.4,37.3.5,1.5-.2,2.6-.8,3.8-7.8-4-11.4-11.4-9.7-20.2A41.37,41.37,0,0,1,89.9,302.52Z"/><path class="cls-41" d="M407.7,133.62c-3.8-6.1-3-12.4,0-18.3a32.11,32.11,0,0,1,10.1-11.9c-.3,4.1-2.8,7.4-4.2,11C411.2,120.72,411.4,127.72,407.7,133.62Z"/><path class="cls-42" d="M445.33,200.33a14.4,14.4,0,0,1-.48,1.54c0-.54.06-1.12.08-1.74-1.5-22-1.6-44,1-66V134a1.24,1.24,0,0,1,.21.19c1.6-5.1.9-10.4.6-15.6-.4-8.5-1.5-17-10.6-21.4-.15-.06-.3-.1-.46-.15-4.46-4.11-8.39-8.74-13.8-11.72,2.52-4.26-1.24-7.35-2-11h-.1c-.4-5.3,2.1-8.8,7-10.8,3.7-1.6,6.3-4.3,7-8.4,1.2-6.5,2-13.1,3.4-19.6,1.4-6.17-.08-11.74-3-17l-.06-.19c-.8-2,.6-3.4,1.6-4.9,3.9-5.9,1.9-10.9-5-12-10.3-1.7-20.6-2-30.8.1-8.1,1.7-13.7,6.4-16.4,14.4-4.4,12.8-2,24.6,4.6,35.9,1.6,2.6,4,5,2.7,8.6h0a9.46,9.46,0,0,0-.31,1.3c-.89,3.53-2.3,6.87-5.32,9.26a2.72,2.72,0,0,0-.57,0,15.44,15.44,0,0,1-6.6,1.9,20.08,20.08,0,0,0-14.2,6.3l-.62.59c-4.95,2.18-6.25,7.29-7.38,11.61a151.92,151.92,0,0,0-4.8,29.9.53.53,0,0,1,.12.1l-.22-.1c-5.7-2.6-11.5-4.2-17.8-3.9-10.9.6-18.3,6.2-19.4,14.8l.23.2-18.63,11v.13l-.41-.23c-2.8,1-5.8.8-8.8,1.1-10.9.7-17.3,5.6-18.3,13.8v.19c-5.43,4.3-12.14,6.6-17.71,10.71v.34l-.29-.34c-3.9,1.6-8.1,1.7-12.1,2-9.6.8-14.7,6.2-16.9,15.1H221c-4.48,1.71-8,5.19-12.77,6.29-2.71.67-5.89.89-6.08,4.74l-.62-.14c-6.3-.2-12.6-.1-18.3,3-3.5,2-6.8,4.1-6.4,9v.09c-2-.31-2.22,2.71-4,2.71a13.92,13.92,0,0,1-4.6,2.5,98.45,98.45,0,0,0-8.9,5.3c-1.25.86-2.86,1.65-2.43,3.59a40.11,40.11,0,0,0-24.57,6c-1.36,3.1-.65,7-3.27,9.57a1,1,0,0,0-.33.13L111,249.22c-3.6,1.2-7.3.6-11,1h0c.9-6.1,1.8-12.3,2.3-18.3.57-4.55.42-9-2.15-12.95q-.06-.39-.15-.75c-1.4-2.1-.9-4,.3-6,4.4-7.3,2-12.2-6.4-13a124.33,124.33,0,0,0-24.4,0c-11.5,1.3-17.9,7-20.9,18.3s-.4,21.8,5.5,31.5c2.1,3.6,3.6,7,2.8,11.2a1.18,1.18,0,0,0-.26.7c-1.19,2.75-2.39,5.45-4.83,7.4h0c-7-2.2-13.6-2-19.5,3l-.15.1c-4.76.43-6.45,4.31-8.35,7.9-3.9,7.5-.8,14.7,1,22v-1l.12.9c2.3,14.2,8,27.2,15.1,39.7a101.86,101.86,0,0,1,7.3,15.8c2.8,7.7,2.9,15.2-1.1,22.6a26,26,0,0,0-3.4,12.8h0c-1.9,8.8-.2,17.5,1.9,26a166.72,166.72,0,0,1,4.6,28c.5,6.8-.5,13.1-4.3,19-9.7,15-17.6,30.8-21.8,48.3a141.35,141.35,0,0,1-9.4,26.7c-.1,2.2-1.2,4.1-2.2,6-1.6,3.1-2.6,6.1.4,8.9l.29.13h-.39c-3.3,3.3-5.5,7.4-7.5,11.7-.8,1.6-.8,2.7.7,3.8a67.08,67.08,0,0,0,25.5,12.9,2.75,2.75,0,0,0,3.4-1.2c3-4.3,2.8-9.6-.9-13.2-2.3-2.2-3.7-4.4-3.1-7.7l-.39-.14h.49c2.5-.2,3.4-2.2,4.4-4.1,6.8-12.4,11.8-25.7,16.3-39.1a5.32,5.32,0,0,0,2.4-3.1c4.4-10.1,10.2-19.3,16.1-28.6a130.1,130.1,0,0,0,12.5-24.3c.9-2.5,1.4-5.2,2.5-8.2,9.9,14.3,16.1,29,15.3,46.1-.2,3.7-1,7.6,1,11.2.2,9.7,2.6,19,5.4,28.2,3.3,11.1,2.5,23.1,7.6,33.8l.21-.12v.12c.4,2.4.4,5.2,3.6,5.8,5.1,1.2,11.3.2,13.9-3.3,3.4-4.5,7.2-4.2,11.3-4.8,10.1-1.5,18.6-5.7,24.4-14.5,1.5-2.2,2.8-4.6,1.2-7.4s-4.2-3.6-7.3-3.3a128.63,128.63,0,0,0-23,3.6c0,.1-.09.2-.14.31a1.55,1.55,0,0,0-.06-.31c-3.9-11.4-6.4-23-5.7-35.1-.6-12.4,0-24.9.6-37.3,1.2-25.79-3.69-50.37-15.77-73.36H117a2,2,0,0,1-.74-2.73.43.43,0,0,1,0-.07c2.7-3,1.6-6.1.7-9.3a49.38,49.38,0,0,1-.87-5.1l20.07,1h.19c5.34,3.16,10.68,6.22,16,9.39a3.6,3.6,0,0,0,4.4,0c7.4-4.3,14.9-8.3,22.4-12.5,2.2-2.4,5.5-1.9,8.1-3.2h0c5.1-.6,10.3-.7,15.3-1.9,8.3-2.2,15.3-6.4,18.5-15,.6-1.8,1-3.5-.9-4.8l-.41.18.21-.18c3.7-.9,6.7-2.9,9.9-4.7q49.5-28.5,99-57.1c19.5-11.2,38.9-22.5,58.4-33.6,1.5-.9,3-3.5,5.3-1.1l.11-.06v.06c-.4,7.4-2,14.6-3.5,21.9a24.32,24.32,0,0,0,.2,10.4c1.4,7.9,2.8,15.7,4.3,23.5.4,2,.2,3.6-1.7,4.7-8,15.2-17,29.7-28.1,42.8a25.08,25.08,0,0,0-4.76,7.9h0c-4.3,1.5-6.8,5.2-9.8,8.1-.6.5-1.4,1.1-.8,2.1a51.24,51.24,0,0,0,9,10.7c1.9,1.7,3.8,3.9,6.9,2,.3-.2,1.7.8,2.3,1.5,1.5,1.8,2.9,3.7,4.2,5.6,6.6,10.2,12.9,12.5,24.5,9.2,2-.6,2.6-1.6,2.7-3.5.3-5.2-2.5-7.8-7.1-9.4-4.77-1.7-9.25-3.89-9.69-9.92,1.28-2-.3-4.49,1.59-6.48,5.6-5.7,9.5-12.7,14.5-18.8,2.8-3.4,4.4-7.8,8.6-10,4.8-.4,9.2-2.7,10.6-6.9,1.9-5.5,5.8-7.8,10.5-8.5,7.2-1.1,11.4-5.7,15.2-11,1.6-2.3,2.4-4.7.8-7.4a14.51,14.51,0,0,0-6.76-3.39c10.17-10.39,14.77-23.07,15.86-37.55C454.23,253.33,450.83,226.73,445.33,200.33ZM99.89,290.74c-.09-.13-.18-.27-.26-.41l-.12-.19.12.09.42.1A2.9,2.9,0,0,0,99.89,290.74ZM308.83,161.33,309,161v.32h0l-.09.09A.58.58,0,0,1,308.83,161.33Zm97.8.9.09-.09v.43c-.24-.09-.47-.16-.69-.22A3.19,3.19,0,0,1,406.63,162.23Zm30.44,47.41a1.6,1.6,0,0,0,0-.31h.76Zm-10-162a1.24,1.24,0,0,0,.38-.09V48ZM92.74,246v.11l-.06-.09h.07ZM200.88,365.5c0,.11,0,.22.05.33s.07.13.1.21h-.9Z"/></g></g></g></svg>