<svg xmlns="http://www.w3.org/2000/svg" viewBox="0 0 448.75 669.22"><defs><style>.cls-1{isolation:isolate;}.cls-2{fill:#ed448b;}.cls-3{fill:#d8e5f2;}.cls-4{fill:#fc66a7;}.cls-5{fill:#2e3b89;}.cls-6{fill:#303030;}.cls-7{fill:#3f3e42;}.cls-8{fill:#d8e6f3;}.cls-9{fill:#d9e5f3;}.cls-10{fill:#874924;}.cls-11{fill:#874923;}.cls-12{fill:#221f24;}.cls-13{fill:#f0ab81;}.cls-14{fill:#552d0d;}.cls-15{fill:#fc90bf;}.cls-16{fill:#fc90be;}.cls-17{fill:#fc92bf;}.cls-18{fill:#fdcca7;}.cls-19{fill:#fc90bd;}.cls-20{fill:#f3b187;}.cls-21{fill:#f8b08c;}.cls-22{fill:#f9b28c;}.cls-23{fill:#bfcedb;}.cls-24{fill:#c0cbd7;}.cls-25{fill:#dde6ef;}.cls-26{fill:#dfe6ef;}.cls-27{fill:#dd4588;}.cls-28{fill:#c3cdd1;}.cls-29{fill:#cb2c6f;}.cls-30{fill:#f3af8c;}.cls-31{fill:#fdcca9;}.cls-32{fill:#c0cddb;}.cls-33{fill:#fc91bd;}.cls-34{fill:#fc91c0;}.cls-35{fill:#fc91be;}.cls-36{fill:#fd90bf;}.cls-37{fill:#da377b;}.cls-38{fill:#dd3a7f;}.cls-39{fill:#dd397e;}.cls-40{fill:#da367a;}.cls-41{fill:#dc397d;}.cls-42{fill:#dc387c;}.cls-43{fill:#dc387d;}.cls-44{fill:#da3679;}.cls-45{fill:#d9377a;}.cls-46{fill:#db377b;}.cls-47{fill:#db377d;}.cls-48{fill:#bdcbd6;}.cls-49{fill:#bcc9d8;}.cls-50{fill:#a23e00;mix-blend-mode:hue;}</style></defs><title>Asset 1</title><g class="cls-1"><g id="Layer_2" data-name="Layer 2"><g id="Layer_1-2" data-name="Layer 1"><path class="cls-2" d="M388.64,348.48c-2.28-2.44-3.82.23-5.27,1.06-19.52,11.12-38.94,22.39-58.39,33.62q-49.49,28.57-99,57.1c-3.16,1.81-6.24,3.84-9.86,4.73-4.29,3.84-8.82,7.29-14.74,8.08-1.54.21-3.65.33-4.24-1.63-.49-1.62,1.11-2.59,2.24-3.56,1.91-1.65,4.63-2.48,5.27-5.65a79.72,79.72,0,0,0-22.23,10.92c-10.67,3.88-21.29,1.24-31.9-.29a2.3,2.3,0,0,1-1.77-1.59,59.3,59.3,0,0,0,.22-18.85,35.6,35.6,0,0,1,.43-13.87c3.8-3.55,8.72-5.32,13.09-7.95,21.25-12.78,42.91-24.88,64.43-37.21,17.33-9.92,34.44-20.26,51.81-30.1,23.89-13.55,47.45-27.67,71.42-41.08q24-13.4,47.57-27.43c2-1.18,4.06-3.19,6.84-1.66,5.1,11.57,9.41,23.4,11.8,35.87a67.53,67.53,0,0,0,3.71,12.91c.53,3.33.68,6.57-2.07,9.16-7.57,4.42-15.23,8.71-22.86,13C392.85,345.41,391,347.31,388.64,348.48Z"/><path class="cls-3" d="M281,101c-4.45,5-9.93,8.68-15.06,12.83-5.49,1.28-9.21,5.57-13.83,8.34-4,2.38-7.94,4.81-11.82,7.35-6.7,4.37-13.15,4.37-19.94-.17-8.71-5.82-15.24-13.69-21.64-21.72a38.65,38.65,0,0,1-4.22-6.12c-.69,5,.43,9.71-.49,14.3,0,16.87,2.36,33.49,4.69,50.16,1.3,9.27,2.8,18.62,2.25,28.08-4.47,7.16-12.07,9.33-19.3,12.09A131.74,131.74,0,0,1,157.79,211c-9.33,1.09-18.27-.31-26.22-5.63-1.95-1.31-3.51-1.41-5.35-.21-1.35-8.3.32-16.43,1.51-24.55.59-4.09.38-6.59-4.74-7.07-2.95-.27-5.91-.52-8.88-.61-4.8-.14-9.56-.31-14.37-.84-12.41-1.35-13.91-6.24-12.42-16.78,2.79-19.8,9.48-38.57,17.58-56.77,3.09-7,9.12-11.9,15.08-16.31,3.2-2.37,5.91-5.3,9.26-7.46,1.79-1.16,2.68-1.68,4.17.69,7.16,11.35,19.25,15.06,30.92,19.31,1.58.57,3-.34,3.88-1.64,5.4-7.77,7-16.23,4.38-25.39-.12-.43-1.07-.62-1.64-.93.9-2.4,2.78-3,5.11-2.8,1.23,1.56,2.89.36,4.15.32,12.2-.43,16.7,9.64,22.82,17C210.35,90,216.86,99.42,224.41,108c1.57,1.78,2.41,1.65,4.48.75A373,373,0,0,0,270.14,88C272.62,93.28,277.33,96.73,281,101Z"/><path class="cls-4" d="M403.8,273c-22.28,12.8-44.38,25.94-66.91,38.29-21.21,11.64-41.78,24.4-63,36.11-13.46,7.44-26.67,15.45-40,23.21-16.78,9.77-33.65,19.39-50.46,29.13-7.89,4.57-15.74,9.24-23.58,13.92-3.13,1.87-6.11,4-9.91,4.38-1.75,1.16-3.19.08-4.57-.74-10.93-6.51-22-12.71-32.85-19.44-2.33-2.56-3.46-5.87-5.44-8.67-2.3-3.26-4.85-6.13-8.44-8-1-1.81-4-2.87-2.22-5.73,5.12-.06,10.2,0,15.22-1.59,7.71-2.4,9.93-5.09,10-13.23a37.88,37.88,0,0,0-.39-7.45c.43-10.13-.77-11.79-10.78-15.39-1.42-.51-3.48-.48-3.42-2.86l17.73-10.26a1.24,1.24,0,0,1,1.51.14c1.87,3.06,1,6.46,1.12,9.72.28,7,2.49,10.47,9.22,12.49a34.94,34.94,0,0,0,23-.51c6.15-2.35,8-5.07,8-11.63a62.58,62.58,0,0,0-.22-8.44c.49-9.4-.29-10.61-9.31-14.35-1.82-.76-3.76-1.33-5.13-2.9-.61-2.14,1.06-2.91,2.39-3.77,2.91-1.85,5.83-3.68,8.89-5.26a13.44,13.44,0,0,0,4.57-2.54c2,0,2.07-3.7,4.72-2.49a4.87,4.87,0,0,1,.78,4.22c-1.44,3.87-1,7.86-.6,11.8.39,3.56,2.57,6.09,5.63,7.75,8.91,4.84,18.07,5,27.25.95,4.26-1.9,6.53-5.52,6.92-10.19a54.25,54.25,0,0,0-.11-10.43c.47-8.72-1.88-11.88-10.43-13.93-1.76-.43-3.61-.59-4.94-2.06,0-4.16,3.31-4.36,6.13-5.15,4.75-1.09,8.31-4.6,12.76-6.3a1.06,1.06,0,0,1,1.45.14c1.49,2.26,1,4.83,1.05,7.29.1,10.13,1.57,12.79,11.35,15.24,7.58,1.89,15.5,2.44,22.85-1.67,3.3-1.86,5.32-4.46,5-8.48-.27-3.66,1.3-7.23.63-10.92,1.8-7.72-2.79-11.44-8.84-14.38-1.86-.91-4.76-1-4.51-4.23,5.7-4.22,12.58-6.48,18.06-11l.58.53c1.53,3.52.85,7.24.79,10.85-.1,6.22,3.05,10.12,8.43,12.28,8.51,3.4,17,2.7,25.25-1,3.38-1.52,5.67-4.12,5.61-8.13-.05-3.62,1.8-7.21.13-10.83.54-9.16-1.09-11.63-9.91-15.44-1.49-.65-3.81-.5-3.83-3.08l18.83-11.15c1-.25,1.41.34,1.64,1.18-.09,3.65,0,7.31-.15,10.95a10,10,0,0,0,6.82,10.52c9.18,3.48,18.49,3.56,27.55-.88a8.17,8.17,0,0,0,5-7.87c.08-4.11-.27-8.32,1.48-12.25a2.41,2.41,0,0,1,1.14-.9c4.85,1.15,8.6,4.49,12.94,6.67,1.44.72,2.68,1.85,4.29,2.28,1.3.93,3.11,1.55,2.38,3.76-2.7,1.53-5.86,2.09-8.38,4-4,3-5.9,6.88-4.92,11.94-.5,3.81-.23,7.63-.28,11.44-.06,4.12,2,6.91,5.52,8.71,8.88,4.52,18,4.3,27,.63,4.29-1.74,7-4.87,6.55-10a31.69,31.69,0,0,1-.06-6.46c.42-3.57,2.33-4.42,5.56-2.64C404.69,256.86,405.56,264.92,403.8,273Z"/><path class="cls-5" d="M46.92,603.76c-4.52,13.43-9.49,26.66-16.31,39.13-1,1.92-1.91,3.89-4.45,4.12-6.67-.29-12.29-3.59-18.13-6.25C5,637.92,6,635,7.68,631.9c1-1.86,2.1-3.79,2.17-6a139.46,139.46,0,0,0,9.36-26.73c4.23-17.52,12.12-33.29,21.8-48.27,3.81-5.9,4.79-12.18,4.32-19a164.66,164.66,0,0,0-4.58-28c-2.08-8.53-3.79-17.18-1.86-26.05,2.34-2.48,4-.43,5.33,1.09,12,13.82,27.53,19.77,45.45,19.86,7.34,0,14.73-.68,19.47-7.69a4.16,4.16,0,0,1,3.84-1.9c12.13,23,17,47.55,15.79,73.38-.56,12.44-1.15,24.87-.58,37.32-.73,12.14,1.8,23.74,5.74,35.11,1.16,5.52-.44,9.54-5.07,13.3-5.8,4.72-12.84,6.76-19,10.57-5.07-10.68-4.26-22.68-7.61-33.77-2.78-9.19-5.22-18.51-5.41-28.22-2-3.58-1.22-7.51-1-11.23.8-17.11-5.37-31.82-15.35-46.12-1.13,3-1.58,5.68-2.5,8.19a129,129,0,0,1-12.49,24.35c-5.87,9.26-11.68,18.55-16.13,28.62A5.92,5.92,0,0,1,46.92,603.76Z"/><path class="cls-6" d="M113,489.2c-.68.49-1.58.83-2,1.48-5.49,9-14.21,9.36-23.42,9.37-14.84,0-27.31-5.81-38.94-14.3-2.64-1.93-4-4.88-6.26-7.06-1.12-1.06-2.1-1.51-3.49-.85A25.79,25.79,0,0,1,42.33,465c4-7.44,3.88-14.86,1.1-22.57a102.42,102.42,0,0,0-7.29-15.77C29.07,414.18,23.37,401.17,21,386.92c-1-7.34-1.77-14.6,1.27-21.76,1.39-3.28,3-6.16,6.09-8.1,5.88-5,12.52-5.18,19.51-3a6.69,6.69,0,0,1,3.3,2.08,23,23,0,0,0,16.4,7.28c6.49.17,12.38,2,18.21,4.42,3.68,2.29,7.68,4.21,10,8.16.92,1.77,3.09,2.55,3.62,4.62-4,2.93-9.32,3.78-12.45,8.05-4.38,5.32-8.08,11-9.7,17.83-2.35,9.94-.36,15.42,8.09,21.54,3.44,1.7,4.49,5.06,5.89,8.24,5.27,11.95,11,23.67,19.78,33.54a7.53,7.53,0,0,1,1,2.24,46.85,46.85,0,0,0,.89,5.32c.89,3.19,2,6.26-.68,9.26C111.67,487.19,112,488.53,113,489.2Z"/><path class="cls-5" d="M402,440.78c-4.16,2.2-5.81,6.61-8.61,10-5,6.09-8.88,13.13-14.49,18.78-1.94,2-.3,4.53-1.64,6.47a15.23,15.23,0,0,0-5.85-5,75.44,75.44,0,0,1-16.3-11.31,24.9,24.9,0,0,1,4.82-8C371,438.61,380,424.12,388,408.92c1.91-1.08,2.06-2.68,1.67-4.68-1.5-7.81-2.86-15.65-4.34-23.46a25.88,25.88,0,0,1-.24-10.37c1.54-7.25,3.15-14.49,3.55-21.92.22-1.16.47-2.28,1.62-2.91l26.66-14.79c2.83.51,4.31,3.4,7.36,3.81,5.66.77,9.7-2,13-5.82s.3-7.82-.62-11.72c-3.39-6.79-4.27-14.06-4.22-21.52,4.47-1.82,7.67-4.82,8.87-9.65,5.54,26.41,8.91,53,6.9,80.07-1.07,14.49-5.67,27.17-15.93,37.61.65,1.3-.1,2.26-.87,3.1C421.29,417.81,411.75,429.39,402,440.78Z"/><path class="cls-7" d="M165.1,300.63c-3.62,3.37-8.73,4.54-12.14,8.23a3.22,3.22,0,0,1-2.62,1.25,40,40,0,0,0-19.62,5,2.06,2.06,0,0,1-2.35-.2c1.23-15.51-.1-30.93-1.35-46.36-1.7-21.11-.81-42.25-.8-63.38.31-1.42.62-2.83,1-4.72,15.08,13.62,32.1,9.37,49,5.85,1.94-.4,3.85-.89,5.78-1.34,2.64,3.58,1.66,7.75,1.4,11.57-.83,12.09-.69,24.22-1.65,36.32a111,111,0,0,1-8,32.25c-2.58,1.4-2.7,4.26-3.89,6.51C168.3,294.6,167.84,298.22,165.1,300.63Z"/><path class="cls-8" d="M433.24,295c.95,7.44,1.18,15,4.66,21.94a28.09,28.09,0,0,1-8.33,5.92c-3.49,1.68-7.19,2.47-10.3-1-2.25-1.87-2.59-4.65-3-7.18C414,300.2,408.22,286.79,403.8,273c-1.45-8.3-.33-16.7-.93-25-.27-1.88-.13-3.77-.23-5.66-.25-7.59,0-15.17.42-22.74,2.91-10.41,4.95-21.12,10-30.86,4.55-6.51,11.48-8.59,19.22-5.79,9.07,4.37,10.22,12.9,10.63,21.4.25,5.16,1,10.47-.65,15.61-1.88-1.81-1.52.2-1.75,1-3,11-3.84,22.39-7,33.24-3.35,11.44.5,22.44.56,33.65C434.05,290.29,435.05,292.8,433.24,295Z"/><path class="cls-9" d="M112,472c-4.42-2.72-6.82-7.16-9.51-11.32a143.68,143.68,0,0,1-13.62-27.08c-.79-2.06-1.7-3.8-3.9-4.56-3.71-10.78-4.19-21.76-2.47-33C83,392.94,85,390.76,86.1,388c3.38-4.33,7.69-7,13.27-7.44,6.28,2.09,8.61,7.84,11.77,12.79a33.53,33.53,0,0,1,1.74,3.5c2.07,2.3,2.94,5.13,3.69,8,3,11.59,4.64,23.43,6.92,35.14,1.32,6.8,1.35,6.8,8,7.76,4.27.62,8.55,1.11,12.83,1.64,1.62.2,3.37.05,4.49,1.63,11.35,2.16,22.71,4,34.19.79,2.62,4.89,2.24,9.86.33,14.85-2.63,1.25-5.91.84-8.11,3.18-6,.81-11.82,2.35-17.9,2.86a155.31,155.31,0,0,1-25.15.17Z"/><path class="cls-6" d="M403.94,219.09c1.78,5.73-.29,11.48,0,17.22a74.51,74.51,0,0,1-.32,7.45c-.55,1.15.68,3.2-1.56,3.47-1.4.17-1.79-1.08-2.16-2.16-.28-7.3-8.43-12.23-17.26-12.8-3.22-.21-6.68,1-9.59-1.39L370.19,228c-4.92-5.19-7-12-10.08-18.17-4.68-9.32-7.4-19.17-6.45-29.79.52-5.8,2-11.09,6.53-15.08a20.38,20.38,0,0,1,14.21-6.3,15.76,15.76,0,0,0,6.65-1.91,2.74,2.74,0,0,1,2.66,1c5.9,6.54,13.74,8.06,22,8.89,4.38.44,9,.7,12.36,4.26,5.59,3,9.65,7.77,14.21,12-6.93-.61-13.47,0-18.23,6-.68.92-1,2.08-1.88,2.87C404,199.24,401.81,208.52,403.94,219.09Z"/><path class="cls-10" d="M386.91,146c1.27-3.56-1.12-6-2.69-8.64-6.63-11.31-9-23.12-4.6-35.86,2.73-8,8.34-12.74,16.4-14.42,10.21-2.12,20.54-1.75,30.78-.08,6.89,1.12,8.9,6.14,5.05,12-1,1.53-2.37,2.87-1.59,4.94a14,14,0,0,1-.44,9.71,108.06,108.06,0,0,0-4.42,16.32c-.63,3.13-1.9,4.75-4.9,1.84-2.84-2.75-4-.71-4.76,1.85-.51,1.76-.26,3.63-.32,5.45-.44,12.79-10.73,19.3-22.54,14.25a45,45,0,0,1-5.34-2.66C386.17,149.23,386.41,147.61,386.91,146Z"/><path class="cls-11" d="M53,345.93c.81-4.17-.65-7.6-2.83-11.16-5.92-9.7-8.45-20.18-5.54-31.49S54,286.24,65.5,285a121.42,121.42,0,0,1,24.41,0c8.41.78,10.77,5.72,6.39,13-1.24,2-1.73,3.89-.29,6,.67,2.71-.07,5.25-.94,7.78-1.79,5.19-3.49,10.4-4,15.93-.14,1.63-.52,3.59-2.29,4.13-1.56.47-1.95-1.45-2.8-2.36-2.14-2.26-3.5-1.32-4.28,1.12-.56,1.76-.3,3.63-.33,5.46-.23,13.71-10.82,20.34-23.22,14.52-1.79-.85-3.69-1.56-5.08-3.08A1.13,1.13,0,0,1,53,345.93Z"/><path class="cls-12" d="M172.08,285.91a118.94,118.94,0,0,0,9-45.72c-.14-11.77,1.66-23.48,1-35.25A58.86,58.86,0,0,0,201,194.08a496.75,496.75,0,0,1,3.34,73.56c-.07,3.49-.1,7-.15,10.46l-6.48,4.61c-1.12,1.63-2.88,1.53-4.49,1.5-8.67-.15-15.94,2.33-20.27,10.51-1,1.24-.36,4.2-3.43,3.21C167.23,293.25,170.59,289.78,172.08,285.91Z"/><path class="cls-13" d="M176.06,64c-1.08,2.08-3.48,1.75-5.11,2.8-2.16-.24-3.6.41-3.66,2.86,0,1.17-.08,2.33-.15,3.49-.66,11-4.44,13.39-14.82,9.25a50.57,50.57,0,0,1-6.27-3.08c-6.72-3.8-7.17-5.13-5.23-12.55a66.55,66.55,0,0,0,2-10.23c.42-4.29-3.9-5.78-5.81-8.72a4,4,0,0,1-.5-.85c-1.77-5.49-.21-10.79,3.56-12.09,3.29-1.14,6.06,1.07,8.6,6.91A125.67,125.67,0,0,1,146.83,25c-.46-7.3,3.25-9.57,9.44-5.92,6.48,3.82,12.92,6.09,20.06,1.84a1.49,1.49,0,0,1,1.83.27c.15,6.6.3,13.11,1.59,19.71C181.29,48.75,179.66,56.66,176.06,64Z"/><path class="cls-14" d="M178.16,21.14c-7.8,5.73-15.24,3.84-22.62-1-1.68-1.09-3.36-3.35-5.73-1.7-2.05,1.42-1.71,3.89-1.52,6,.54,6.11,1.23,12.22,1.94,18.32.16,1.36.66,2.78-1.26,3.13-2.15.39-1.84-1.22-1.93-2.53a13.92,13.92,0,0,0-.49-3.43c-.82-2.55-2.45-4.62-5.28-4.51-3.17.12-3.8,2.86-4.07,5.4-.23,2.31-.13,4.65-.18,7-9.55-7.3-11.61-17.46-9.77-28.42C128.9,9.55,135.3,3.26,145.05.79a23.21,23.21,0,0,1,16.89,1.9,59.45,59.45,0,0,0,12.32,5.22C183.15,10.25,184.19,13.94,178.16,21.14Z"/><path class="cls-15" d="M128.37,314.89a40,40,0,0,1,24.59-6c3.51,1.43,7.19,2.54,10.49,4.34,5.85,3.19,6.75,6.14,4.63,12.77.29,2-1,3-2.34,4-10.92,8.8-31.53,6.15-39.71-5.1l-1.22-.23C127.84,322.08,127,318.08,128.37,314.89Z"/><path class="cls-16" d="M218,271.88l-1.08-.08c2.23-8.86,7.33-14.34,16.95-15.06,4-.3,8.19-.4,12.06-2,2.38,3.19,6.54,3.35,9.54,5.65,5.41,4.15,6.35,6,4.54,12.41-.6,2.95-2.93,4.36-5.26,5.63-10,5.46-20.16,4.64-30.18,0A12.9,12.9,0,0,1,218,271.88Z"/><path class="cls-15" d="M354,218.94l-1,.09c-3.17,7.77-10.42,8.93-17.25,9.84a31.82,31.82,0,0,1-19.35-3.43c-2.57-1.37-5.42-2.84-5.3-6.53l-1.16-1.15c1.1-8.62,8.51-14.21,19.38-14.79,6.31-.34,12.12,1.31,17.75,3.94C352.44,209.12,353.93,213.61,354,218.94Z"/><path class="cls-17" d="M291.05,228.91c3.31,2.13,7.31,2.75,10.54,5.2,6,4.52,6.54,6.15,3.55,12.9.26,2.25-1.35,3.29-2.92,4.19-10.17,5.87-20.67,5.15-31.13,1.08a12,12,0,0,1-7-8,4.39,4.39,0,0,1-.13-.52c1-8.17,7.39-13.08,18.25-13.82C285.21,229.73,288.19,229.9,291.05,228.91Z"/><path class="cls-18" d="M281,101c-5.42-2.87-10-6.45-10.9-13.08,4-3.52,8.08-6.9,11.87-10.6,8.94-8.75,19-7.51,28.13-1.74,3.64,2.29,3.45,6,2.81,9.36-.68,3.59-4,3.08-6.53,2.9-6.15-.45-11.06,1.84-15.07,6.25C288.46,97.3,284.23,98.36,281,101Z"/><path class="cls-19" d="M107.08,334.94c1.57,1.37,3.56,1.52,5.46,2,8.41,2.27,11.73,7.88,9.47,15.86-.25,2-1.61,3.21-3.08,4.28-7.42,5.41-27.74,6.79-36.06-2.47-1.28-2.76.52-4.52,2.3-6A43.44,43.44,0,0,0,96.1,335.92C99.75,335.51,103.5,336.14,107.08,334.94Z"/><path class="cls-20" d="M387.91,150.06c2.24-.51,3.68,1.21,5.43,2,11.21,5.2,21.63-2,20.74-14.32-.05-.66-.11-1.32-.15-2-.25-3.44.61-6.66,4.12-7.65s3.08,3.18,5.61,5.35c.53-10.64,5.94-19.52,6.6-29.61,3.05,5.34,4.48,10.88,3.12,17.14-1.41,6.46-2.21,13.06-3.36,19.58-.73,4.11-3.28,6.81-7,8.37-4.86,2-7.4,5.46-7,10.84-1.56,1.67-3.56,1.53-5.53,1.28a93.26,93.26,0,0,1-16.88-3.69C390.2,156.3,387.23,154.5,387.91,150.06Z"/><path class="cls-21" d="M96.1,335.92c.2,4.45-3,7-5.61,9.77s-6.36,4.1-7.48,8.06a4.7,4.7,0,0,1-.89,3.88c-.48.46-1,1-1.65,1-9,.16-17.68-1.33-25.41-6.31a4.34,4.34,0,0,1-1.76-5.55c3.74.91,6.68,3.62,10.55,4.36,8.61,1.64,16.86-5.41,16.3-14.17-.08-1.16-.3-2.31-.34-3.47-.1-3.08-.08-6.38,3.54-7.4,3.82-1.08,3.63,2.95,5.74,5.6.82-10.14,4.23-18.89,6.92-27.84,3,4.11,3.19,8.83,2.63,13.58C97.93,323.63,97,329.77,96.1,335.92Z"/><path class="cls-6" d="M433.24,295c-1.29-9.72-1-19.61-3.18-29.25-.79-3.51,1.15-6.82,1.9-10.2,2.53-11.36,3.64-23,6.9-34.21a17,17,0,0,1,3-6.58c.15,2.19.24,3.65.34,5.11-2.65,22-2.55,44-1,66C440.79,293.83,439.76,295,433.24,295Z"/><path class="cls-22" d="M183.32,466.73,183,451.88c.92-1.93,2.65-2.88,4.46-3.77,5.06-2.48,10.12-5,15.14-7.51,1.51-.77,2.89-1,3.92.56,1.14,1.73.49,3.07-1.15,4.18-2.68,1.81-5.31,3.72-9.15,6.43,5.1.05,8.24,1,11.32-2.94,1.37-1.77,5.71-2.43,8.6-3.84,1.86,1.32,1.5,3,.85,4.79-3.19,8.65-10.24,12.79-18.47,15C193.62,466.05,188.4,466.11,183.32,466.73Z"/><path class="cls-23" d="M194,115.84c-2-5.62-.53-11.33-.47-17.23,4.84,8.07,11.37,14.51,17.45,21.34a43.14,43.14,0,0,0,16.56,11.53c4.25,1.68,8.19-.68,11.73-2.79,7.56-4.48,14.92-9.29,22.41-13.89,1.24-.75,2.41-2.65,4.26-.94-8.66,6.14-17.29,12.32-26,18.4-9.36,6.53-16.4,6.4-25.54-.53C207.57,126.52,200.84,121.15,194,115.84Z"/><path class="cls-24" d="M354,218.94c-1.94-4.22-3-9-6.94-12a155.84,155.84,0,0,1,4.78-29.9c1.24-4.57,2.63-10.11,8.4-12-7.93,12.63-6.74,25.66-1.28,38.66,3.46,8.25,7.5,16.26,11.28,24.38C364.13,226.17,359.13,222.39,354,218.94Z"/><path class="cls-6" d="M402,440.78c2.84-7.12,8.79-11.9,13.41-17.65,5.39-6.71,11.22-13.06,16.85-19.56a15,15,0,0,1,6.82,3.35c1.57,2.66.83,5.12-.79,7.39-3.82,5.34-8,9.89-15.19,11-4.74.73-8.58,3-10.46,8.55C411.18,438.07,406.8,440.4,402,440.78Z"/><path class="cls-25" d="M387.91,150.06a9.45,9.45,0,0,0,7.3,6.46c6.88,1.48,13.62,3.78,20.81,3.28.75,3.7,4.59,6.82,2,11.12-6.65-2.18-13.52-3.2-20.44-4.08s-12.13-4.91-16.56-10.05c3.65-2.69,4.95-6.66,5.86-10.83C387.14,147.35,386.25,149,387.91,150.06Z"/><path class="cls-26" d="M53.3,346.8c.57,1.33.85,2.91,1.74,4,3.48,4.09,21.77,8,27,6,3.17,3.59,5.53,7.48,4.52,12.58a67.24,67.24,0,0,0-19.61-4.69c-7.78-.54-14.77-3.41-19.09-10.62,2.65-2.11,3.94-5.08,5.16-8.1A2.68,2.68,0,0,1,53.3,346.8Z"/><path class="cls-27" d="M132.16,472.94c.93-1.44,2.39-.82,3.61-.84,12.39-.15,24.76-.44,36.94-3.07.95-.2,2-.35,2.5.88-7.49,4.16-15,8.23-22.45,12.53a3.66,3.66,0,0,1-4.42,0C143,479.2,137.56,476.1,132.16,472.94Z"/><path class="cls-28" d="M28.31,357.06c-6.79,8.88-7.73,19.21-7.36,29.86-1.75-7.27-4.93-14.51-1-22C21.78,361.42,23.51,357.55,28.31,357.06Z"/><path class="cls-29" d="M148.8,451.09c-7.58-.69-15.15-1.48-22.73-2-2.66-.18-2.63-1.87-3-3.68q-3.94-20.22-8-40.4c-.56-2.74-1.44-5.42-2.18-8.12q16.32,9.5,32.65,19c1.42.82,3,1.43,4.46,2.13q.51,14.69,1,29.35C151.09,449.09,151,450.69,148.8,451.09Z"/><path class="cls-30" d="M419.27,321.86c4.65,2.08,8.82,1.32,12.78-1.87,1.69-1.36,3.08-3.62,5.85-3,.71,2.89,1.55,5.75,2.08,8.67.45,2.51-5.36,8.74-9,9.88-6.11,1.93-10.16.58-14.09-4.72C419.82,328.37,418.87,324.94,419.27,321.86Z"/><path class="cls-6" d="M109.87,658.88c-.15-2.67,1.87-3.27,3.77-3.7,6.65-1.5,11.43-6.25,17-9.68,2-1.2,2.15-3.61,2.41-5.7.21-1.63.11-3.29.92-4.79A127.9,127.9,0,0,1,157,631.45c3.07-.25,5.71.54,7.27,3.27s.25,5.18-1.24,7.43c-5.81,8.75-14.25,13.05-24.45,14.5-4.06.58-7.92.26-11.28,4.77-2.59,3.46-8.76,4.47-13.94,3.35C110.29,664.1,110.28,661.3,109.87,658.88Z"/><path class="cls-6" d="M8,640.76c6.61.44,12,4.32,18.13,6.25-.64,3.25.84,5.51,3.11,7.7,3.73,3.61,3.85,8.87.88,13.15a2.71,2.71,0,0,1-3.35,1.21A67,67,0,0,1,1.24,656.21c-1.45-1.14-1.53-2.2-.74-3.84C2.54,648.19,4.69,644.1,8,640.76Z"/><path class="cls-31" d="M148,166c.14-8.23,2-10.58,10.08-10.94,9-.4,17.37,2.19,24.14,8.54,3.08,2.89,4.1,6,.4,9.33a30.46,30.46,0,0,0-2.43,3.14c-2.69,3.14-5.6,4.56-10,2.81-6.12-2.45-12.19-5.13-18.75-6.41C147.45,171.7,147.79,168.39,148,166Z"/><path class="cls-32" d="M126.94,116c5.06,11.38,8.69,22.44,10.09,34.18.38,3.22-.45,5.18-4.23,4.73a21.27,21.27,0,0,0-5,0c-3.37.4-5.47-.75-6-4.28a2.93,2.93,0,0,0-.62-1.35c-5.29-6.59-4.39-13.08-.27-19.94C123.32,125.45,124.76,121,126.94,116Z"/><path class="cls-33" d="M129.07,378.88c-.07-8.6,2.88-12.8,11.38-14.81s17.05-2.49,24.92,2.45c5.74,3.6,6.82,6.89,4.69,13.42.3,2.65-1.52,4-3.41,5-10.56,5.63-21.29,6-32,.52C132,384.1,129.51,382.27,129.07,378.88Z"/><path class="cls-34" d="M373.07,230.88c6.61-.18,13.26-.61,19.47,2.4,4.87,2.35,8.78,5.41,8.33,11.59a11.12,11.12,0,0,1-7.79,9.39c-9.23,3.1-18.6,3.37-27.69-.52-2.92-1.25-6.28-2.65-6.36-6.8C356.47,239.17,363,231.7,373.07,230.88Z"/><path class="cls-16" d="M222,327c-2.29-7.56-.65-11.18,6.67-14.07,9.9-3.9,19.64-4.27,29.19,1.34,3.68,2.16,6.1,4.54,4.37,9.19-.39,1-.12,2.31-.16,3.47.36,2.63-1.44,4-3.32,5-11.16,6.2-22.38,5.87-33.56,0C223.25,330.91,221.39,329.67,222,327Z"/><path class="cls-35" d="M267.09,299.8c-2.36-4.94.18-8.31,3.8-11.13,7.3-5.68,23.27-6.62,31.37-2s8.75,8,2.9,16.31c0,2.76-2.23,3.71-4.18,4.3-10.49,3.14-20.87,3.86-30.57-2.55C268.67,303.62,266.59,302.53,267.09,299.8Z"/><path class="cls-15" d="M175,352c-1.8-4.08,0-7,3-9.56,9.6-8.06,27.93-7.89,37.78,1.2,2.67,2.46,1.38,6.21.3,9.4-1.34,5.83-6.31,7.62-11,8.55-7.81,1.54-15.81,1.61-23.3-1.95C178.55,358.07,175.12,356.45,175,352Z"/><path class="cls-36" d="M313,273.05c-1.51-6.65.11-10.36,7.71-13.28,9.71-3.75,19.65-4.27,28.9,1.89,5.3,3.53,6.15,6,4.44,12.17a7.7,7.7,0,0,1-4.64,5.5c-10.61,5-21.3,5.76-31.81-.31C315.3,277.71,313,276.19,313,273.05Z"/><path class="cls-15" d="M172.93,294.72c-.45-4.85,2.92-7.05,6.44-9,5.73-3.13,12-3.24,18.32-3a96.51,96.51,0,0,1,9.57,2.45c6.48,2.34,8.92,7.54,6.76,13.68-.4,4.64-4.14,6.43-7.59,7.58-8.87,3-17.91,3.18-26.57-.93-2.7-1.28-5.88-2.62-5.85-6.56Z"/><path class="cls-37" d="M313,273.05c9.92,11.69,28.43,12,41,.78,2.66,14.59-.09,22.09-14.63,24.18-7.82,1.13-15,.22-21.84-3.74-4-2.29-6.22-5.33-5.51-10.1C312.59,280.49,311,276.61,313,273.05Z"/><path class="cls-38" d="M174,298.93c9.23,11.35,31.22,11.3,40-.09,4.49,12.36-1.39,22.92-14.36,24.82-6.72,1-13.54.62-19.86-2.78-7-3.75-10.62-14.32-7.14-21.46C172.81,299.11,173.55,299.09,174,298.93Z"/><path class="cls-39" d="M264.13,244.27c10.13,12,30.91,13.34,41,2.74.46.17,1.21.21,1.34.53,3.16,7.19-1.9,18.64-9.21,21.21a34.36,34.36,0,0,1-23.86.14c-6.23-2.27-9.35-6.61-9.36-13.14C264,251.92,264.1,248.09,264.13,244.27Z"/><path class="cls-40" d="M129.07,378.88c10.93,11.72,31.74,12.26,41,1.06,5.06,14.56-5.43,26.94-20.48,24.4-4.88-.83-9.8-1-14.41-3.29-4.9-2.47-7.32-6.18-7-11.5C128.37,386,127,382.27,129.07,378.88Z"/><path class="cls-41" d="M126,324.91c2.4-.26,2.65,2.16,4,3.18,9.25,7,28.74,9,38-2.12,2.64,15.25,1.2,19.95-12,23-8.17,1.91-16.33,1.8-24-2.54a10.74,10.74,0,0,1-5.94-10.1Q126.07,330.64,126,324.91Z"/><path class="cls-42" d="M175,352c2.74,4.88,7.32,7.22,12.49,8.1,10.48,1.81,20.87,2.54,28.62-7.06,3.2,15.2-.22,22.86-17.07,24.77-7.65.87-15.34.25-21.37-5.69-.83-.81-2.14-1.76-2.15-2.65C175.45,363.63,173,357.86,175,352Z"/><path class="cls-43" d="M267.09,299.8a17.63,17.63,0,0,0,11.54,7.26c9.19,1.48,18.53,2.83,26.53-4l3.15-1.31c3.5,15.39-3.33,22-18.29,23.16-6.36.49-12.56-.29-18.06-3.94-3.93-2.61-6.82-5.8-5.92-11C266.61,306.56,264.93,303,267.09,299.8Z"/><path class="cls-44" d="M311,218.91c6.5,9,16.1,9.11,25.63,8.5A22.61,22.61,0,0,0,352.94,219c-.3,4.74-.66,9.47-.88,14.21-.09,1.88-.31,3.51-1.77,4.95-8.31,8.14-31.3,7.69-37.33.34a11.4,11.4,0,0,1-2.89-9C310.43,226,309,222.28,311,218.91Z"/><path class="cls-40" d="M218,271.88c8.46,8,18.4,10.49,29.73,8.05A24.54,24.54,0,0,0,260,272.85c1.61,5.88,1.25,12.26-1.25,17.15-2.63,5.18-8.85,7-15.11,7s-12.56.22-18.49-2.8c-4.39-2.23-7.23-5.09-7.11-10.31C218.16,279.87,218,275.88,218,271.88Z"/><path class="cls-45" d="M359,246.94c2.08,3.24,5.19,5.09,8.71,6.32,8.15,2.85,16.37,2.5,24.47,0a13.59,13.59,0,0,0,8.66-8.37c.35.84.39,2.22,1.73,1.82s.19-2.13,1-2.95c.28,1.51.74,3-.77,4.2-2.5.39-3.62,1.49-3.27,4.35a40,40,0,0,1,.06,10.2c-.52,3.92-4.38,5.75-7.23,6.82-9.21,3.48-18.66,4.11-27.89-.64-4.42-2.28-7.07-5.47-6.49-10.63C358.47,254.35,356.83,250.47,359,246.94Z"/><path class="cls-46" d="M222,327c.94,2.62,3.3,3.59,5.53,4.72,11,5.56,28.37,3.9,34.54-4.79,4.45,12.66-3.15,23.84-16.32,24.05-6.83.12-13.59.36-19.8-3.54-3.88-2.44-6.61-5.38-5.76-10.07C220.79,333.89,217.9,329.78,222,327Z"/><path class="cls-47" d="M86.52,369.34q-2.26-6.29-4.52-12.58c.07-1.1-.24-2.31,1-3,9,8.51,31,8.58,39-.92,4.29,11.49.24,19.66-11.13,22.7-5,1.34-10,2-15.13.44Z"/><path class="cls-6" d="M355.08,459.72c4.44.79,7.1,4.51,10.77,6.57,3,1.66,5.4,4.27,9.06,4.65s1.35,3.47,2.32,5.08c.4,6.1,4.89,8.31,9.73,10,4.61,1.57,7.43,4.18,7.12,9.4-.12,1.88-.71,2.92-2.72,3.5-11.58,3.34-17.9,1-24.54-9.16a59.62,59.62,0,0,0-4.18-5.58c-.59-.71-2-1.73-2.33-1.51-3.12,1.92-5-.27-6.88-2a53.65,53.65,0,0,1-9-10.68c-.63-1,.23-1.58.76-2.09C348.29,464.9,350.79,461.22,355.08,459.72Z"/><path class="cls-48" d="M86.1,388c-3.63,12.4-4.9,24.82-.37,37.29.53,1.46-.24,2.56-.78,3.75-7.82-4-11.43-11.41-9.71-20.24A41.4,41.4,0,0,1,86.1,388Z"/><path class="cls-49" d="M403.94,219.09c-3.8-6.08-3-12.36,0-18.29A32.3,32.3,0,0,1,414,188.88c-.25,4.08-2.79,7.37-4.21,11C407.35,206.17,407.62,213.24,403.94,219.09Z"/><path class="cls-50" d="M441.26,285.89h0c-1.57-22-1.67-44,1-66h0c1.63-5.14.9-10.45.65-15.61-.41-8.5-1.56-17-10.63-21.4h0c-4.56-4.2-8.62-9-14.21-12h0c2.56-4.3-1.28-7.42-2-11.12h0c-.45-5.38,2.09-8.83,7-10.84,3.77-1.56,6.32-4.26,7-8.37,1.15-6.52,2-13.12,3.36-19.58,1.36-6.26-.07-11.8-3.12-17.14-.78-2.07.59-3.41,1.59-4.94,3.85-5.83,1.84-10.85-5.05-12-10.24-1.67-20.57-2-30.78.08-8.06,1.68-13.67,6.44-16.4,14.42-4.37,12.74-2,24.55,4.6,35.86,1.57,2.66,4,5.08,2.69,8.64h0a10,10,0,0,0-.32,1.37c-.91,3.66-2.29,7.07-5.54,9.46h0a15.62,15.62,0,0,1-6.65,1.91,20.38,20.38,0,0,0-14.21,6.3h0c-5.77,1.9-7.16,7.44-8.4,12a155.84,155.84,0,0,0-4.78,29.9h0c-5.63-2.63-11.44-4.28-17.75-3.94-10.87.58-18.28,6.17-19.38,14.79h0l-18.83,11.15c-2.86,1-5.84.82-8.8,1-10.86.74-17.29,5.65-18.25,13.82h0c-5.48,4.56-12.36,6.82-18.06,11h0c-3.87,1.55-8,1.65-12.06,2-9.62.72-14.72,6.2-16.95,15.06h0c-4.45,1.7-8,5.21-12.76,6.3h0c.05-3.49.08-7,.15-10.46A496.75,496.75,0,0,0,201,194.08c.55-9.46-.95-18.81-2.25-28.08-2.33-16.67-4.7-33.29-4.69-50.16h0c6.8,5.31,13.53,10.68,20.4,15.89,9.14,6.93,16.18,7.06,25.54.53,8.71-6.08,17.34-12.26,26-18.4h0C271.11,109.71,276.59,106,281,101c3.19-2.67,7.42-3.73,10.31-6.91,4-4.41,8.92-6.7,15.07-6.25,2.52.18,5.85.69,6.53-2.9.64-3.41.83-7.07-2.81-9.36C301,69.84,291,68.6,282,77.35c-3.79,3.7-7.9,7.08-11.87,10.6h0a374.71,374.71,0,0,1-41.25,20.81c-2.07.9-2.91,1-4.48-.75-7.55-8.6-14.06-18-21.38-26.75-6.12-7.31-10.62-17.38-22.82-17-1.26,0-2.92,1.24-4.15-.32,3.6-7.34,5.23-15.25,3.69-23.15-1.29-6.6-1.44-13.11-1.59-19.71,6-7.2,5-10.89-3.9-13.23a59.45,59.45,0,0,1-12.32-5.22A23.21,23.21,0,0,0,145.05.79c-9.75,2.47-16.16,8.76-17.8,18.61-1.84,11,.22,21.12,9.77,28.42h0c1.91,2.94,6.23,4.43,5.81,8.72a66.55,66.55,0,0,1-2,10.23c-1.94,7.42-1.49,8.75,5.23,12.55a50.57,50.57,0,0,0,6.27,3.08c10.38,4.14,14.16,1.76,14.82-9.25.07-1.16.12-2.32.15-3.49.06-2.45,1.5-3.1,3.66-2.86h0c.57.31,1.52.5,1.64.93,2.65,9.16,1,17.62-4.38,25.39-.91,1.3-2.3,2.21-3.88,1.64-11.67-4.25-23.76-8-30.92-19.31-1.49-2.37-2.38-1.85-4.17-.69-3.35,2.16-6.06,5.09-9.26,7.46-6,4.41-12,9.36-15.08,16.31-8.1,18.2-14.79,37-17.58,56.77-1.49,10.54,0,15.43,12.42,16.78,4.81.53,9.57.7,14.37.84,3,.09,5.93.34,8.88.61,5.12.48,5.33,3,4.74,7.07-1.19,8.12-2.86,16.25-1.51,24.55h0c0,21.13-.9,42.27.8,63.38,1.25,15.43,2.58,30.85,1.35,46.36-1.36,3.19-.53,7.19-3.56,9.79h0l-17.73,10.26c-3.58,1.2-7.33.57-11,1,.86-6.15,1.83-12.29,2.54-18.46.56-4.75.4-9.47-2.63-13.58h0c-1.44-2.07-1-3.93.29-6,4.38-7.26,2-12.2-6.39-13a121.42,121.42,0,0,0-24.41,0c-11.48,1.26-18,7.07-20.89,18.3s-.38,21.79,5.54,31.49c2.18,3.56,3.64,7,2.83,11.16h0a1.33,1.33,0,0,0-.17.42c-1.17,2.87-2.47,5.66-5,7.68-7-2.15-13.63-2-19.51,3-4.8.49-6.53,4.36-8.38,7.89-3.91,7.46-.73,14.7,1,22h0c2.42,14.25,8.12,27.26,15.19,39.74a102.42,102.42,0,0,1,7.29,15.77c2.78,7.71,2.94,15.13-1.1,22.57a25.79,25.79,0,0,0-3.44,12.84h0c-1.93,8.87-.22,17.52,1.86,26.05a164.66,164.66,0,0,1,4.58,28c.47,6.83-.51,13.11-4.32,19-9.68,15-17.57,30.75-21.8,48.27a139.46,139.46,0,0,1-9.36,26.73c-.07,2.24-1.16,4.17-2.17,6C6,635,5,637.92,8,640.76,4.69,644.1,2.54,648.19.5,652.37c-.79,1.64-.71,2.7.74,3.84A67,67,0,0,0,26.8,669.07a2.71,2.71,0,0,0,3.35-1.21c3-4.28,2.85-9.54-.88-13.15-2.27-2.19-3.75-4.45-3.11-7.7h0c2.54-.23,3.41-2.2,4.45-4.12,6.82-12.47,11.79-25.7,16.31-39.13a5.92,5.92,0,0,0,2.42-3.06c4.45-10.07,10.26-19.36,16.13-28.62A129,129,0,0,0,78,547.73c.92-2.51,1.37-5.21,2.5-8.19,10,14.3,16.15,29,15.35,46.12-.18,3.72-1,7.65,1,11.23.19,9.71,2.63,19,5.41,28.22,3.35,11.09,2.54,23.09,7.61,33.77.41,2.42.42,5.22,3.51,5.89,5.18,1.12,11.35.11,13.94-3.35,3.36-4.51,7.22-4.19,11.28-4.77,10.2-1.45,18.64-5.75,24.45-14.5,1.49-2.25,2.76-4.76,1.24-7.43s-4.2-3.52-7.27-3.27A127.9,127.9,0,0,0,133.93,635h0c-3.94-11.37-6.47-23-5.74-35.11-.57-12.45,0-24.88.58-37.32,1.16-25.83-3.66-50.4-15.79-73.38-1-.67-1.31-2-.79-2.6,2.65-3,1.57-6.06.68-9.25A46.85,46.85,0,0,1,112,472l20.18.91c5.4,3.16,10.85,6.26,16.18,9.54a3.66,3.66,0,0,0,4.42,0c7.41-4.3,15-8.37,22.45-12.53h0c2.2-2.34,5.48-1.93,8.11-3.18,5.08-.62,10.3-.68,15.19-2,8.23-2.18,15.28-6.32,18.47-15,.65-1.77,1-3.47-.85-4.79,3.62-.89,6.7-2.92,9.86-4.73q49.53-28.5,99-57.1c19.45-11.23,38.87-22.5,58.39-33.62,1.45-.83,3-3.5,5.27-1.06h0c-.4,7.43-2,14.67-3.55,21.92a25.88,25.88,0,0,0,.24,10.37c1.48,7.81,2.84,15.65,4.34,23.46.39,2,.24,3.6-1.67,4.68-8,15.2-17,29.69-28.1,42.84a24.9,24.9,0,0,0-4.82,8c-4.29,1.5-6.79,5.18-9.86,8.16-.53.51-1.39,1.13-.76,2.09a53.65,53.65,0,0,0,9,10.68c1.9,1.71,3.76,3.9,6.88,2,.35-.22,1.74.8,2.33,1.51a59.62,59.62,0,0,1,4.18,5.58c6.64,10.18,13,12.5,24.54,9.16,2-.58,2.6-1.62,2.72-3.5.31-5.22-2.51-7.84-7.12-9.4-4.84-1.65-9.33-3.87-9.73-10h0c1.34-1.94-.3-4.51,1.64-6.47,5.61-5.65,9.45-12.69,14.49-18.78,2.8-3.38,4.45-7.79,8.61-10,4.83-.38,9.21-2.71,10.64-6.94,1.88-5.52,5.72-7.82,10.46-8.55,7.17-1.09,11.37-5.64,15.19-11,1.62-2.27,2.36-4.73.79-7.39a15.13,15.13,0,0,0-6.82-3.35c10.26-10.44,14.86-23.12,15.93-37.61C450.17,338.86,446.8,312.3,441.26,285.89ZM150,418.06V418l.07,0Zm19.35-120.52a1.27,1.27,0,0,1-.52.09,12.78,12.78,0,0,1-2.53,1.68,21,21,0,0,0,2.48-5.13A6.88,6.88,0,0,0,169.34,297.54ZM173,295l-.19,0,.13-.2ZM96,376.42c-.1-.15-.2-.29-.29-.45h0l.41.1C96.12,376.19,96.07,376.3,96,376.42ZM402.87,247.94h0c0,.12,0,.24,0,.35-.23-.09-.44-.16-.65-.22A5.38,5.38,0,0,1,402.87,247.94Zm30.38,47.21s0-.08,0-.12h.28ZM423.4,133.23l.29-.08,0,.33ZM198.06,282.8l-.37-.09h0l.4-.29Zm-109,48.92a.61.61,0,0,0-.07-.1l.09,0S89.1,331.67,89.09,331.72Zm108,119.42a1.57,1.57,0,0,0,.05.3,1.61,1.61,0,0,0,.16.35l-1.1,0Z"/></g></g></g></svg>