<svg xmlns="http://www.w3.org/2000/svg" xmlns:xlink="http://www.w3.org/1999/xlink" viewBox="0 0 110 60.08"><defs><style>.cls-1{fill:#292828;}.cls-2{fill:url(#linear-gradient);}</style><linearGradient id="linear-gradient" x1="2.08" y1="-23.78" x2="84.74" y2="60.22" gradientUnits="userSpaceOnUse"><stop offset="0" stop-color="#ffecd2" stop-opacity="0"/><stop offset="1" stop-color="#ffecd2"/></linearGradient></defs><title>credit-card_2</title><g id="Layer_2" data-name="Layer 2"><g id="Layer_1-2" data-name="Layer 1"><rect class="cls-1" y="19.08" width="110" height="41" rx="6" ry="6"/><path class="cls-2" d="M33.33,46.67a5,5,0,1,0-5-5A5,5,0,0,0,33.33,46.67ZM78.33,0H31.67A16.7,16.7,0,0,0,15,16.67V43.33A16.7,16.7,0,0,0,31.67,60H78.33A16.7,16.7,0,0,0,95,43.33V16.67A16.7,16.7,0,0,0,78.33,0ZM31.67,6.67H78.33a10,10,0,0,1,10,10H21.67a10,10,0,0,1,10-10ZM78.33,53.33H31.67a10,10,0,0,1-10-10v-20H88.33v20a10,10,0,0,1-10,10Z"/></g></g></svg>