<svg xmlns="http://www.w3.org/2000/svg" xmlns:xlink="http://www.w3.org/1999/xlink" viewBox="0 0 80 60"><defs><style>.cls-1{fill:url(#linear-gradient);}</style><linearGradient id="linear-gradient" x1="-12.92" y1="84.97" x2="69.74" y2="0.97" gradientTransform="matrix(1, 0, 0, -1, 0, 61.2)" gradientUnits="userSpaceOnUse"><stop offset="0" stop-color="#ffecd2" stop-opacity="0"/><stop offset="1" stop-color="#ffecd2"/></linearGradient></defs><title>credit-card</title><g id="Layer_2" data-name="Layer 2"><g id="Layer_1-2" data-name="Layer 1"><path class="cls-1" d="M18.33,46.67a5,5,0,1,0-5-5A5,5,0,0,0,18.33,46.67ZM63.33,0H16.67A16.7,16.7,0,0,0,0,16.67V43.33A16.7,16.7,0,0,0,16.67,60H63.33A16.7,16.7,0,0,0,80,43.33V16.67A16.7,16.7,0,0,0,63.33,0ZM16.67,6.67H63.33a10,10,0,0,1,10,10H6.67A10,10,0,0,1,16.67,6.67ZM63.33,53.33H16.67a10,10,0,0,1-10-10v-20H73.33v20A10,10,0,0,1,63.33,53.33Z"/></g></g></svg>