<svg xmlns="http://www.w3.org/2000/svg" xmlns:xlink="http://www.w3.org/1999/xlink" viewBox="0 0 80 63.73"><defs><style>.cls-1{fill-opacity:0.85;fill:url(#linear-gradient);}</style><linearGradient id="linear-gradient" x1="-4.13" y1="-7.2" x2="73.37" y2="62.3" gradientUnits="userSpaceOnUse"><stop offset="0" stop-color="#ffecd2" stop-opacity="0"/><stop offset="1" stop-color="#ffecd2"/></linearGradient></defs><title>crown</title><g id="Layer_2" data-name="Layer 2"><g id="Layer_1-2" data-name="Layer 1"><path class="cls-1" d="M75.89,7A6.87,6.87,0,0,0,72,6.63a6.7,6.7,0,0,0-3.41,1.78L60,16.83,44.71,1.91a6.76,6.76,0,0,0-9.42,0L20,16.83,11.38,8.41A6.7,6.7,0,0,0,8,6.63,6.83,6.83,0,0,0,4.12,7a6.74,6.74,0,0,0-3,2.4A6.41,6.41,0,0,0,0,13V47.46A16.1,16.1,0,0,0,4.89,59a16.91,16.91,0,0,0,11.78,4.77H63.33A16.91,16.91,0,0,0,75.11,59,16.1,16.1,0,0,0,80,47.46V13A6.41,6.41,0,0,0,78.88,9.4,6.65,6.65,0,0,0,75.89,7ZM73.33,47.46a9.62,9.62,0,0,1-2.93,6.9,10.1,10.1,0,0,1-7.07,2.86H16.67A10.1,10.1,0,0,1,9.6,54.36a9.62,9.62,0,0,1-2.93-6.9V13l11,10.72a3.41,3.41,0,0,0,4.72,0L40,6.51,57.64,23.73a3.41,3.41,0,0,0,4.72,0L73.33,13Z"/></g></g></svg>