<svg xmlns="http://www.w3.org/2000/svg" viewBox="0 0 719.43 736.15"><defs><style>.cls-1{fill:#e94335;}.cls-2{fill:#34a753;}.cls-3{fill:#4285f3;}.cls-4{fill:#fabb05;}</style></defs><title>google</title><g id="Layer_2" data-name="Layer 2"><g id="Layer_1-2" data-name="Layer 1"><path class="cls-1" d="M37.76,205.07A301.6,301.6,0,0,1,55,173.85a367,367,0,0,1,267.18-171A369.49,369.49,0,0,1,385.23.42,361.17,361.17,0,0,1,537.35,41.75,382.18,382.18,0,0,1,609.42,91c1,.89,1,1.32.06,2.24Q557.05,145.56,504.74,198c-1.23,1.23-1.81.65-2.72-.08a213.2,213.2,0,0,0-152.3-46.56,217,217,0,0,0-182,131.77c-2.28,5.4-4.23,10.94-6.34,16.41l-24.67-18.82L75.76,234.15Q56.76,219.62,37.76,205.07Z"/><path class="cls-2" d="M161.31,436.34a228.65,228.65,0,0,0,13.95,32.75q39,72.72,115.88,102.54A209.3,209.3,0,0,0,343,584.13a252,252,0,0,0,57.05-.38c26-2.94,50.87-9.59,74.34-21.26,5.51-2.74,10.82-5.83,16.09-9Q502.75,563,515,572.56l92.84,71.84a271.53,271.53,0,0,1-25,21.11C543,695.7,498.58,716,449.88,727A368.72,368.72,0,0,1,388,735.58a364,364,0,0,1-58.32-1.41c-65.88-7-125.8-29.72-179.32-68.86Q78.43,612.72,38.57,532.93c-.33-.66-.57-1.35-.85-2,.6-.42,1.21-.83,1.79-1.27Q83,496.24,126.57,462.87,143.92,449.58,161.31,436.34Z"/><path class="cls-3" d="M607.84,644.4,515,572.56q-12.27-9.51-24.51-19.06c6.28-4.31,12.53-8.64,18.39-13.53A162.32,162.32,0,0,0,554.69,478a181.29,181.29,0,0,0,10.2-32.34c.42-1.94,0-2.21-1.79-2.2q-46,.06-91.93,0-50.39,0-100.77.05c-1.93,0-2.42-.45-2.41-2.4q.09-68.85,0-137.71c0-2.13.64-2.44,2.56-2.44q169,.06,338,0c1.86,0,2.64.45,3,2.33,2.51,11.74,4.6,23.54,6.06,35.45a292.05,292.05,0,0,1,1.54,44.45c-.3,10.15-.92,20.3-2,30.4-3.49,34.22-10.64,67.61-22.66,99.9A336.33,336.33,0,0,1,609.69,642.9,5.31,5.31,0,0,1,607.84,644.4Z"/><path class="cls-4" d="M161.31,436.34q-17.37,13.26-34.74,26.53Q83,496.23,39.51,529.63c-.58.44-1.19.85-1.79,1.27a108.61,108.61,0,0,1-5.66-11.7A365.13,365.13,0,0,1,5.6,432.85,378.45,378.45,0,0,1,1.92,329.94,366.4,366.4,0,0,1,37,206.47c.24-.48.53-.93.8-1.4q19,14.55,38,29.08l60.92,46.56,24.67,18.82c-1.65,6.12-3.58,12.16-5,18.34a220.91,220.91,0,0,0-5.25,65.3,216.81,216.81,0,0,0,10.08,52.38A5.22,5.22,0,0,1,161.31,436.34Z"/></g></g></svg>