<svg xmlns="http://www.w3.org/2000/svg" xmlns:xlink="http://www.w3.org/1999/xlink" viewBox="0 0 79.8 79.8"><defs><style>.cls-1,.cls-2{opacity:0.85;}.cls-1{fill:url(#linear-gradient);}.cls-3{fill:url(#linear-gradient-2);}</style><linearGradient id="linear-gradient" x1="-11.83" y1="-10.79" x2="63.17" y2="67.21" gradientUnits="userSpaceOnUse"><stop offset="0" stop-color="#ffecd2" stop-opacity="0"/><stop offset="1" stop-color="#ffecd2"/></linearGradient><linearGradient id="linear-gradient-2" x1="-10.29" y1="-12.28" x2="64.71" y2="65.72" xlink:href="#linear-gradient"/></defs><title>time</title><g id="Layer_2" data-name="Layer 2"><g id="Layer_1-2" data-name="Layer 1"><path class="cls-1" d="M40.24,21.28a3.33,3.33,0,0,0-3.32,3.33V39L25.71,46a3.35,3.35,0,0,0-1.48,2.08,3.33,3.33,0,0,0,5,3.57l12.77-8a3.29,3.29,0,0,0,1.15-1.22,3.43,3.43,0,0,0,.41-1.63V24.61a3.35,3.35,0,0,0-3.33-3.33Z"/><g class="cls-2"><path class="cls-3" d="M39.9,0A39.95,39.95,0,1,0,68.1,11.7,40,40,0,0,0,39.9,0Zm0,73.15A33.29,33.29,0,1,1,63.4,63.4,33.29,33.29,0,0,1,39.9,73.15Z"/></g></g></g></svg>